<svg xmlns="http://www.w3.org/2000/svg" xmlns:xlink="http://www.w3.org/1999/xlink" width="318.5" height="190.246" viewBox="0 0 318.5 190.246">
  <defs>
    <clipPath id="clip-path">
      <rect id="長方形_138" data-name="長方形 138" width="318.5" height="190.246" fill="none"/>
    </clipPath>
  </defs>
  <g id="グループ_128" data-name="グループ 128" clip-path="url(#clip-path)">
    <path id="パス_182" data-name="パス 182" d="M46.5,9.379c-.223,1.2-.524,2.409-.828,3.576,2.673-.038,7-.078,8.8-.078,2.111,0,3.316,1.132,3.316,2.786,0,2.259-3.124,6.811-4.972,8.953a23.107,23.107,0,0,0,9.9,4.326,1.811,1.811,0,0,1,1.656,1.772,2.242,2.242,0,0,1-2.331,2.18c-1.352,0-6.4-1.28-11.667-5.756C45.185,31.878,39.842,33.2,39.014,33.2a1.971,1.971,0,0,1-2.033-1.882,1.754,1.754,0,0,1,1.543-1.653,21.26,21.26,0,0,0,9.367-4.894,23.8,23.8,0,0,1-4.182-6.054c-2.139,5.264-5.148,9.857-8.875,12.639a2.346,2.346,0,0,1-1.465.527,1.915,1.915,0,0,1-1.958-1.769,1.877,1.877,0,0,1,.907-1.5C38.3,24.318,41.5,16.717,42.738,9.379H34.161A1.616,1.616,0,0,1,32.354,7.76a1.756,1.756,0,0,1,1.807-1.807h9.025a40.6,40.6,0,0,0,.191-4.248A1.733,1.733,0,0,1,45.332.012c1.054,0,2.146.6,2.146,1.694A40.491,40.491,0,0,1,47.1,5.954H61.965A1.709,1.709,0,0,1,63.7,7.726a1.618,1.618,0,0,1-1.732,1.653Zm7.074,7.187a.526.526,0,0,0-.6-.565H45.9a19.416,19.416,0,0,0,4.288,6.321c2-2.522,3.385-5.229,3.385-5.756" transform="translate(67.131 0.026)" fill="#fff"/>
    <path id="パス_183" data-name="パス 183" d="M48.349,29.587c-1.126,2.519-5.117,1.43-3.535-1.769A116.532,116.532,0,0,0,51.4,11.49a10.966,10.966,0,0,1-5.493-.527c-1.92-.828-1.547-4.251,1.28-3.234a10.105,10.105,0,0,0,5.189.226,16.406,16.406,0,0,0-.038-4.066C52.185,1.746,55.721,1.63,56.1,3.7a11.571,11.571,0,0,1,.035,3.008c.527-.264.982-.527,1.43-.791,1.958-1.28,4.291,1.841,1.468,3.237a24.209,24.209,0,0,1-3.8,1.5,148.1,148.1,0,0,1-6.886,18.926m9.141-1.694c-1.619-1.807.715-4.778,2.673-2.783,1.917,1.958,4.213,1.766,8.617,1.39a1.953,1.953,0,1,1,.486,3.874c-5.452,1.092-10.12-.64-11.776-2.481m4.251-13.128c-1.954.712-3.121-2.372-.637-3.237a13.954,13.954,0,0,1,9.028.188c2.522.9,1.506,4.213-.866,3.423-2.108-.715-5.531-1.126-7.526-.373m4.254-8.73c-1.917-.791-.414-3.087,1.318-2.447a11.653,11.653,0,0,1,3.724,2.259c1.465,1.581-.753,3.874-2,2.409a12.846,12.846,0,0,0-3.046-2.221m3.385-3.31c-1.917-.753-.565-3.049,1.2-2.485a12.175,12.175,0,0,1,3.8,2.18c1.506,1.509-.637,3.84-1.92,2.409a13.534,13.534,0,0,0-3.084-2.1" transform="translate(94.986 0.324)" fill="#fff"/>
    <path id="パス_184" data-name="パス 184" d="M63.627,18.31a16.9,16.9,0,0,1,7.447-3.234c7.9-1.054,11.475,5.907,6.735,11.547-2.07,2.485-6.1,4.4-10.12,4.931-3.614.489-3.8-3.272-.982-3.614,3.237-.376,6.287-1.616,7.83-3.385,2.748-3.084,2.1-6.66-3.012-6.246A11.256,11.256,0,0,0,64.9,21.773c-.678.712-.866,1.807-2.143,2.143-1.66.452-2.936-1.167-2.673-3.084.3-2.146.828-5.985,1.39-9.668a14.224,14.224,0,0,1-3.535-.113c-2.783-.452-2.485-4.254.527-3.576a9.453,9.453,0,0,0,3.576.038c.373-2.409.75-4.477,1.013-5.644a1.863,1.863,0,1,1,3.614.9c-.264.866-.527,2.108-.828,3.5a14.923,14.923,0,0,0,2-1.2c2.594-1.845,4.966,1.923,1.468,3.539a44.2,44.2,0,0,1-4.254,1.769c-.6,3.31-1.167,6.619-1.427,7.937" transform="translate(119.723 0.876)" fill="#fff"/>
    <path id="パス_185" data-name="パス 185" d="M68.02,32.845a2.261,2.261,0,0,1-2.108-2.067,1.618,1.618,0,0,1,.944-1.434,23.554,23.554,0,0,0,5.267-3.874c.038-1.691.075-3.159.075-4.589V19.337c0-.9-.376-1.013-1.735-1.013H68.811c-.791,0-2.146-.041-2.146-1.581a1.705,1.705,0,0,1,1.656-1.807c1.355,0,2.6,0,3.84.038,2.447.075,3.573,1.129,3.573,3.535,0,2.183-.072,4.781-.072,7.187,2.406,2.974,6.054,3.8,11.322,3.8,3.689,0,7.636-.414,10.572-.637h.188a1.784,1.784,0,0,1,1.841,1.8,1.905,1.905,0,0,1-1.917,1.882c-2.334.226-5.756.452-9.141.452-9.973,0-12.153-2.07-14.6-4.589-2.936,3.012-4.891,4.439-5.907,4.439M72.8,8.351a11.9,11.9,0,0,0-3.874-3.385A1.332,1.332,0,0,1,68.133,3.8a2.006,2.006,0,0,1,2-1.8c.979,0,6.02,2.858,6.02,5.038a2.135,2.135,0,0,1-2,2.108A1.693,1.693,0,0,1,72.8,8.351m11.588-4.4A20.962,20.962,0,0,0,84.875,1.5,1.792,1.792,0,0,1,86.833,0a1.931,1.931,0,0,1,2.146,1.732,7.147,7.147,0,0,1-.605,2.18c1.471,0,2.826,0,3.881.038,1.725.075,3.008.979,3.156,2.485.078.941.151,2,.151,2.933,0,2.481-.264,4.4-3.871,4.517-1.509.035-3.5.072-5.458.072-1.28,0-2.519-.038-3.611-.072V16.4c1.691-.038,3.912-.075,6.133-.075,1.355,0,2.745,0,3.95.038,2.707.038,3.761,1.393,3.8,2.971.038.6.038,1.2.038,1.807,0,1.092-.038,2.183-.116,3.121-.11,1.581-1.5,2.56-3.237,2.635-1.989.075-4.36.151-6.544.151-4.4,0-7.485-.038-7.563-3.46-.035-1.732-.035-3.614-.035-5.493,0-3.764.035-7.6.035-10.8,0-1.879,1.132-3.31,3.539-3.347ZM87.172,11.1c4.74,0,4.74,0,4.74-1.958,0-1.845-.038-2.409-1.2-2.409-1.242,0-3.084-.035-4.7-.035-3.159,0-3.347.072-3.347,1.732v2.594c1.2.075,2.9.075,4.514.075m-4.514,9.028v2.108c0,1.653.3,1.732,4.662,1.732,5.007,0,5.462,0,5.534-1.132.038-.336.038-.825.038-1.277,0-.489,0-1.016-.038-1.39a1.192,1.192,0,0,0-1.28-.982H89.54c-2.221,0-4.891.041-6.883.113Z" transform="translate(140.856 0)" fill="#fff"/>
    <path id="パス_186" data-name="パス 186" d="M88.9,10.978C88.675,16.4,87.546,25.65,81.564,31.6a2.278,2.278,0,0,1-1.5.674,1.871,1.871,0,0,1-1.92-1.729,1.591,1.591,0,0,1,.562-1.2c5.684-5.421,6.324-13.47,6.588-18.436l.038-.3c-1.242.038-2.481.075-3.727.075h-.038a1.526,1.526,0,0,1-1.578-1.619A1.614,1.614,0,0,1,81.6,7.367c1.318-.041,2.563-.041,3.84-.075.038-.941.038-1.882.038-2.786,0-.941,0-1.841-.038-2.673V1.761A1.643,1.643,0,0,1,87.245.18a1.776,1.776,0,0,1,1.92,1.653v.982c0,1.427-.038,2.933-.113,4.439h2.673c3.953.072,3.953,3.648,3.953,5.041a94.211,94.211,0,0,1-.756,12.642c-.715,4.326-3.008,6.205-6.133,6.205a10.319,10.319,0,0,1-2.707-.414,1.824,1.824,0,0,1-1.318-1.8,1.55,1.55,0,0,1,1.468-1.694,2.55,2.55,0,0,1,.678.113,4.021,4.021,0,0,0,1.465.264c2.07,0,3.764-1.167,3.764-13.768,0-2.372-.038-3.272-1.468-3.272-.6,0-1.164-.041-1.732-.041ZM106.848,31.07c-.791.035-1.54.072-2.293.072-2.974,0-6.324-.072-6.434-4.062-.078-2.783-.113-5.791-.113-8.8s.035-6.02.113-8.765A4.107,4.107,0,0,1,102.255,5.6c.831-.038,1.581-.075,2.334-.075s1.509.038,2.3.075A4.3,4.3,0,0,1,111.1,9.585c.113,2.635.147,5.606.147,8.617s-.034,6.02-.147,8.765a4.3,4.3,0,0,1-4.254,4.1m.791-12.981c0-2.786-.041-5.531-.113-7.714-.038-1.355-.678-1.54-1.732-1.653-.414-.038-.828-.078-1.239-.078s-.828.041-1.245.078c-1.013.113-1.619.489-1.653,1.653-.11,2.146-.151,4.778-.151,7.45,0,2.936.041,5.869.151,8.279.035,1.277.3,1.653,2.933,1.653,2.108,0,2.9-.226,2.936-1.766.072-2.334.113-5.117.113-7.9" transform="translate(166.99 0.385)" fill="#fff"/>
    <path id="パス_187" data-name="パス 187" d="M101.811,10.388a12.578,12.578,0,0,1,1.2-1.954c.6-.791.411-.753-.3-.527a50.154,50.154,0,0,0-4.743,1.882c-1.2.449-2.256.825-3.385,1.126-3.313.9-4.329-3.423-1.318-4.062.791-.191,2.974-.6,4.175-.9,1.845-.452,5.157-1.2,8.994-2.3a50.742,50.742,0,0,1,10.233-2.221c2.334-.147,2.971,1.694,2.557,2.9-.223.64-1.051,1.393-3.683,1.242a15.957,15.957,0,0,0-5.571,1.054,10.958,10.958,0,0,0-4.853,4.4c-3.31,5.531-.791,13.43,7.639,13.132,3.949-.151,4.213,4.288.223,4.251-11.359-.038-15.274-10.459-11.171-18.022M113.4,12.872c-2-.866-.489-3.2,1.355-2.522a12.234,12.234,0,0,1,3.946,2.372c1.547,1.653-.784,4.062-2.1,2.519a14.3,14.3,0,0,0-3.2-2.368M117.2,9.6c-2.03-.791-.565-3.2,1.28-2.594a12.405,12.405,0,0,1,3.99,2.259c1.578,1.578-.643,4.059-2,2.557A13.284,13.284,0,0,0,117.2,9.6" transform="translate(195.489 3.042)" fill="#fff"/>
    <path id="パス_188" data-name="パス 188" d="M40.15,30.389H22.281a1.22,1.22,0,0,1-1.214-1.22V1.418A1.215,1.215,0,0,1,22.281.2H40.15a1.219,1.219,0,0,1,1.214,1.214V5.926a1.218,1.218,0,0,1-1.214,1.22H28V11.82H40.15a1.225,1.225,0,0,1,1.214,1.214v4.514a1.213,1.213,0,0,1-1.214,1.214H28v4.687H40.15a1.22,1.22,0,0,1,1.214,1.217v4.5a1.222,1.222,0,0,1-1.214,1.22" transform="translate(45.021 0.436)" fill="#fff"/>
    <path id="パス_189" data-name="パス 189" d="M19.079,30.389a1.223,1.223,0,0,0,1.217-1.22v-4.5a1.222,1.222,0,0,0-1.217-1.217H6.939V1.418A1.22,1.22,0,0,0,5.722.2H1.214A1.213,1.213,0,0,0,0,1.418v27.75a1.218,1.218,0,0,0,1.214,1.22H19.079Z" transform="translate(0 0.436)" fill="#fff"/>
    <path id="パス_190" data-name="パス 190" d="M13.411.2H8.9A1.217,1.217,0,0,0,7.686,1.418v27.75A1.222,1.222,0,0,0,8.9,30.389h4.511a1.222,1.222,0,0,0,1.214-1.22V1.418A1.217,1.217,0,0,0,13.411.2" transform="translate(16.425 0.436)" fill="#fff"/>
    <path id="パス_191" data-name="パス 191" d="M36.431.2h-4.5a1.218,1.218,0,0,0-1.22,1.214V17.9L18.007.756a1.6,1.6,0,0,0-.091-.132l-.013,0a.417.417,0,0,0-.072-.075L17.806.521a.316.316,0,0,1-.063-.053L17.709.439,17.643.4c-.009-.016-.025-.019-.035-.028L17.543.336,17.5.326A.213.213,0,0,0,17.43.289L17.389.273c-.022,0-.044-.016-.069-.022l-.044,0A.264.264,0,0,0,17.2.226L17.15.22c-.025,0-.041-.009-.066-.009A.2.2,0,0,0,17.022.2H12.5a1.215,1.215,0,0,0-1.214,1.214v27.75a1.22,1.22,0,0,0,1.214,1.22H17a1.22,1.22,0,0,0,1.214-1.22V12.689L30.935,29.862a1.23,1.23,0,0,0,.314.311l.013.006a.36.36,0,0,0,.075.041c.009.016.022.016.035.031a.2.2,0,0,1,.06.025.183.183,0,0,1,.056.025.116.116,0,0,1,.044.013.784.784,0,0,0,.078.028h.019a1.335,1.335,0,0,0,.32.047h4.483a1.223,1.223,0,0,0,1.217-1.22V1.418A1.218,1.218,0,0,0,36.431.2" transform="translate(24.108 0.436)" fill="#fff"/>
    <path id="パス_192" data-name="パス 192" d="M1.421,19.133H29.71v7.814H8.554V39.43a13.177,13.177,0,0,1,8.508-3.008,15.738,15.738,0,0,1,5.618,1.129,12.249,12.249,0,0,1,3.909,2.855,13.326,13.326,0,0,1,3.194,5.22,19.509,19.509,0,0,1,.728,3.946q.212,2.367.216,5.822A35.068,35.068,0,0,1,30,63.585a13.241,13.241,0,0,1-2.547,4.994,14.827,14.827,0,0,1-4.552,3.89,13.208,13.208,0,0,1-6.92,1.907,16.233,16.233,0,0,1-9.863-3.3Q1.563,67.7.467,60.162h7.62q1.238,6.32,7.62,6.4a7.6,7.6,0,0,0,4.376-1.129,5.691,5.691,0,0,0,2.183-2.864,13.712,13.712,0,0,0,.8-3.84q.071-2.033.072-3.953a16.173,16.173,0,0,0-1.427-7.642,5.746,5.746,0,0,0-2.375-2.224,9.906,9.906,0,0,0-3.912-.678,7.552,7.552,0,0,0-3.8.979,8.755,8.755,0,0,0-3.071,3.542H1.421Z" transform="translate(0.998 40.888)" fill="#fff100"/>
    <path id="パス_193" data-name="パス 193" d="M13.485,34.71q.071-7.581,4.7-11.67a14.625,14.625,0,0,1,10.349-4.05,14.852,14.852,0,0,1,10.528,4.056q4.409,4.094,4.555,11.689V58.9q-.151,7.552-4.555,11.648a15.154,15.154,0,0,1-10.528,4.135,14.931,14.931,0,0,1-10.349-4.128q-4.63-4.089-4.7-11.632Zm22.549.489q-.216-8.249-7.5-8.4-7.322.151-7.466,8.4V58.47q.146,8.319,7.466,8.4,7.279-.075,7.5-8.4Z" transform="translate(28.818 40.582)" fill="#fff100"/>
    <path id="パス_194" data-name="パス 194" d="M26.488,34.71q.071-7.581,4.7-11.67a14.625,14.625,0,0,1,10.349-4.05,14.852,14.852,0,0,1,10.528,4.056q4.409,4.094,4.555,11.689V58.9q-.151,7.552-4.555,11.648a15.154,15.154,0,0,1-10.528,4.135,14.931,14.931,0,0,1-10.349-4.128q-4.626-4.089-4.7-11.632Zm22.549.489q-.221-8.249-7.5-8.4-7.317.151-7.466,8.4V58.47q.151,8.319,7.466,8.4,7.279-.075,7.5-8.4Z" transform="translate(56.606 40.582)" fill="#fff100"/>
    <path id="パス_195" data-name="パス 195" d="M65.5,42.861H43.454v3.912c0,3.165,0,6.412.038,9.7v.041a1.791,1.791,0,0,1-1.954,1.719A1.838,1.838,0,0,1,39.5,56.51c0-12.592.194-24.124.232-26.552.038-2.459,1.958-4.1,4.928-4.141,3.012-.082,6.371-.082,9.813-.082s6.92,0,10.048.082A4.668,4.668,0,0,1,69.3,30.275c.154,5.747.075,12.156.154,16.576l.082,5.512v.078c0,2.306-1.6,5.239-6.883,5.239-2.384,0-4.3-.157-4.3-2.227a1.746,1.746,0,0,1,1.641-1.917,1.138,1.138,0,0,1,.354.038,13.916,13.916,0,0,0,2.422.276c1.565,0,2.739-.508,2.739-2.23ZM52.56,29.1c-2.265,0-4.379.038-6.1.078-2.23.038-2.817.587-2.858,2.5-.078,2.463-.078,5.082-.116,7.78l9.069.041ZM65.5,39.461c0-2.852-.038-5.631-.119-7.78s-.822-2.463-2.736-2.5-4.028-.078-6.177-.078V39.5Z" transform="translate(84.421 54.999)" fill="#fff100"/>
    <path id="パス_196" data-name="パス 196" d="M69.524,30.094c1.826-.129,3.906-.3,5.606-.383,3.269-.173,6.114,2.124,4.542,5.135C74.493,44.741,68.633,53.361,56.7,58.073c-3.608,1.4-5.349-2.761-1.826-3.993C64.3,50.811,71.309,42.319,74.453,35.1c.339-.809,0-1.612-1.023-1.572-1.782.044-4.878.339-6.792.552-2.886,3.821-6.622,8.279-9.552,10.274-2.845,1.91-5.349-1.741-2.463-3.523,4.075-2.506,9.6-10.318,11.547-13.671,1.4-2.378,5.65-.342,3.652,2.506Z" transform="translate(113.167 55.814)" fill="#fff100"/>
    <path id="パス_197" data-name="パス 197" d="M66.94,34.322a2.047,2.047,0,0,1-2.252-2.039,2.166,2.166,0,0,1,2.252-2.165H93.6a2.1,2.1,0,1,1,0,4.2Z" transform="translate(138.241 64.363)" fill="#fff100"/>
    <path id="パス_198" data-name="パス 198" d="M77.789,53.785a2.1,2.1,0,0,1,.555-3.015,21.1,21.1,0,0,0,5.647-6.026,1.916,1.916,0,1,1,3.269,2C86.2,48.565,83.436,52.555,80.8,54.3a2.16,2.16,0,0,1-3.015-.511m3.739-13.458c-2.845.125-3.228-3.78-.088-3.906,3.357-.129,6.839-.254,10.274-.295,0-2.252,0-4.163-.041-5.352a2.045,2.045,0,1,1,4.078-.169c-.041,1.314-.085,3.269-.129,5.477,3.269-.044,6.494,0,9.64.044,3.225.041,2.968,4.16-.173,3.987s-6.324-.169-9.512-.169c-.041,3.438,0,7.093.132,10.02.041,1.358.041,2.039.041,3.228,0,3.353-2.039,5.9-8.112,4.84-3.777-.681-2.121-5.051.471-4.2,1.741.552,3.6.806,3.648-1.531.044-3.012.044-7.852,0-12.31-3.394.085-6.836.21-10.23.339m24.03,12.357a22.14,22.14,0,0,0-6.2-5.775c-2.08-1.233-.044-4.458,2.378-3.015,1.826,1.06,5.6,3.567,7.3,6.24a2.291,2.291,0,0,1-.678,3.059,1.859,1.859,0,0,1-2.8-.508m-.891-18.512a4.4,4.4,0,0,1,0-8.79,4.4,4.4,0,1,1,0,8.79m0-6.5a2.122,2.122,0,1,0,2.124,2.121,2.158,2.158,0,0,0-2.124-2.121" transform="translate(165.372 54.242)" fill="#fff100"/>
    <path id="パス_199" data-name="パス 199" d="M98.8,35.374a15.672,15.672,0,0,0-6.283-3.143c-2.55-.6-1.487-4.884,1.738-3.99a26.921,26.921,0,0,1,7.472,3.225,2.513,2.513,0,0,1,.555,3.523,2.249,2.249,0,0,1-3.482.386M96.161,52.907c-3.608,1.148-4.966-3.692-1.443-4.586,8.533-2.165,17.113-10.955,21.4-19.274,1.358-2.635,5.734-.85,3.865,2.506-5.264,9.549-14.054,18.254-23.82,21.354" transform="translate(194.664 59.365)" fill="#fff100"/>
    <path id="パス_200" data-name="パス 200" d="M5.76,90.5A40.23,40.23,0,0,0,31.571,64.558c.514-1.754.326-3.379-2.083-3.448-6.374-.195-16.642.2-26.006.524A3.221,3.221,0,1,1,3.357,55.2c8.583-.389,20.733-.455,28.992-.326,5.267.066,8.972,4.031,7.083,9.361-4.549,13-12.479,25.614-30.683,32.569C3.225,98.88.819,92.054,5.76,90.5M44.374,56.367a6.859,6.859,0,0,1,0-13.718,6.859,6.859,0,1,1,0,13.718m0-10.2a3.388,3.388,0,0,0-3.316,3.379,3.317,3.317,0,0,0,6.632,0,3.386,3.386,0,0,0-3.316-3.379" transform="translate(0.163 91.142)" fill="#fff100"/>
    <path id="パス_201" data-name="パス 201" d="M30.148,83.772c-4.354,2.146-10.142.844-9.944-6.045.191-7.413.326-23.208.129-27.565-.194-5,6.694-4.486,6.826-.129.129,4.615-.066,19.18-.257,24.118-.066,1.819,1.625,2.469,3.184,1.625A65.943,65.943,0,0,0,53.553,54.325c2.726-4.357,8.583-.26,5.979,3.771-5.2,8.128-18.4,20.215-29.385,25.677" transform="translate(43.165 99.556)" fill="#fff100"/>
    <path id="パス_202" data-name="パス 202" d="M41.622,78.012c-4.486,1.889-6.437-4.285-2.4-5.587,1.3-.392,6.955-2.732,13.583-5.4C52.934,61.7,53,56.3,53,52.4c0-4.357,6.632-3.639,6.632-.26,0,3.448-.194,7.8-.323,12.222C66,61.633,72.565,59.1,75.684,57.991c4.815-1.688,9.753,1.691,7.67,6.045a45.968,45.968,0,0,1-9.941,13.652c-4.291,3.9-8.517-1.042-4.944-4.357a38.384,38.384,0,0,0,6.763-7.407c1.167-1.757.326-1.691-.913-1.3-2.274.715-8.708,3.316-15.277,6.045-.194,3.965-.323,7.545-.452,9.948-.132,3.184,1.49,4.809,5.393,5.267a38.874,38.874,0,0,0,13.979-1.368c5.785-1.823,8.646,5.33,1.3,7.024a50.648,50.648,0,0,1-17.683.649c-5.719-.718-9.3-4.229-9.17-9.559.069-2.277.135-5.524.2-9.229-5.393,2.271-9.882,4.16-10.986,4.611m38.353-23.92c-3.316-1.368-.712-5.33,2.277-4.226a20.339,20.339,0,0,1,6.434,3.965c2.538,2.729-1.236,6.632-3.382,4.1a22.515,22.515,0,0,0-5.33-3.837m5.656-5.722c-3.316-1.3-.976-5.264,2.077-4.291a20.971,20.971,0,0,1,6.569,3.771c2.6,2.6-1.038,6.7-3.253,4.229a23.954,23.954,0,0,0-5.393-3.708" transform="translate(79.12 93.873)" fill="#fff100"/>
    <path id="パス_203" data-name="パス 203" d="M70.783,58.754a24.008,24.008,0,0,0-9.621-4.812c-3.9-.91-2.274-7.476,2.663-6.111,3.448.976,8.323,2.732,11.444,4.941a3.846,3.846,0,0,1,.844,5.4,3.442,3.442,0,0,1-5.33.587M66.749,85.6c-5.521,1.757-7.6-5.656-2.205-7.021,13.066-3.316,26.2-16.771,32.76-29.51,2.08-4.034,8.777-1.3,5.916,3.833C95.161,67.528,81.7,80.857,66.749,85.6" transform="translate(126.06 100.717)" fill="#fff100"/>
    <path id="パス_204" data-name="パス 204" d="M86.406,92.322c.129,5.267-7.278,5.462-7.021.26.452-10.528.649-36.016.392-45.374-.135-4.42,6.886-4.357,6.757.066-.066,3.184-.129,8.84-.195,15.211a6.976,6.976,0,0,1,1.107.063c3.639.587,12.087,2.666,15.6,5.656,3.379,2.864-.326,8.52-4.034,5.785-2.8-2.077-9.226-4.615-12.674-5.261-.069,8.966-.069,18.33.066,23.594" transform="translate(169.636 93.868)" fill="#fff100"/>
    <path id="パス_205" data-name="パス 205" d="M99.03,96.659a4.5,4.5,0,0,1-4.486-4.291,4.7,4.7,0,0,1,4.486-4.486,4.2,4.2,0,0,1,4.486,4.486,4.325,4.325,0,0,1-4.486,4.291m-2.8-16.51V78.784c0-6.305-.649-21.451-1.038-31.662v-.194a3.523,3.523,0,0,1,3.771-3.573,3.676,3.676,0,0,1,3.9,3.768c0,7.676-1.045,25.551-1.045,31.857,0,1.559,0,4.291-2.855,4.291a2.8,2.8,0,0,1-2.732-3.059Z" transform="translate(202.044 92.649)" fill="#fff100"/>
  </g>
</svg>
