<svg xmlns="http://www.w3.org/2000/svg" xmlns:xlink="http://www.w3.org/1999/xlink" width="311.711" height="55.363" viewBox="0 0 311.711 55.363">
  <defs>
    <clipPath id="clip-path">
      <rect id="長方形_112" data-name="長方形 112" width="311.711" height="55.363" fill="none"/>
    </clipPath>
  </defs>
  <g id="グループ_79" data-name="グループ 79" transform="translate(0 0)">
    <g id="グループ_78" data-name="グループ 78" transform="translate(0 0)" clip-path="url(#clip-path)">
      <path id="パス_141" data-name="パス 141" d="M39.25,4.878c-.116.626-.272,1.252-.43,1.858,1.389-.02,3.638-.041,4.573-.041,1.1,0,1.723.588,1.723,1.447,0,1.173-1.623,3.538-2.583,4.651a12,12,0,0,0,5.142,2.247.941.941,0,0,1,.86.921,1.165,1.165,0,0,1-1.211,1.133A11.832,11.832,0,0,1,41.263,14.1a12.046,12.046,0,0,1-5.9,3.147,1.024,1.024,0,0,1-1.056-.978.911.911,0,0,1,.8-.859,11.045,11.045,0,0,0,4.866-2.542A12.366,12.366,0,0,1,37.8,9.727a15.379,15.379,0,0,1-4.61,6.566,1.219,1.219,0,0,1-.761.274,1,1,0,0,1-1.017-.919.975.975,0,0,1,.471-.781C34.99,12.639,36.651,8.69,37.3,4.878H32.841a.84.84,0,0,1-.939-.841.912.912,0,0,1,.939-.939h4.689a21.091,21.091,0,0,0,.1-2.207.9.9,0,0,1,1.015-.88c.548,0,1.115.313,1.115.88a21.035,21.035,0,0,1-.2,2.207h7.722a.888.888,0,0,1,.9.921.841.841,0,0,1-.9.859Zm3.675,3.734a.273.273,0,0,0-.313-.293H38.939A10.087,10.087,0,0,0,41.167,11.6a9.956,9.956,0,0,0,1.758-2.991" transform="translate(19.781 0.008)" fill="#fff"/>
      <path id="パス_142" data-name="パス 142" d="M46.474,15.444c-.585,1.309-2.658.743-1.837-.919a60.54,60.54,0,0,0,3.421-8.483A5.7,5.7,0,0,1,45.2,5.768c-1-.43-.8-2.208.665-1.68a5.25,5.25,0,0,0,2.7.117,8.523,8.523,0,0,0-.02-2.112C48.467.98,50.3.92,50.5,2a6.011,6.011,0,0,1,.018,1.563c.274-.137.51-.274.743-.411a.933.933,0,1,1,.763,1.682,12.577,12.577,0,0,1-1.974.781,76.939,76.939,0,0,1-3.577,9.832m4.749-.88c-.841-.939.372-2.482,1.389-1.446,1,1.017,2.189.918,4.477.722a1.014,1.014,0,1,1,.253,2.013c-2.832.567-5.257-.332-6.118-1.289m2.208-6.82c-1.015.37-1.622-1.232-.331-1.682a7.249,7.249,0,0,1,4.69.1c1.31.469.782,2.189-.45,1.778a6.871,6.871,0,0,0-3.91-.194m2.21-4.536c-1-.411-.215-1.6.684-1.271A6.054,6.054,0,0,1,58.26,3.11c.761.821-.391,2.013-1.036,1.252a6.674,6.674,0,0,0-1.582-1.154M57.4,1.488C56.4,1.1,57.106-.1,58.026.2A6.325,6.325,0,0,1,60,1.33c.782.784-.331,1.995-1,1.252a7.031,7.031,0,0,0-1.6-1.094" transform="translate(27.989 0.096)" fill="#fff"/>
      <path id="パス_143" data-name="パス 143" d="M59.974,9.709a8.779,8.779,0,0,1,3.869-1.68c4.105-.548,5.961,3.069,3.5,6a8.616,8.616,0,0,1-5.257,2.562c-1.877.254-1.975-1.7-.51-1.877a6.6,6.6,0,0,0,4.068-1.758c1.428-1.6,1.092-3.46-1.565-3.245a5.848,5.848,0,0,0-3.44,1.8c-.352.37-.45.939-1.113,1.113-.862.235-1.525-.606-1.389-1.6.156-1.115.43-3.109.722-5.023a7.389,7.389,0,0,1-1.837-.059c-1.446-.235-1.291-2.21.274-1.858a4.911,4.911,0,0,0,1.858.02c.194-1.252.39-2.326.526-2.932a.968.968,0,1,1,1.877.469c-.137.45-.274,1.1-.43,1.817a7.753,7.753,0,0,0,1.036-.626c1.348-.958,2.58,1,.763,1.838a22.963,22.963,0,0,1-2.21.919c-.311,1.719-.606,3.439-.742,4.123" transform="translate(35.279 0.259)" fill="#fff"/>
      <path id="パス_144" data-name="パス 144" d="M67.007,17.063a1.175,1.175,0,0,1-1.1-1.074.841.841,0,0,1,.491-.745,12.237,12.237,0,0,0,2.736-2.013c.02-.878.039-1.641.039-2.384v-.8c0-.468-.2-.526-.9-.526h-.859c-.411,0-1.115-.021-1.115-.821a.886.886,0,0,1,.86-.939c.7,0,1.349,0,1.995.02,1.271.039,1.856.587,1.856,1.837,0,1.134-.037,2.484-.037,3.734,1.25,1.545,3.145,1.974,5.882,1.974,1.917,0,3.967-.215,5.492-.331h.1a.927.927,0,0,1,.957.937.99.99,0,0,1-1,.978c-1.213.117-2.991.235-4.749.235-5.181,0-6.314-1.076-7.585-2.384-1.525,1.565-2.541,2.306-3.069,2.306M69.489,4.338A6.184,6.184,0,0,0,67.477,2.58a.692.692,0,0,1-.411-.606A1.042,1.042,0,0,1,68.1,1.036c.508,0,3.127,1.485,3.127,2.617a1.109,1.109,0,0,1-1.036,1.1.88.88,0,0,1-.7-.411m6.02-2.286A10.887,10.887,0,0,0,75.764.781.931.931,0,0,1,76.781,0,1,1,0,0,1,77.9.9a3.713,3.713,0,0,1-.315,1.133c.764,0,1.468,0,2.016.02a1.531,1.531,0,0,1,1.64,1.291c.041.489.078,1.036.078,1.524,0,1.289-.137,2.288-2.011,2.347-.784.018-1.819.037-2.836.037-.665,0-1.309-.02-1.876-.037V8.522c.878-.02,2.032-.039,3.186-.039.7,0,1.426,0,2.052.02,1.406.02,1.954.724,1.975,1.543.02.313.02.626.02.939,0,.567-.02,1.134-.06,1.622a1.586,1.586,0,0,1-1.682,1.369c-1.033.039-2.265.078-3.4.078-2.288,0-3.889-.02-3.929-1.8-.018-.9-.018-1.877-.018-2.854,0-1.956.018-3.949.018-5.611a1.66,1.66,0,0,1,1.838-1.739Zm1.447,3.714c2.462,0,2.462,0,2.462-1.017,0-.958-.02-1.252-.626-1.252-.645,0-1.6-.018-2.443-.018-1.641,0-1.739.037-1.739.9V5.727c.626.039,1.506.039,2.345.039m-2.345,4.69v1.1c0,.859.156.9,2.422.9,2.6,0,2.837,0,2.875-.588.02-.174.02-.429.02-.663,0-.254,0-.528-.02-.722a.619.619,0,0,0-.665-.51H78.187c-1.154,0-2.541.021-3.576.059Z" transform="translate(41.506 0)" fill="#fff"/>
      <path id="パス_145" data-name="パス 145" d="M83.731,5.789c-.117,2.815-.7,7.622-3.812,10.712a1.184,1.184,0,0,1-.781.35.972.972,0,0,1-1-.9.827.827,0,0,1,.292-.626c2.953-2.816,3.285-7,3.422-9.578l.02-.156c-.645.02-1.289.039-1.936.039h-.02a.793.793,0,0,1-.82-.841.839.839,0,0,1,.839-.878c.684-.021,1.331-.021,1.995-.039.02-.489.02-.978.02-1.447,0-.489,0-.957-.02-1.389V1A.854.854,0,0,1,82.87.18a.923.923,0,0,1,1,.859v.51c0,.742-.02,1.524-.059,2.306H85.2c2.053.037,2.053,1.9,2.053,2.619a48.943,48.943,0,0,1-.393,6.568c-.372,2.247-1.563,3.224-3.186,3.224a5.361,5.361,0,0,1-1.406-.215.948.948,0,0,1-.684-.937.805.805,0,0,1,.763-.88,1.325,1.325,0,0,1,.352.059,2.089,2.089,0,0,0,.761.137c1.076,0,1.956-.606,1.956-7.153,0-1.232-.02-1.7-.763-1.7-.313,0-.6-.021-.9-.021Zm9.324,10.438c-.411.018-.8.037-1.191.037-1.545,0-3.286-.037-3.343-2.11-.041-1.446-.059-3.008-.059-4.573s.018-3.127.059-4.553a2.134,2.134,0,0,1,2.148-2.034c.432-.02.821-.039,1.213-.039s.784.02,1.195.039a2.231,2.231,0,0,1,2.189,2.071c.059,1.369.077,2.912.077,4.477s-.018,3.127-.077,4.553a2.235,2.235,0,0,1-2.21,2.132m.411-6.744c0-1.447-.021-2.873-.059-4.007-.02-.7-.352-.8-.9-.859-.215-.02-.43-.041-.644-.041s-.43.021-.647.041c-.526.059-.841.254-.859.859-.057,1.115-.078,2.482-.078,3.871,0,1.525.021,3.049.078,4.3.018.663.155.859,1.524.859,1.1,0,1.506-.117,1.525-.918.037-1.213.059-2.658.059-4.105" transform="translate(49.207 0.114)" fill="#fff"/>
      <path id="パス_146" data-name="パス 146" d="M96.845,6.081a6.535,6.535,0,0,1,.626-1.015c.311-.411.214-.391-.156-.274a26.057,26.057,0,0,0-2.464.978c-.624.233-1.172.429-1.758.585-1.721.469-2.249-1.778-.684-2.11.411-.1,1.545-.313,2.169-.469.958-.235,2.679-.626,4.672-1.193a26.361,26.361,0,0,1,5.316-1.154,1.153,1.153,0,0,1,1.328,1.506c-.116.332-.546.724-1.913.645a8.29,8.29,0,0,0-2.894.548,5.693,5.693,0,0,0-2.521,2.286c-1.719,2.873-.411,6.977,3.968,6.822,2.052-.078,2.189,2.228.116,2.208-5.9-.02-7.935-5.433-5.8-9.363m6.02,1.291c-1.038-.45-.254-1.662.7-1.31a6.355,6.355,0,0,1,2.05,1.232c.8.859-.407,2.11-1.092,1.309a7.43,7.43,0,0,0-1.662-1.23m1.974-1.7c-1.054-.411-.293-1.662.665-1.348A6.445,6.445,0,0,1,107.577,5.5c.82.82-.334,2.109-1.038,1.328a6.9,6.9,0,0,0-1.7-1.154" transform="translate(57.604 0.897)" fill="#fff"/>
      <path id="パス_147" data-name="パス 147" d="M30.981,15.885H21.7a.634.634,0,0,1-.631-.634V.835A.631.631,0,0,1,21.7.2h9.283a.633.633,0,0,1,.631.631V3.177a.633.633,0,0,1-.631.634H24.67V6.239h6.31a.636.636,0,0,1,.631.631V9.215a.63.63,0,0,1-.631.631H24.67V12.28h6.31a.634.634,0,0,1,.631.632v2.339a.635.635,0,0,1-.631.634" transform="translate(13.266 0.129)" fill="#fff"/>
      <path id="パス_148" data-name="パス 148" d="M9.912,15.885a.635.635,0,0,0,.632-.634V12.913a.635.635,0,0,0-.632-.632H3.6V.835A.634.634,0,0,0,2.973.2H.631A.63.63,0,0,0,0,.835V15.251a.633.633,0,0,0,.631.634H9.912Z" transform="translate(0 0.129)" fill="#fff"/>
      <path id="パス_149" data-name="パス 149" d="M10.66.2H8.317a.632.632,0,0,0-.631.631V15.251a.635.635,0,0,0,.631.634H10.66a.635.635,0,0,0,.631-.634V.835A.632.632,0,0,0,10.66.2" transform="translate(4.84 0.129)" fill="#fff"/>
      <path id="パス_150" data-name="パス 150" d="M24.346.2h-2.34a.633.633,0,0,0-.634.631V9.4L14.775.491a.829.829,0,0,0-.047-.068l-.007,0a.217.217,0,0,0-.037-.039L14.671.369a.164.164,0,0,1-.033-.028L14.62.326l-.034-.02c0-.008-.013-.01-.018-.015l-.034-.02-.023,0a.111.111,0,0,0-.036-.02L14.454.24c-.011,0-.023-.008-.036-.011l-.023,0a.137.137,0,0,0-.037-.011l-.028,0c-.013,0-.021,0-.034,0a.106.106,0,0,0-.033,0H11.912a.631.631,0,0,0-.631.631V15.251a.634.634,0,0,0,.631.634h2.342a.634.634,0,0,0,.631-.634V6.69l6.607,8.921a.639.639,0,0,0,.163.161l.007,0a.187.187,0,0,0,.039.021c0,.008.011.008.018.016a.1.1,0,0,1,.031.013.1.1,0,0,1,.029.013.06.06,0,0,1,.023.007.408.408,0,0,0,.041.015h.01a.694.694,0,0,0,.166.024h2.329a.635.635,0,0,0,.632-.634V.835A.633.633,0,0,0,24.346.2" transform="translate(7.104 0.129)" fill="#fff"/>
      <path id="パス_151" data-name="パス 151" d="M.957,16.132H15.508v4.019H4.625V26.57A6.779,6.779,0,0,1,9,25.024a8.114,8.114,0,0,1,2.891.58A6.312,6.312,0,0,1,13.9,27.072a6.838,6.838,0,0,1,1.641,2.684,9.935,9.935,0,0,1,.376,2.029q.11,1.22.111,2.994a18.061,18.061,0,0,1-.376,4.213,6.808,6.808,0,0,1-1.31,2.57,7.613,7.613,0,0,1-2.342,2,6.8,6.8,0,0,1-3.558.981,8.369,8.369,0,0,1-5.075-1.7,8.065,8.065,0,0,1-2.9-5.613H4.387A3.665,3.665,0,0,0,8.3,40.524a3.9,3.9,0,0,0,2.251-.582,2.92,2.92,0,0,0,1.123-1.472,6.985,6.985,0,0,0,.414-1.975q.039-1.046.037-2.032a8.313,8.313,0,0,0-.735-3.931,2.937,2.937,0,0,0-1.222-1.142,5.065,5.065,0,0,0-2.009-.349,3.883,3.883,0,0,0-1.956.5,4.506,4.506,0,0,0-1.581,1.822H.957Z" transform="translate(0.293 10.159)" fill="#fff100"/>
      <path id="パス_152" data-name="パス 152" d="M13.355,24.076a7.687,7.687,0,0,1,2.417-6,7.526,7.526,0,0,1,5.323-2.083,7.637,7.637,0,0,1,5.414,2.086,8.028,8.028,0,0,1,2.344,6.012V36.516A8,8,0,0,1,26.508,42.5a7.786,7.786,0,0,1-5.414,2.127,7.757,7.757,0,0,1-7.74-8.1Zm11.6.251q-.112-4.241-3.856-4.319-3.765.078-3.84,4.319V36.3q.076,4.278,3.84,4.317,3.743-.037,3.856-4.317Z" transform="translate(8.41 10.07)" fill="#fff100"/>
      <path id="パス_153" data-name="パス 153" d="M26.227,24.076a7.691,7.691,0,0,1,2.415-6,7.526,7.526,0,0,1,5.323-2.083,7.637,7.637,0,0,1,5.414,2.086,8.028,8.028,0,0,1,2.344,6.012V36.516A8,8,0,0,1,39.379,42.5a7.786,7.786,0,0,1-5.414,2.127,7.755,7.755,0,0,1-7.738-8.1Zm11.6.251q-.115-4.241-3.858-4.319-3.762.078-3.84,4.319V36.3q.078,4.278,3.84,4.317,3.743-.037,3.858-4.317Z" transform="translate(16.516 10.07)" fill="#fff100"/>
      <path id="パス_154" data-name="パス 154" d="M57.459,32.095H42.748V34.7c0,2.114,0,4.28.024,6.47V41.2a1.2,1.2,0,0,1-1.305,1.149A1.227,1.227,0,0,1,40.111,41.2c0-8.4.132-16.093.156-17.713.026-1.641,1.305-2.738,3.289-2.764,2.008-.052,4.25-.052,6.547-.052s4.615,0,6.7.052A3.116,3.116,0,0,1,59.99,23.7c.1,3.835.051,8.113.1,11.059l.052,3.678v.052c0,1.54-1.069,3.5-4.591,3.5-1.591,0-2.87-.1-2.87-1.486a1.164,1.164,0,0,1,1.1-1.278.773.773,0,0,1,.236.024,9.157,9.157,0,0,0,1.617.184c1.045,0,1.827-.339,1.827-1.486Zm-8.636-9.182c-1.512,0-2.922.024-4.068.052-1.488.026-1.877.391-1.905,1.669-.052,1.643-.052,3.391-.078,5.191l6.051.028Zm8.636,6.912c0-1.9-.026-3.756-.08-5.191s-.548-1.643-1.825-1.669-2.686-.052-4.12-.052v6.939Z" transform="translate(25.259 13.016)" fill="#fff100"/>
      <path id="パス_155" data-name="パス 155" d="M66.607,23.631c1.121-.08,2.4-.183,3.444-.236,2.009-.1,3.756,1.305,2.792,3.157-3.183,6.077-6.783,11.374-14.113,14.27-2.215.86-3.285-1.695-1.12-2.453C63.4,36.36,67.7,31.142,69.634,26.709c.209-.5,0-.992-.626-.966-1.1.026-3,.209-4.174.339-1.773,2.347-4.069,5.086-5.869,6.314-1.749,1.173-3.287-1.069-1.512-2.166,2.5-1.54,5.895-6.34,7.094-8.4.86-1.462,3.47-.21,2.242,1.538Z" transform="translate(35.534 13.343)" fill="#fff100"/>
      <path id="パス_156" data-name="パス 156" d="M71.687,28.5A1.259,1.259,0,0,1,70.3,27.249a1.333,1.333,0,0,1,1.385-1.33h16.38a1.292,1.292,0,1,1,0,2.583Z" transform="translate(44.27 16.322)" fill="#fff100"/>
      <path id="パス_157" data-name="パス 157" d="M85.566,37.769a1.289,1.289,0,0,1,.342-1.853,12.94,12.94,0,0,0,3.47-3.7,1.177,1.177,0,1,1,2.009,1.226,16.268,16.268,0,0,1-3.968,4.643,1.33,1.33,0,0,1-1.853-.313m2.3-8.269a1.212,1.212,0,1,1-.052-2.4c2.062-.078,4.2-.156,6.31-.181,0-1.384,0-2.559-.024-3.289a1.257,1.257,0,1,1,2.506-.1c-.026.81-.054,2.009-.081,3.365,2.008-.026,3.993,0,5.924.028a1.246,1.246,0,1,1-.1,2.449c-1.931-.1-3.887-.1-5.846-.1-.024,2.112,0,4.356.081,6.155.026.834.026,1.253.026,1.983,0,2.06-1.253,3.626-4.984,2.973-2.324-.417-1.305-3.1.288-2.583,1.069.341,2.213.5,2.242-.939.026-1.851.026-4.826,0-7.564-2.086.052-4.2.13-6.287.209m14.764,7.591a13.594,13.594,0,0,0-3.807-3.548c-1.279-.758-.028-2.74,1.462-1.853a14.532,14.532,0,0,1,4.485,3.835,1.406,1.406,0,0,1-.417,1.879,1.142,1.142,0,0,1-1.723-.313m-.546-11.374a2.7,2.7,0,0,1,0-5.4,2.7,2.7,0,1,1,0,5.4m0-3.991a1.3,1.3,0,1,0,1.305,1.3,1.328,1.328,0,0,0-1.305-1.3" transform="translate(53.726 12.795)" fill="#fff100"/>
      <path id="パス_158" data-name="パス 158" d="M106.262,27.819a9.624,9.624,0,0,0-3.861-1.931c-1.566-.367-.914-3,1.069-2.453a16.552,16.552,0,0,1,4.591,1.983,1.542,1.542,0,0,1,.341,2.164,1.383,1.383,0,0,1-2.14.236m-1.618,10.772a1.493,1.493,0,1,1-.887-2.818c5.243-1.33,10.513-6.729,13.145-11.842a1.422,1.422,0,1,1,2.374,1.538c-3.233,5.869-8.633,11.217-14.633,13.121" transform="translate(63.934 14.581)" fill="#fff100"/>
      <path id="パス_159" data-name="パス 159" d="M118.369,38.893a16.146,16.146,0,0,0,10.358-10.409c.207-.7.13-1.356-.836-1.382-2.557-.078-6.679.078-10.435.21a1.293,1.293,0,1,1-.052-2.583c3.445-.156,8.321-.184,11.635-.13,2.114.024,3.6,1.617,2.842,3.755-1.825,5.217-5.006,10.279-12.311,13.07-2.218.833-3.184-1.905-1.2-2.531m15.5-13.695a2.753,2.753,0,0,1,0-5.505,2.753,2.753,0,1,1,0,5.505m0-4.1a1.359,1.359,0,0,0-1.33,1.356,1.33,1.33,0,0,0,2.66,0,1.358,1.358,0,0,0-1.33-1.356" transform="translate(73.103 12.401)" fill="#fff100"/>
      <path id="パス_160" data-name="パス 160" d="M135.623,37.656c-1.747.86-4.069.339-3.99-2.425.077-2.974.13-9.314.051-11.061-.078-2.009,2.686-1.8,2.74-.054.052,1.853-.026,7.7-.1,9.679-.024.73.654.991,1.278.652a26.461,26.461,0,0,0,9.418-8.608,1.42,1.42,0,1,1,2.4,1.514,35.4,35.4,0,0,1-11.791,10.3" transform="translate(82.891 14.316)" fill="#fff100"/>
      <path id="パス_161" data-name="パス 161" d="M146.473,34.357a1.229,1.229,0,1,1-.965-2.242c.522-.158,2.79-1.1,5.451-2.166.052-2.14.078-4.3.078-5.87,0-1.747,2.661-1.459,2.661-.1,0,1.382-.078,3.131-.13,4.9,2.686-1.1,5.321-2.112,6.573-2.557,1.931-.678,3.913.678,3.077,2.425a18.405,18.405,0,0,1-3.99,5.479c-1.721,1.566-3.416-.417-1.983-1.749a15.358,15.358,0,0,0,2.714-2.973c.469-.7.132-.678-.365-.522-.914.287-3.5,1.33-6.131,2.425-.078,1.592-.13,3.028-.181,3.991-.052,1.279.6,1.931,2.164,2.114a15.553,15.553,0,0,0,5.608-.549c2.322-.73,3.47,2.14.523,2.819a20.267,20.267,0,0,1-7.1.261c-2.295-.288-3.73-1.7-3.68-3.835.028-.914.055-2.218.08-3.7-2.164.913-3.965,1.669-4.408,1.851m15.389-9.6c-1.33-.549-.285-2.138.914-1.7a8.156,8.156,0,0,1,2.581,1.592c1.019,1.1-.5,2.661-1.356,1.644a9.061,9.061,0,0,0-2.14-1.54m2.27-2.3c-1.33-.522-.391-2.112.834-1.723a8.453,8.453,0,0,1,2.635,1.514c1.045,1.045-.417,2.687-1.305,1.7a9.662,9.662,0,0,0-2.164-1.488" transform="translate(91.074 13.022)" fill="#fff100"/>
      <path id="パス_162" data-name="パス 162" d="M166.326,27.819a9.613,9.613,0,0,0-3.861-1.931c-1.565-.367-.913-3,1.069-2.453a16.562,16.562,0,0,1,4.593,1.983,1.542,1.542,0,0,1,.339,2.164,1.383,1.383,0,0,1-2.14.236m-1.618,10.772a1.492,1.492,0,1,1-.885-2.818c5.243-1.33,10.512-6.729,13.145-11.842a1.422,1.422,0,1,1,2.375,1.538c-3.233,5.869-8.634,11.217-14.635,13.121" transform="translate(101.758 14.581)" fill="#fff100"/>
      <path id="パス_163" data-name="パス 163" d="M180.164,40.1a1.419,1.419,0,1,1-2.818.1c.183-4.224.261-14.452.156-18.207a1.356,1.356,0,0,1,2.712.026c-.024,1.278-.051,3.548-.078,6.1a2.71,2.71,0,0,1,.445.026c1.46.235,4.85,1.069,6.261,2.27,1.356,1.149-.13,3.418-1.62,2.321a16.194,16.194,0,0,0-5.086-2.112c-.026,3.6-.026,7.357.028,9.469" transform="translate(111.676 13.021)" fill="#fff100"/>
      <path id="パス_164" data-name="パス 164" d="M190.857,41.627a1.805,1.805,0,0,1-1.8-1.721,1.886,1.886,0,0,1,1.8-1.8,1.685,1.685,0,0,1,1.8,1.8,1.736,1.736,0,0,1-1.8,1.721M189.736,35v-.548c0-2.531-.261-8.608-.417-12.705v-.078a1.415,1.415,0,0,1,1.514-1.434,1.476,1.476,0,0,1,1.564,1.512c0,3.08-.419,10.253-.419,12.783,0,.626,0,1.723-1.146,1.723a1.123,1.123,0,0,1-1.1-1.227Z" transform="translate(119.053 12.744)" fill="#fff100"/>
    </g>
  </g>
</svg>
