<svg xmlns="http://www.w3.org/2000/svg" width="114" height="114" viewBox="0 0 114 114">
  <g id="グループ_81" data-name="グループ 81" transform="translate(-325 -707)">
    <path id="パス_178" data-name="パス 178" d="M57,0A57,57,0,1,1,0,57,57,57,0,0,1,57,0Z" transform="translate(325 707)" fill="#fff"/>
    <g id="グループ_80" data-name="グループ 80" transform="translate(10 -8)">
      <path id="パス_211" data-name="パス 211" d="M-2.511.279C-.279.279,4.464-5.735,5.7-8.029a16.249,16.249,0,0,0,2.108-7.409A7.575,7.575,0,0,0,0-23.405a7.376,7.376,0,0,0-7.781,7.471A6.868,6.868,0,0,0-.651-8.928,7.419,7.419,0,0,0,2.6-9.672c.093-.031.124-.062.186-.062a.082.082,0,0,1,.093.093c0,.744-3.069,4.712-6.355,6.851a1.677,1.677,0,0,0-.837,1.364A1.8,1.8,0,0,0-2.511.279ZM4.464-16.213A4.368,4.368,0,0,1-.186-11.9c-2.077,0-4.433-1.209-4.433-4.123A4.335,4.335,0,0,1-.031-20.3C2.449-20.3,4.464-18.693,4.464-16.213Z" transform="translate(350 759)" fill="#171c61"/>
      <path id="パス_210" data-name="パス 210" d="M-7.1-1.271v-.062c-.062-1.922-.062-3.875-.062-5.8,0-4.433.093-8.587.093-11.067,0-.682,0-1.24-.031-1.643a3.3,3.3,0,0,0-3.6-3.317c-.651,0-.9,0-1.519.031a1.8,1.8,0,0,0-1.612,1.891,1.543,1.543,0,0,0,1.581,1.643h.434c1.054,0,1.209.341,1.209,4.681,0,4.092-.124,10.7-.124,13.578A1.725,1.725,0,0,0-8.9.372,1.668,1.668,0,0,0-7.1-1.271Zm24.18-5.58A6.754,6.754,0,0,0,9.92-13.764a8.024,8.024,0,0,0-3.41.775c-.093.031-.124.062-.186.062a.082.082,0,0,1-.093-.093c0-.651,2.976-4.743,6.634-7.13a1.342,1.342,0,0,0,.682-1.178,1.953,1.953,0,0,0-1.891-1.829c-2.046,0-6.758,5.983-8.029,8.339A16.394,16.394,0,0,0,1.488-7.409,7.631,7.631,0,0,0,9.331.558C13.826.558,17.081-2.6,17.081-6.851Zm-3.224.031A4.255,4.255,0,0,1,9.238-2.573c-2.294,0-4.464-1.4-4.464-4.03a4.389,4.389,0,0,1,4.65-4.34A4.108,4.108,0,0,1,13.857-6.82Z" transform="translate(388 784)" fill="#171c61"/>
      <path id="線_1" data-name="線 1" d="M.354,38.8-.354,38.1,38.1-.354,38.8.354Z" transform="translate(344.531 743.378)" fill="#171c61"/>
    </g>
    <path id="パス_212" data-name="パス 212" d="M-24.378.084A.832.832,0,0,0-23.5-.742a.747.747,0,0,0-.84-.728c-1.148,0-2.73.112-3.892.126,1.162-1.26,2.534-2.45,3.6-3.794A4.576,4.576,0,0,0-23.468-7.91a2.9,2.9,0,0,0-3.164-2.674,3.219,3.219,0,0,0-3.262,2.156.794.794,0,0,0,.826.742.846.846,0,0,0,.728-.42,2.04,2.04,0,0,1,1.722-1.078,1.4,1.4,0,0,1,1.456,1.428,2.888,2.888,0,0,1-.784,1.792c-1.232,1.512-2.856,3.178-3.822,4.27a1.426,1.426,0,0,0-.406.952.768.768,0,0,0,.784.826Zm5.726-6.552a.731.731,0,0,0-.728.728A.756.756,0,0,0-18.638-5c.056,0,.126-.014.21-.014h.126A1.655,1.655,0,0,1-16.454-3.15a1.956,1.956,0,0,1-2.016,1.9,2.34,2.34,0,0,1-2.044-.966.752.752,0,0,0-.546-.266.869.869,0,0,0-.826.84c0,.658,1.26,1.89,3.346,1.89a3.373,3.373,0,0,0,3.626-3.374,2.938,2.938,0,0,0-1.666-2.7,2.24,2.24,0,0,0,1.134-2.058,2.669,2.669,0,0,0-2.912-2.7c-1.218,0-2.828.812-2.828,1.6A.821.821,0,0,0-20.4-8.2a.7.7,0,0,0,.49-.21,2,2,0,0,1,1.484-.728,1.336,1.336,0,0,1,1.456,1.26,1.242,1.242,0,0,1-1.26,1.414Zm6.832,2.044a.994.994,0,0,0,.98-.994.993.993,0,0,0-.98-.938.95.95,0,0,0-.98.952A.905.905,0,0,0-11.82-4.424Zm0,4.214a.994.994,0,0,0,.98-.994.993.993,0,0,0-.98-.938.95.95,0,0,0-.98.952A.905.905,0,0,0-11.82-.21Zm9.828-3.206A3.077,3.077,0,0,0-5.38-6.636a5.139,5.139,0,0,0-1.05.1,2.817,2.817,0,0,1-.322.07c-.084,0-.112-.042-.112-.154v-.1c.042-.28.252-1.4.322-1.89.042-.252.154-.378.42-.378.42,0,2.31.014,2.7.014a.69.69,0,0,0,.714-.714.723.723,0,0,0-.742-.756c-2.3,0-2.506,0-2.912-.014h-.1a1.161,1.161,0,0,0-1.358,1.12c-.21,1.232-.49,3.4-.49,3.514,0,.672.392.952,1.008.952.07,0,.14-.014.21-.014a1.816,1.816,0,0,0,.546-.2,3.6,3.6,0,0,1,1.106-.2A1.808,1.808,0,0,1-3.518-3.4,2.106,2.106,0,0,1-5.744-1.274,2.917,2.917,0,0,1-7.662-2a.786.786,0,0,0-.49-.21.776.776,0,0,0-.728.8c0,.924,1.778,1.6,3.066,1.6A3.571,3.571,0,0,0-1.992-3.416ZM1.886.126c1.008,0,3.15-2.716,3.71-3.752a7.338,7.338,0,0,0,.952-3.346,3.421,3.421,0,0,0-3.528-3.6A3.331,3.331,0,0,0-.494-7.2a3.1,3.1,0,0,0,3.22,3.164A3.351,3.351,0,0,0,4.2-4.368c.042-.014.056-.028.084-.028a.037.037,0,0,1,.042.042A8.527,8.527,0,0,1,1.452-1.26a.758.758,0,0,0-.378.616A.815.815,0,0,0,1.886.126Zm3.15-7.448a1.972,1.972,0,0,1-2.1,1.946,1.852,1.852,0,0,1-2-1.862A1.958,1.958,0,0,1,3.006-9.17,1.884,1.884,0,0,1,5.036-7.322Zm8.148.926c.012.468.036.936.06,1.392a5.114,5.114,0,0,1-1.872.108.6.6,0,1,0-.252,1.152A6.525,6.525,0,0,0,13.3-3.876c.024.372.048.708.072,1s.048.528.06.78a4.055,4.055,0,0,0-2.292.2,1.284,1.284,0,0,0-.1,2.46,2.448,2.448,0,0,0,3.36-1.092,5.525,5.525,0,0,1,.876.648c.756.7,1.536-.4.732-1.056a5.581,5.581,0,0,0-1.488-.852c-.024-.432-.06-.864-.1-1.188-.036-.348-.06-.72-.084-1.128.348-.084.732-.192,1.152-.312,1.068-.3.612-1.4-.276-1.116-.324.108-.624.192-.912.276C14.3-5.7,14.3-6.144,14.3-6.588c.276-.048.576-.108.9-.156,1.044-.168.72-1.284-.072-1.1-.288.06-.564.132-.816.18.012-.48.036-.96.072-1.392a.612.612,0,0,0-1.224.012c-.012.384-.012.948,0,1.584a6.9,6.9,0,0,1-1.86.084c-1.092-.132-1.044,1.116-.12,1.14a10.8,10.8,0,0,0,1.884-.144Zm.144,5.376a1.327,1.327,0,0,1-1.848.672.363.363,0,0,1,.036-.684A2.613,2.613,0,0,1,13.328-1.02ZM29.7-5.04c.432.48,1.14-.312.636-.816a3.981,3.981,0,0,0-1.272-.72c-.588-.192-1.056.576-.408.828A4.213,4.213,0,0,1,29.7-5.04ZM28.46-3.948c.42.492,1.164-.276.672-.8a3.919,3.919,0,0,0-1.26-.756c-.588-.216-1.068.528-.432.8A4.594,4.594,0,0,1,28.46-3.948ZM27.308.252c1.272.012,1.188-1.4-.072-1.356-2.688.1-3.492-2.424-2.436-4.188a3.492,3.492,0,0,1,1.548-1.4,5.087,5.087,0,0,1,1.776-.336c.84.048,1.1-.192,1.176-.4a.708.708,0,0,0-.816-.924,16.056,16.056,0,0,0-3.264.708c-1.224.348-2.28.588-2.868.732-.384.1-1.08.228-1.332.288-.96.2-.636,1.584.42,1.3a11.384,11.384,0,0,0,1.08-.36c.816-.312.612-.312,1.512-.6.228-.072.288-.084.1.168a4.147,4.147,0,0,0-.384.624A3.812,3.812,0,0,0,27.308.252Z" transform="translate(383 801)" fill="#171c61"/>
  </g>
</svg>
