<svg xmlns="http://www.w3.org/2000/svg" width="410.137" height="63.888" viewBox="0 0 410.137 63.888">
  <path id="パス_207" data-name="パス 207" d="M-169.848-9.456c-.24.168-.456.36-.7.552-3.888,3.1-4.032,6.984-.576,8.736,2.376,1.2,6.384.72,8.28.192,2.136-.6,1.416-3.36-.6-2.592-1.44.528-4.872,1.152-6.552.312-1.872-.912-1.8-2.712.576-4.728a36.074,36.074,0,0,1,6.816-4.248c1.848-.936.6-3.24-1.032-2.328a45.783,45.783,0,0,0-4.224,2.64,24.361,24.361,0,0,0-2.808-5.592c-.96-1.368-3.312-.072-2.064,1.464A19.517,19.517,0,0,1-169.848-9.456Zm27.672-6.288c1.776.336,2.568-2.088.6-2.424a16.135,16.135,0,0,1-3.72-1.056c-1.68-.768-2.688,1.1-1.32,1.872A15.288,15.288,0,0,0-142.176-15.744ZM-144.36,1.608c4.8-3.528,6.84-9.216,4.992-13.224-1.272-2.76-4.8-2.856-7.248-1.776-.672.288-1.44.552-2.064.768a1.308,1.308,0,1,0,.744,2.5,14.713,14.713,0,0,0,2.328-1.1c1.656-.984,3.456-.888,4.128.984.984,2.784-.336,7.032-4.632,10.056C-147.528.816-145.944,2.784-144.36,1.608Zm25.512-15.072a6.225,6.225,0,0,1,2.976.96,5.18,5.18,0,0,1,1.32,7.344,7.436,7.436,0,0,1-4.464,2.688c-2.064.48-1.32,2.9.792,2.352a10.033,10.033,0,0,0,5.856-3.96c2.088-3.432,1.488-7.848-2.232-10.08a10.027,10.027,0,0,0-10.368.552c-3.216,2.232-4.824,6.7-3.312,9.672,1.056,2.064,3.072,3,4.92,1.3a18.9,18.9,0,0,0,4.848-9.72A1.2,1.2,0,0,0-118.848-13.464Zm-1.9.12a1.7,1.7,0,0,0-.216.744c-.24,2.592-1.92,6.408-3.72,7.992-.6.528-1.224.168-1.584-.528-1.008-1.848.192-5.04,2.424-6.768A7.953,7.953,0,0,1-120.744-13.344Zm26.568-2.4c1.776.336,2.568-2.088.6-2.424a16.135,16.135,0,0,1-3.72-1.056c-1.68-.768-2.688,1.1-1.32,1.872A15.288,15.288,0,0,0-94.176-15.744ZM-96.36,1.608c4.8-3.528,6.84-9.216,4.992-13.224-1.272-2.76-4.8-2.856-7.248-1.776-.672.288-1.44.552-2.064.768a1.308,1.308,0,1,0,.744,2.5,14.713,14.713,0,0,0,2.328-1.1c1.656-.984,3.456-.888,4.128.984.984,2.784-.336,7.032-4.632,10.056C-99.528.816-97.944,2.784-96.36,1.608Zm25.512-15.072a6.225,6.225,0,0,1,2.976.96,5.18,5.18,0,0,1,1.32,7.344,7.436,7.436,0,0,1-4.464,2.688c-2.064.48-1.32,2.9.792,2.352a10.033,10.033,0,0,0,5.856-3.96c2.088-3.432,1.488-7.848-2.232-10.08a10.027,10.027,0,0,0-10.368.552c-3.216,2.232-4.824,6.7-3.312,9.672,1.056,2.064,3.072,3,4.92,1.3a18.9,18.9,0,0,0,4.848-9.72A1.2,1.2,0,0,0-70.848-13.464Zm-1.9.12a1.7,1.7,0,0,0-.216.744c-.24,2.592-1.92,6.408-3.72,7.992-.6.528-1.224.168-1.584-.528-1.008-1.848.192-5.04,2.424-6.768A7.953,7.953,0,0,1-72.744-13.344ZM-42.96,0c-.024-3.072-.1-7.272-.1-11.016,0-2.352.024-4.512.1-6.1a1.631,1.631,0,0,1,1.7-1.776c2.5,0,3.168.048,3.312.072h.1a.6.6,0,0,0,.624-.624.6.6,0,0,0-.648-.624c-.864-.024-1.608-.048-2.448-.048-.384,0-.768,0-1.176.024a2.632,2.632,0,0,0-2.712,2.856c-.048,2.856-.072,6.552-.072,10.128,0,2.592.024,5.088.048,7.152a.707.707,0,0,0,.672.7c.312,0,.6-.216.6-.72Zm28.632-7.368a9.207,9.207,0,0,0-3.6-5.568c-1.44-1.08-2.736.7-1.584,1.488a7.573,7.573,0,0,1,2.664,4.656A1.292,1.292,0,1,0-14.328-7.368Zm-10.488,3.96a10.98,10.98,0,0,0,.936-1.848,1.179,1.179,0,0,0-2.184-.864A9.438,9.438,0,0,1-26.856-4.7c-.528.72-.84.648-1.464.048-1.344-1.3-1.8-3.672-1.9-6.192-.048-1.1.048-1.152,0-2.088a1.224,1.224,0,1,0-2.448.024,23.907,23.907,0,0,0,.12,2.664c.192,3.024.984,5.808,2.712,7.68C-28.488-1.128-26.352-.912-24.816-3.408ZM7.608-7.92A1.158,1.158,0,0,0,8.832-9.1a1.164,1.164,0,0,0-1.224-1.2H-7.464A1.224,1.224,0,0,0-8.736-9.072,1.156,1.156,0,0,0-7.464-7.92Zm15.24,2.5a8.64,8.64,0,0,0,2.136-.384,1.147,1.147,0,1,0-.768-2.16,8.179,8.179,0,0,1-1.152.216c.1-1.008.216-2.04.36-3.12a7.457,7.457,0,0,0,1.464-.24,1.127,1.127,0,1,0-.552-2.184,4.422,4.422,0,0,1-.6.12c.024-.288.072-.576.1-.864A30.228,30.228,0,0,0,24.24-17.5c0-1.416-2.28-1.8-2.4-.12-.072,1.128-.12,2.04-.264,3.552-.024.288-.072.6-.1.888a6.783,6.783,0,0,1-1.728-.456c-1.272-.528-2.328,1.68-.5,2.3a10.934,10.934,0,0,0,1.992.408C21.12-9.84,21-8.784,20.9-7.728a8.41,8.41,0,0,1-1.848-.36c-1.368-.456-2.112,1.824-.168,2.352a13.079,13.079,0,0,0,1.848.288c-.048.744-.048,1.464-.024,2.136C20.9,3.1,28.56,2.3,30.288-2.256c.912-2.424.24-4.7-1.632-6.864-1.056-1.224-3.12.048-1.872,1.416C28.128-6.24,28.8-4.656,27.96-2.856,26.712-.192,22.968-.048,22.824-3.48A17.781,17.781,0,0,1,22.848-5.424Zm26.3-8.04a6.225,6.225,0,0,1,2.976.96,5.18,5.18,0,0,1,1.32,7.344,7.436,7.436,0,0,1-4.464,2.688c-2.064.48-1.32,2.9.792,2.352a10.033,10.033,0,0,0,5.856-3.96C57.72-7.512,57.12-11.928,53.4-14.16a10.027,10.027,0,0,0-10.368.552c-3.216,2.232-4.824,6.7-3.312,9.672,1.056,2.064,3.072,3,4.92,1.3a18.9,18.9,0,0,0,4.848-9.72A1.2,1.2,0,0,0,49.152-13.464Zm-1.9.12a1.7,1.7,0,0,0-.216.744c-.24,2.592-1.92,6.408-3.72,7.992-.6.528-1.224.168-1.584-.528-1.008-1.848.192-5.04,2.424-6.768A7.953,7.953,0,0,1,47.256-13.344Zm19.752-4.872c.024,3.24.1,7.752.1,11.664,0,2.088-.024,4.008-.072,5.448a1.631,1.631,0,0,1-1.7,1.776c-2.5,0-3.168-.048-3.312-.072h-.1a.644.644,0,0,0-.648.648.611.611,0,0,0,.648.624c.72.024,1.368.024,2.04.024.5,0,1.008,0,1.584-.024A2.651,2.651,0,0,0,68.28-.984c.048-2.856.072-6.552.072-10.128,0-2.592-.024-5.088-.048-7.152a.711.711,0,0,0-.7-.7c-.312,0-.6.216-.6.72Zm29.352,1.9a4.538,4.538,0,0,0,.192-1.392c-.048-1.176-2.3-1.32-2.4.12a10.012,10.012,0,0,1-.264,2.016c-.12.024-.264.024-.36.048a3.69,3.69,0,0,1-2.256-.048c-1.68-1.128-2.856,1.128-1.128,1.992a4.847,4.847,0,0,0,2.976.264,20.008,20.008,0,0,1-1.128,2.136,11.979,11.979,0,0,1-1.944,2.256c-1.44,1.3.312,2.664,1.632,1.488a5.257,5.257,0,0,0,.552-.624l.1-.1c1.56-1.8,3.408-2.04,4.056-.024-.456.264-.84.528-1.176.744-4.344,2.856-4.92,6.1-1.68,7.92,1.872,1.056,5.136.7,6.552.336,2.208-.576,1.536-3.168-.576-2.52-1.128.36-3.48.84-4.752.192-1.344-.672-1.7-2.112,1.272-4.032.192-.12.408-.24.624-.36,0,.5-.024,1.056-.048,1.56-.072.936.48,1.392,1.08,1.368a1.419,1.419,0,0,0,1.272-1.488A19.177,19.177,0,0,0,98.9-7.1c.96-.456,2.04-.936,3.048-1.32,1.272-.48,1.824-.6,2.592-.984a1.279,1.279,0,1,0-1.344-2.16,18.431,18.431,0,0,1-1.872.888c-.936.408-1.944.912-2.928,1.416a3.5,3.5,0,0,0-4.032-2.088,24.485,24.485,0,0,0,1.152-2.424,13.5,13.5,0,0,0,2.64-.792c1.776-.888.48-2.88-.84-2.088a8.442,8.442,0,0,1-1.008.432Zm25.8-.48c0-.5-1.008-2.232-1.968-2.232-.576,0-1.224.408-1.224.912a.765.765,0,0,0,.144.408,7.914,7.914,0,0,1,1.008,1.56.841.841,0,0,0,.792.528A1.3,1.3,0,0,0,122.16-16.8ZM129.6-1.008v-.1c-.024-.768-.072-2.76-.072-3.1-.024-1.632-.024-5.208-.024-7.248a.987.987,0,0,0-1.032-1.008.969.969,0,0,0-1.032.984v.048c.048,1.248.072,3.72.072,5.856s-.024,3.96-.024,3.96c0,.96-.36,1.2-.888,1.2a7.035,7.035,0,0,1-1.08-.168.528.528,0,0,0-.192-.024.884.884,0,0,0-.816.984c0,.984.72,1.2,2.16,1.2C128.832,1.584,129.6.36,129.6-1.008Zm-5.376-1.9a.887.887,0,0,0,.984.84.879.879,0,0,0,.96-.84v-7.512a.918.918,0,0,0-.984-.936.912.912,0,0,0-.96.936Zm5.184-10.56a.975.975,0,0,0,1.032-1.008.95.95,0,0,0-1.008-.984h-.024l-3.432.048c1.392-2.472,1.416-2.544,1.416-2.736,0-.6-.72-1.008-1.368-1.008a.871.871,0,0,0-.888.528,28.425,28.425,0,0,1-1.344,3.1c-.024.048-.024.1-.048.144l-6.624-.072a.961.961,0,0,0-1.008.816,1.059,1.059,0,0,0-.7-.24h-.984v-3.648a1.057,1.057,0,0,0-1.08-1.128,1.082,1.082,0,0,0-1.128,1.128v3.648h-1.632a.989.989,0,0,0-1.032,1.008.994.994,0,0,0,1.032,1.032h1.632v3.7c-.7.264-1.44.5-2.3.792a1.027,1.027,0,0,0-.744.984,1.08,1.08,0,0,0,1.1,1.08,5.783,5.783,0,0,0,1.944-.648v5.112c-.024.816-.312,1.032-.768,1.032a3.532,3.532,0,0,1-.792-.12.664.664,0,0,0-.216-.024A.977.977,0,0,0,109.536.12c0,.744.384,1.3,2.112,1.3a2.624,2.624,0,0,0,2.856-2.88v-.12c-.024-.84-.072-3.024-.072-3.408V-7.9c1.56-.792,2.232-1.1,2.232-1.752a.976.976,0,0,0-.912-.984c-.168,0-.216.024-1.32.576V-12.84h.984a.986.986,0,0,0,1.032-.864.993.993,0,0,0,.672.24ZM118.9.912c-.024-.912-.024-2.64-.024-4.464h2.376c0,.744-.024,1.44-.024,1.968-.024.96-.144,1.2-.432,1.2a2.394,2.394,0,0,1-.48-.1.3.3,0,0,0-.144-.024c-.432,0-.672.5-.672.984,0,.768.48.984,1.44.984,1.776,0,2.088-1.344,2.088-2.52v-.12c0-.672,0-1.944-.024-2.76-.024-.768-.024-5.352-.048-6.24-.048-2.016-1.2-2.04-2.952-2.04-1.8,0-2.952.072-2.952,2.088V.912a.875.875,0,0,0,.936.864.836.836,0,0,0,.912-.84Zm0-9.552V-9.672c0-.5.048-.744,1.176-.744.7,0,1.128.024,1.128.744,0,.288.024.648.024,1.032Zm2.352,3.408h-2.376V-6.96h2.376Zm24.408-9.48c1.656.576,2.808-1.584,1.056-2.184a14.585,14.585,0,0,1-3-1.44c-1.416-.888-2.856.672-1.632,1.656A15.31,15.31,0,0,0,145.656-14.712Zm-3.72,10.32c1.2-1.2,4.824-4.536,5.952-5.736,1.248-1.3-.216-3.1-2.208-2.832a8.579,8.579,0,0,0-1.872.624,25.289,25.289,0,0,1-4.224,1.128c-1.656.24-1.32,2.736.72,2.28a23.945,23.945,0,0,0,4.944-1.9c.216-.1.384-.144.12.168-1.2,1.392-2.76,3-3.864,4.08-.768.744-1.44,1.488-2.28,2.232a38.614,38.614,0,0,0-2.88,3.024c-1.056,1.2.024,1.992.816,1.944.48-.024,1.176-.144,2.016-1.488,1.56-2.5,3.336-2.3,3.864-1.008A3.661,3.661,0,0,0,146.184.6a12.738,12.738,0,0,0,5.448-.576c1.92-.72,1.056-3.192-.768-2.376a11.992,11.992,0,0,1-3.792.768,2.2,2.2,0,0,1-2.136-1.584A2.27,2.27,0,0,0,141.936-4.392Zm33.5-5.3c1.512.5,2.16-1.608.552-2.184a8.908,8.908,0,0,0-5.76-.12c-1.584.552-.84,2.52.408,2.064A8.44,8.44,0,0,1,175.44-9.7Zm0,9.72a1.246,1.246,0,1,0-.312-2.472c-2.808.24-4.272.36-5.5-.888-1.248-1.272-2.736.624-1.7,1.776C168.984-.384,171.96.72,175.44.024Zm-8.952-12.576a15.457,15.457,0,0,0,2.424-.96,1.145,1.145,0,1,0-.936-2.064c-.288.168-.576.336-.912.5a7.3,7.3,0,0,0-.024-1.92c-.24-1.32-2.5-1.248-2.4.12a10.46,10.46,0,0,1,.024,2.592,6.415,6.415,0,0,1-3.312-.144c-1.8-.648-2.04,1.536-.816,2.064a7,7,0,0,0,3.5.336,74.289,74.289,0,0,1-4.2,10.416C158.832.432,161.376,1.128,162.1-.48A94.4,94.4,0,0,0,166.488-12.552ZM-190.08,24.792a7.9,7.9,0,0,0-2.16-1.776c-1.056-.552-2.184.72-1.056,1.392a8.336,8.336,0,0,1,1.752,1.68C-190.9,27.12-189.288,25.92-190.08,24.792Zm-2.5,1.728a8.02,8.02,0,0,0-2.112-1.848c-1.032-.6-2.208.672-1.1,1.392a8.408,8.408,0,0,1,1.7,1.752C-193.464,28.872-191.832,27.672-192.576,26.52Zm-7.368,4.488c1.368-.384,2.664-.768,3.744-1.1a1.109,1.109,0,1,0-.576-2.136c-1.128.36-2.424.768-3.792,1.152-.48-1.584-.912-2.928-1.152-3.792-.384-1.32-2.832-.96-2.28.672.288.888.72,2.208,1.2,3.744-1.416.384-2.808.744-4.128,1.032-1.584.36-1.128,2.544.6,2.136,1.248-.288,2.712-.672,4.2-1.08.24.792.5,1.608.768,2.448-2.136.624-4.152,1.248-5.544,1.68-1.8.552-1.08,2.784.5,2.256,1.464-.5,3.552-1.152,5.688-1.8.768,2.5,1.44,4.848,1.824,6.336a1.11,1.11,0,0,0,1.512.864,1.323,1.323,0,0,0,.792-1.728c-.456-1.416-1.176-3.7-1.944-6.12,2.04-.6,4.008-1.128,5.376-1.44,1.488-.336,1.176-2.616-.7-2.136-1.464.384-3.384.912-5.328,1.464Zm19.176,11.352c6.72-2.568,9.648-7.224,11.328-12.024.7-1.968-.672-3.432-2.616-3.456-3.048-.048-7.536-.024-10.7.12a1.189,1.189,0,1,0,.048,2.376c3.456-.12,7.248-.264,9.6-.192.888.024.96.624.768,1.272a14.851,14.851,0,0,1-9.528,9.576C-183.7,40.608-182.808,43.128-180.768,42.36ZM-153.1,33a14.876,14.876,0,0,1,4.68,1.944c1.368,1.008,2.736-1.08,1.488-2.136-1.3-1.1-4.416-1.872-5.76-2.088a2.468,2.468,0,0,0-.408-.024c.024-2.352.048-4.44.072-5.616a1.248,1.248,0,0,0-2.5-.024c.1,3.456.024,12.864-.144,16.752a1.3,1.3,0,1,0,2.592-.1C-153.12,39.768-153.12,36.312-153.1,33Zm24.816-2.352a1.292,1.292,0,0,0-.12-1.872,13.128,13.128,0,0,0-3.192-1.992c-1.632-.72-2.592,1.416-1.224,1.968A8.4,8.4,0,0,1-130.2,30.6,1.281,1.281,0,0,0-128.28,30.648Zm9.264-.672c1.056-1.9-1.344-2.88-2.136-1.392-2.52,4.776-7.848,10.056-12.624,11.352a1.31,1.31,0,1,0,.792,2.472C-127.536,40.608-122.088,35.472-119.016,29.976Zm-12.12,4.488a1.3,1.3,0,0,0-.552-1.8,12.138,12.138,0,0,0-3.5-1.2c-1.752-.336-2.208,1.944-.768,2.184a8.416,8.416,0,0,1,2.976,1.224A1.242,1.242,0,0,0-131.136,34.464Zm28.968,2.568c0,.576-.024,1.1-.048,1.464a.754.754,0,0,1-.792.72c-1.3.1-4.752.1-6.624.024a1.048,1.048,0,1,0,.024,2.088c1.8,0,4.92-.024,6.792-.12,1.344-.072,2.688-.5,2.736-2.376.024-1.56,0-4.08,0-5.136a2.221,2.221,0,0,0-2.424-2.4c-1.752-.048-4.992,0-6.936.072-1.56.072-1.512,2.064.072,1.992,1.8-.072,4.728-.192,6.264-.144.528.024.864.216.888.744,0,.264.024.648.024,1.128-1.728,0-5.064.1-6.7.1-.792,0-1.248.432-1.224.96a1.062,1.062,0,0,0,1.152.936C-107.376,37.1-104.448,37.08-102.168,37.032ZM-81.12,33.96a10.285,10.285,0,0,0-1.44-2.376c-.984-1.176-2.592.144-1.728,1.1A6.353,6.353,0,0,1-83.16,34.7,1.089,1.089,0,1,0-81.12,33.96Zm-4.08,9.024A15.65,15.65,0,0,0-76.44,32.64a1.17,1.17,0,1,0-2.256-.624,12.848,12.848,0,0,1-7.56,9.072,1.065,1.065,0,0,0-.6,1.44A1.151,1.151,0,0,0-85.2,42.984Zm.768-8.016a9.054,9.054,0,0,0-1.776-2.136c-1.128-1.008-2.52.5-1.536,1.344a6.281,6.281,0,0,1,1.368,1.848A1.107,1.107,0,1,0-84.432,34.968Zm37.08-10.056A2.561,2.561,0,0,0-49.9,22.368a2.54,2.54,0,0,0-2.52,2.544,2.52,2.52,0,0,0,2.52,2.52A2.54,2.54,0,0,0-47.352,24.912Zm-15.7,17.448c6.72-2.568,9.648-7.224,11.328-12.024.7-1.968-.672-3.432-2.616-3.456-3.048-.048-7.536-.024-10.7.12a1.189,1.189,0,1,0,.048,2.376c3.456-.12,7.248-.264,9.6-.192.888.024.96.624.768,1.272a14.851,14.851,0,0,1-9.528,9.576C-65.976,40.608-65.088,43.128-63.048,42.36Zm14.376-17.448a1.209,1.209,0,0,1-1.224,1.2,1.209,1.209,0,0,1-1.224-1.2A1.25,1.25,0,0,1-49.9,23.664,1.25,1.25,0,0,1-48.672,24.912Zm3.936,18.864a1.327,1.327,0,0,0,1.3-1.32c0-1.632-3.84-3.744-4.68-3.744a1.068,1.068,0,0,0-1.128,1.056,1.079,1.079,0,0,0,.648.96,9.161,9.161,0,0,1,2.952,2.52A1.092,1.092,0,0,0-44.736,43.776Zm30.144-14.568c.024.936.072,1.872.12,2.784a10.227,10.227,0,0,1-3.744.216,1.194,1.194,0,1,0-.5,2.3,13.049,13.049,0,0,0,4.368-.264c.048.744.1,1.416.144,1.992.048.552.1,1.056.12,1.56a8.11,8.11,0,0,0-4.584.408c-2.616,1.1-2.472,3.792-.192,4.92a4.9,4.9,0,0,0,6.72-2.184,11.05,11.05,0,0,1,1.752,1.3c1.512,1.392,3.072-.792,1.464-2.112a11.161,11.161,0,0,0-2.976-1.7c-.048-.864-.12-1.728-.192-2.376-.072-.7-.12-1.44-.168-2.256.7-.168,1.464-.384,2.3-.624,2.136-.6,1.224-2.808-.552-2.232-.648.216-1.248.384-1.824.552-.024-.888-.024-1.776-.024-2.664.552-.1,1.152-.216,1.8-.312,2.088-.336,1.44-2.568-.144-2.208-.576.12-1.128.264-1.632.36.024-.96.072-1.92.144-2.784a1.224,1.224,0,0,0-2.448.024c-.024.768-.024,1.9,0,3.168a13.8,13.8,0,0,1-3.72.168c-2.184-.264-2.088,2.232-.24,2.28a21.592,21.592,0,0,0,3.768-.288ZM-14.3,39.96A2.654,2.654,0,0,1-18,41.3a.725.725,0,0,1,.072-1.368A5.226,5.226,0,0,1-14.3,39.96ZM8.328,36.576a8.64,8.64,0,0,0,2.136-.384,1.147,1.147,0,1,0-.768-2.16,8.18,8.18,0,0,1-1.152.216c.1-1.008.216-2.04.36-3.12a7.457,7.457,0,0,0,1.464-.24A1.127,1.127,0,1,0,9.816,28.7a4.422,4.422,0,0,1-.6.12c.024-.288.072-.576.1-.864A30.228,30.228,0,0,0,9.72,24.5c0-1.416-2.28-1.8-2.4-.12-.072,1.128-.12,2.04-.264,3.552-.024.288-.072.6-.1.888a6.783,6.783,0,0,1-1.728-.456c-1.272-.528-2.328,1.68-.5,2.3a10.934,10.934,0,0,0,1.992.408c-.12,1.08-.24,2.136-.336,3.192a8.41,8.41,0,0,1-1.848-.36c-1.368-.456-2.112,1.824-.168,2.352a13.08,13.08,0,0,0,1.848.288c-.048.744-.048,1.464-.024,2.136.192,6.408,7.848,5.616,9.576,1.056.912-2.424.24-4.7-1.632-6.864-1.056-1.224-3.12.048-1.872,1.416,1.344,1.464,2.016,3.048,1.176,4.848-1.248,2.664-4.992,2.808-5.136-.624A17.781,17.781,0,0,1,8.328,36.576Zm32.688-5.16c1.176.744,2.424-1.248.792-2.232a7.591,7.591,0,0,0-4.416-.84c-1.536.144-1.44,2.136-.12,2.064A6.169,6.169,0,0,1,41.016,31.416Zm-10.824-2.4a46.84,46.84,0,0,1-3.936,6.552c-1.056,1.56,1.248,2.5,2.136,1.056a60.646,60.646,0,0,0,4.3-8.088,9.168,9.168,0,0,0,2.568-1.1c1.536-1.1.024-2.592-1.056-1.824a7.447,7.447,0,0,1-.768.408,8.07,8.07,0,0,0,.336-1.464,1.15,1.15,0,0,0-2.28-.216,15.476,15.476,0,0,1-.48,2.424,6.407,6.407,0,0,1-3.288.072,1.1,1.1,0,1,0-.7,2.064A6.566,6.566,0,0,0,30.192,29.016Zm7.56,11.256A6.95,6.95,0,0,1,39.12,41.52c1.152,1.392,3.1-.312,1.728-1.824a8.708,8.708,0,0,0-2.928-1.92c-.024-.528-.072-1.032-.1-1.488-.024-.7-.024-1.3-.024-1.848a4.787,4.787,0,0,1,.144-1.128,1.1,1.1,0,0,0-2.16-.432,7.158,7.158,0,0,0-.12,1.608c.024.6.072,1.2.072,1.8v.84a7.846,7.846,0,0,0-4.608.456c-2.472,1.1-2.208,3.7.024,4.824A4.807,4.807,0,0,0,37.752,40.272Zm-2.136-1.128c-.024.072,0,.168-.024.24-.264,1.3-2.208,1.992-3.648,1.272a.729.729,0,0,1-.024-1.392A4.812,4.812,0,0,1,35.616,39.144ZM61.3,41.016c-1.176-2.568-3.216-4.824-5.616-7.824-.792-.984-.744-1.7.288-2.736C57.456,28.968,60,26.88,61.2,25.416a1.344,1.344,0,1,0-2.136-1.632,58.962,58.962,0,0,1-4.92,5.424c-1.872,1.944-1.872,3.648-.288,5.5a44.261,44.261,0,0,1,5.088,7.8C59.712,44.04,62.04,42.624,61.3,41.016Zm27.7-10.248v.984c0,1.512.024,3.336.024,5.064,0,1.128-.024,2.232-.048,3.192-.024,1.176-.576,1.464-1.368,1.464a9.276,9.276,0,0,1-1.3-.144c-.072,0-.12-.024-.192-.024a1,1,0,0,0-.984,1.056c0,1.1.96,1.32,2.592,1.32,2.712,0,3.552-1.512,3.552-3.24,0-.84-.024-1.848-.024-3,0-3.072-.048-7.008-.048-10.608V25.056c0-1.056-.72-1.968-2.52-2.064-.408-.024-1.08-.024-1.8-.024-.984,0-2.016,0-2.472.024a2.042,2.042,0,0,0-2.16,1.848c-.024.816-.048,1.656-.048,2.472,0,.5,0,1.008.024,1.464.072,2.016,1.968,2.04,4.992,2.04C87.912,30.816,88.56,30.792,88.992,30.768Zm-2.5,6.816a.915.915,0,1,0,0-1.824h-1.92V33.6H85.8a.915.915,0,1,0,0-1.824H76.824a.984.984,0,0,0-1.056.936c0,.456.336.888,1.056.888h1.464c.024.552.048,1.152.048,1.776v.384H76.392a.984.984,0,0,0-1.056.936c0,.456.336.888,1.056.888h1.872c-.168,1.632-.744,2.952-2.64,3.36a.873.873,0,0,0-.7.888.963.963,0,0,0,1.008.984,1.631,1.631,0,0,0,.456-.072c2.712-.816,3.672-2.592,3.936-5.16h2.136V41.5a1.057,1.057,0,0,0,2.112,0V37.584ZM74.088,30.768c.432.024,1.032.048,1.68.048,4.848,0,4.872-.552,4.872-3.5,0-.816-.024-1.656-.048-2.472a2.089,2.089,0,0,0-2.208-1.848c-.456-.024-1.44-.024-2.4-.024-2.664,0-4.128.072-4.128,2.28-.048,5.064,0,13.008-.168,17.448v.048a1.056,1.056,0,0,0,1.128,1.008A1.092,1.092,0,0,0,73.992,42.7c.072-3.432.1-7.056.1-9.744Zm10.248-4.632c0-.24.024-.48.024-.7.048-.72.312-.744,2.3-.744,2.184,0,2.28.024,2.28,1.44Zm4.656,2.952c-.336.024-1.152.024-1.944.024-2.136,0-2.664,0-2.688-.744,0-.216-.024-.456-.024-.7h4.656Zm-14.9-2.952c0-.192.024-.36.024-.528.048-.864.216-.912,2.208-.912,1.848,0,2.112.024,2.16.72,0,.216.024.456.024.72ZM78.5,27.672c0,.24-.024.48-.024.7-.024.648-.192.744-2.568.744-.744,0-1.464,0-1.824-.024V27.672Zm3.96,8.088H80.4V33.6h2.064Zm31.152-2.832A1.02,1.02,0,0,0,114.7,31.9a1.007,1.007,0,0,0-1.08-1.032h-5.784l.024-1.872a1.069,1.069,0,0,0-1.176-1.008,1.014,1.014,0,0,0-1.128,1.008l.024,6.576c-.864,0-1.68.024-2.352.048a2.329,2.329,0,0,0-2.544,2.256c-.024.528-.024.984-.024,1.512,0,.36,0,.792.024,1.3a2.387,2.387,0,0,0,2.592,2.328c1.128.048,2.376.072,3.672.072s2.64-.024,3.936-.072a2.5,2.5,0,0,0,2.544-2.352c.024-.552.048-1.056.048-1.536s-.024-.96-.048-1.44A2.357,2.357,0,0,0,111,35.616c-.936-.024-2.04-.048-3.168-.048v-2.64Zm.192-5.4a1.053,1.053,0,0,0,1.128-1.056,1.022,1.022,0,0,0-1.128-1.032c-1.488-.024-4.128-.048-6.816-.048V23.616a1.25,1.25,0,0,0-2.5,0v1.752c-1.656,0-3.168.024-4.3.024-2.184.024-3.12,1.032-3.12,2.976v.072c.024,1.1.048,2.28.048,3.456,0,3.336-.312,6.84-2.3,9.336a.95.95,0,0,0-.216.552,1.259,1.259,0,0,0,1.272,1.1,1.335,1.335,0,0,0,1.08-.576c2.712-3.456,2.376-9.336,2.424-13.728,0-.672.312-1.1,1.152-1.1.936,0,2.568-.024,4.416-.024,3.192,0,7.008.024,8.832.072ZM111.192,40.1c-.048.984-.648.984-4.056.984-3.816,0-4.2,0-4.272-.984-.024-.288-.024-.552-.024-.816,0-1.2.144-1.752,1.032-1.776,1.008-.024,2.256-.048,3.48-.048,1.008,0,1.992.024,2.784.048,1.032.024,1.08.5,1.08,1.752C111.216,39.528,111.216,39.792,111.192,40.1Zm25.824-.312A1.334,1.334,0,1,0,135.36,37.7c-4.176,3.288-8.448,3.528-8.592.024a66.557,66.557,0,0,1,.432-7.056c.12-1.608.288-3.888.336-5.4.048-1.584-2.664-1.728-2.616.048.048,1.488-.12,3.84-.192,5.4-.12,2.544-.384,4.584-.288,7.1C124.656,44.3,132.336,43.608,137.016,39.792Zm16.392-10.584c.024.936.072,1.872.12,2.784a10.227,10.227,0,0,1-3.744.216,1.194,1.194,0,1,0-.5,2.3,13.049,13.049,0,0,0,4.368-.264c.048.744.1,1.416.144,1.992.048.552.1,1.056.12,1.56a8.11,8.11,0,0,0-4.584.408c-2.616,1.1-2.472,3.792-.192,4.92a4.9,4.9,0,0,0,6.72-2.184,11.049,11.049,0,0,1,1.752,1.3c1.512,1.392,3.072-.792,1.464-2.112a11.161,11.161,0,0,0-2.976-1.7c-.048-.864-.12-1.728-.192-2.376-.072-.7-.12-1.44-.168-2.256.7-.168,1.464-.384,2.3-.624,2.136-.6,1.224-2.808-.552-2.232-.648.216-1.248.384-1.824.552-.024-.888-.024-1.776-.024-2.664.552-.1,1.152-.216,1.8-.312,2.088-.336,1.44-2.568-.144-2.208-.576.12-1.128.264-1.632.36.024-.96.072-1.92.144-2.784a1.224,1.224,0,0,0-2.448.024c-.024.768-.024,1.9,0,3.168a13.8,13.8,0,0,1-3.72.168c-2.184-.264-2.088,2.232-.24,2.28a21.592,21.592,0,0,0,3.768-.288ZM153.7,39.96A2.654,2.654,0,0,1,150,41.3a.725.725,0,0,1,.072-1.368A5.226,5.226,0,0,1,153.7,39.96Zm24.024-2.112a8.521,8.521,0,0,1-2.736,3.528c-2.088,1.488,0,3.192,1.608,1.92,2.544-2.04,5.088-7.128,2.952-10.488-.024-.528-.072-1.032-.072-1.368,0-.7-.024-1.44-.048-2.208.624-.024,1.2-.048,1.752-.048,1.488.024,2.064.024,3.768.168,1.92.144,2.016-2.4,0-2.448-1.632-.024-2.472,0-3.648,0-.528,0-1.152.024-1.848.072,0-.12.024-.24.024-.36.048-.648.12-1.752.1-2.3a1.261,1.261,0,0,0-2.52.072c0,.768.144.864.12,2.352v.432c-2.112.192-4.272.456-5.472.648-1.008.168-2.568.336-3.528.5a1.221,1.221,0,1,0,.192,2.424c.72-.12,1.848-.432,3.576-.7,1.248-.192,3.24-.48,5.256-.672.024.7.048,1.416.072,1.944a4.755,4.755,0,0,0-2.064.216,3.314,3.314,0,0,0-1.92,4.512A3.066,3.066,0,0,0,177.72,37.848Zm-.024-3.912a1.085,1.085,0,0,1,.144.912,1.427,1.427,0,0,1-2.76.408,1.472,1.472,0,0,1,.7-1.824,1.564,1.564,0,0,1,1.536.1A3.091,3.091,0,0,1,177.7,33.936Zm21.792,2.856A1.032,1.032,0,0,0,200.5,37.92c1.056,0,1.056-1.008,1.056-1.584,0-2.328.384-8.928.384-11.76a1.358,1.358,0,0,0-1.44-1.392A1.3,1.3,0,0,0,199.1,24.5v.072c.144,3.768.384,9.36.384,11.688v.5Zm2.688,4.488a1.549,1.549,0,0,0-1.656-1.656,1.734,1.734,0,0,0-1.656,1.656,1.662,1.662,0,0,0,1.656,1.584A1.6,1.6,0,0,0,202.176,41.28Z" transform="translate(207.961 20.112)" fill="#171c61"/>
</svg>
