<svg xmlns="http://www.w3.org/2000/svg" width="118.993" height="15.814" viewBox="0 0 118.993 15.814">
  <path id="パス_209" data-name="パス 209" d="M-47.34-12.24c.522.756,1.656-.234,1.026-1.044a5.786,5.786,0,0,0-1.674-1.242c-.81-.378-1.62.648-.738,1.116A6.209,6.209,0,0,1-47.34-12.24Zm-1.044.18a5.778,5.778,0,0,0-1.638-1.278c-.792-.414-1.62.576-.756,1.062a6.272,6.272,0,0,1,1.332,1.242C-48.942-10.26-47.772-11.232-48.384-12.06Zm-3.132,2.844c1.458.306,1.854-1.548.342-1.872a19.11,19.11,0,0,0-5.742-.054c-1.6.234-1.368,2.142.054,1.872A13.685,13.685,0,0,1-51.516-9.216ZM-49.752-.45c1.458-.45,1.026-2.394-.468-1.98-2.718.774-5.634.9-7.164-.666a.949.949,0,0,0-1.494,1.17C-57.636-.18-53.316.666-49.752-.45Zm9.72-13.752a.731.731,0,0,0-.756.774.726.726,0,0,0,.756.756c1.026,0,1.332-.018,2-.036.18,0,.288.054.288.18a12.658,12.658,0,0,1-5.436,4.59.788.788,0,0,0-.5.738.876.876,0,0,0,.846.882c.612,0,4.248-2.016,6.822-5.616a.547.547,0,0,0,.09-.126c2.3,3.24,5.8,5.49,6.768,5.49a.982.982,0,0,0,1.008-.936.835.835,0,0,0-.576-.756,12.773,12.773,0,0,1-2.25-1.188c.432-.306,1.764-1.314,1.764-1.89a1,1,0,0,0-.936-.918.7.7,0,0,0-.576.306,10.238,10.238,0,0,1-1.53,1.548c-.306-.252-.612-.522-.9-.81,1.062-.828,1.764-1.638,1.764-2.052a.957.957,0,0,0-.936-.882.68.68,0,0,0-.594.342,9.11,9.11,0,0,1-1.26,1.494c-.288-.324-.54-.684-.792-1.026a.645.645,0,0,0-.558-.288.613.613,0,0,0-.252.036,1.412,1.412,0,0,0-1.368-.612h-2.862ZM-34-7.9a.749.749,0,0,0,.81-.738A.752.752,0,0,0-34-9.4h-3.8a.752.752,0,0,0-.81.756.749.749,0,0,0,.81.738Zm-6.606-2.052a.977.977,0,0,0,.9-.954c0-.918-2.124-1.584-2.43-1.584a.872.872,0,0,0-.882.81.632.632,0,0,0,.432.594,6.468,6.468,0,0,1,1.512.954A.7.7,0,0,0-40.608-9.954ZM-29.268.738a.7.7,0,0,0,.774-.72.756.756,0,0,0-.774-.774l-3.96.036a2.987,2.987,0,0,0,.468-.99.9.9,0,0,0-.648-.774l.54-.018a1.525,1.525,0,0,0,1.638-1.35c.018-.252.036-.612.036-.954s-.018-.684-.036-.918A1.428,1.428,0,0,0-32.8-6.912c-1.026-.036-2.088-.036-3.132-.036s-2.106,0-3.15.036c-1.17.018-1.6.666-1.638,1.3,0,.216-.018.54-.018.864,0,.342.018.666.018.918.036.756.576,1.3,1.656,1.332l.45.018c-.36.072-.684.342-.684.648a.494.494,0,0,0,.126.324,7.092,7.092,0,0,1,.558.792l-4.176-.036A.747.747,0,0,0-43.578,0a.733.733,0,0,0,.792.738Zm-4.14-4.554C-34.182-3.8-35.1-3.8-36-3.8s-1.8,0-2.556-.018c-.522,0-.576-.2-.576-.918,0-.738.054-.918.558-.918.9-.018,1.98-.018,3.006-.018,2.556,0,2.664,0,2.7.432a3.786,3.786,0,0,1,.018.5C-32.85-4.14-32.868-3.852-33.408-3.816Zm-3.366,3.1a5.3,5.3,0,0,0-1.1-1.638.491.491,0,0,0-.216-.108c.558.018,1.134.018,1.692.018.774,0,1.53,0,2.3-.018a.7.7,0,0,0-.378.432A10.716,10.716,0,0,1-35.01-.72Zm21.276-.7c0,.828-.378,1.044-.936,1.044A4.968,4.968,0,0,1-17.406-.5a.5.5,0,0,0-.162-.018.758.758,0,0,0-.738.81c0,.576.324.918,1.854.918,2.034,0,2.556-1.224,2.556-2.16v-.09l-.072-2.574-.018-1.1c.918,2.52,2.574,4.68,3.42,4.68A.976.976,0,0,0-9.63-.954a.66.66,0,0,0-.288-.54,10.24,10.24,0,0,1-2.5-2.7c.666-.4,2.448-1.62,2.448-2.322a.954.954,0,0,0-.9-.9.7.7,0,0,0-.576.306,8.6,8.6,0,0,1-1.674,1.656,10.47,10.47,0,0,1-.864-2.664H-10.6a.675.675,0,0,0,.72-.7A.67.67,0,0,0-10.6-9.5h-1.35c.018-.936.054-2.358.054-3.042,0-1.152-.54-1.656-1.692-1.692-.792-.018-3.186-.018-4.068-.018a.73.73,0,0,0-.828.7.759.759,0,0,0,.756.756h3.078c.954,0,1.134,0,1.152.5v.45h-3.96a.713.713,0,0,0-.756.684.667.667,0,0,0,.756.648h3.942c0,.36-.036.72-.036,1.008h-5.238a.719.719,0,0,0-.756.72.67.67,0,0,0,.756.666h3.258l.018,4.482a.737.737,0,0,0-.612-.378.71.71,0,0,0-.486.2A11.231,11.231,0,0,1-19.08-2.052a.617.617,0,0,0,.072-.288.694.694,0,0,0-.738-.666,1,1,0,0,0-.522.144,12.114,12.114,0,0,1-1.278.648V-6.336h1.656a.679.679,0,0,0,.7-.7.67.67,0,0,0-.7-.7h-1.656V-9.018h.7a.684.684,0,0,0,.7-.72V-9.81a.706.706,0,0,0,.324.072.883.883,0,0,0,.864-.828.688.688,0,0,0-.18-.45,28.09,28.09,0,0,1-1.8-2.5,1.787,1.787,0,0,0-1.458-1.008,1.516,1.516,0,0,0-1.314,1.008A15.633,15.633,0,0,1-25.974-9.99a.8.8,0,0,0-.234.54.839.839,0,0,0,.882.738c.252,0,.558-.09.936-.648a.7.7,0,0,0,.648.342h.612V-7.74h-1.8A.729.729,0,0,0-25.668-7a.663.663,0,0,0,.738.666h1.8v4.752c-.72.252-1.476.486-2.34.7a.807.807,0,0,0-.648.774.823.823,0,0,0,.864.828,20.579,20.579,0,0,0,5.436-2.142.9.9,0,0,0-.036.216.819.819,0,0,0,.828.792c.954,0,3.114-1.98,3.366-2.232a.563.563,0,0,0,.162-.2Zm-1.386-3.024a.937.937,0,0,0,.882-.9c0-.666-1.494-1.98-2.034-1.98a.819.819,0,0,0-.81.7.589.589,0,0,0,.234.45,4.8,4.8,0,0,1,1.134,1.35A.648.648,0,0,0-16.884-4.446Zm-3.834,1.26c.828,0,1.458-1.728,1.458-1.89,0-.414-.468-.72-.882-.72a.52.52,0,0,0-.54.378,4.913,4.913,0,0,1-.54,1.206.808.808,0,0,0-.162.432A.64.64,0,0,0-20.718-3.186Zm-3.474,1.008a.859.859,0,0,0,.846-.864,5.185,5.185,0,0,0-.972-2.286.707.707,0,0,0-.558-.216c-.4,0-.81.234-.81.594a.555.555,0,0,0,.09.324A7.708,7.708,0,0,1-24.8-2.718.61.61,0,0,0-24.192-2.178Zm.54-8.244a18.9,18.9,0,0,0,1.278-2.2.169.169,0,0,1,.144-.108.169.169,0,0,1,.144.108c.306.486.828,1.458,1.35,2.2ZM4.662-1.44A8.291,8.291,0,0,1,5.778-.5c.9.954,2.178-.612,1.152-1.548A8.594,8.594,0,0,0,4.9-3.366c-.018-.576-.09-1.17-.108-1.62-.036-.882-.09-2.286-.108-3.69.432-.09.864-.2,1.3-.306,1.548-.378.774-2.016-.4-1.656-.288.09-.612.162-.918.252,0-.882.018-1.638.054-2.142.072-.972-1.692-1.134-1.728.036-.018.558,0,1.476.018,2.484a7.558,7.558,0,0,1-2.538.054.881.881,0,1,0-.36,1.71A12.369,12.369,0,0,0,3.06-8.37c.054,1.422.09,2.808.144,3.546.018.342.054.612.054.9A5.118,5.118,0,0,0,.09-3.708,2.037,2.037,0,0,0-.18.072,3.575,3.575,0,0,0,4.662-1.44ZM-4.194.306c.45-.432.216-.936.36-1.44.072-.288.18-.684.324-1.134A11.014,11.014,0,0,1-2.952-3.69c.648-1.35-.72-1.962-1.134-1.1-.036.09-.162.414-.216.522-.18.36-.2.306-.234-.018a20.036,20.036,0,0,1,.342-3.762c.234-1.53.54-3.1.666-3.906a.912.912,0,1,0-1.818-.036c-.09,1.17-.486,3.186-.72,5.364A16.282,16.282,0,0,0-5.778-.306C-5.472.666-4.662.738-4.194.306ZM3.114-2.286A1.868,1.868,0,0,1,.5-1.332.6.6,0,0,1,.612-2.394,3.248,3.248,0,0,1,3.1-2.286Zm17.46-6.93c1.458.306,1.854-1.548.342-1.872a19.11,19.11,0,0,0-5.742-.054c-1.6.234-1.368,2.142.054,1.872A13.685,13.685,0,0,1,20.574-9.216ZM22.338-.45C23.8-.9,23.364-2.844,21.87-2.43c-2.718.774-5.634.9-7.164-.666a.949.949,0,0,0-1.494,1.17C14.454-.18,18.774.666,22.338-.45ZM34.9-9.288a20.76,20.76,0,0,0,2.034-.846c1.674-.774.54-2.574-.7-1.692a7.464,7.464,0,0,1-.954.576c.144-.666.27-1.26.4-1.674a.891.891,0,1,0-1.728-.432c-.126.558-.306,1.548-.486,2.7a4.521,4.521,0,0,1-1.71-.018C30.312-11,30.168-9.18,31.5-8.964a6.74,6.74,0,0,0,1.692.054c-.27,1.764-.522,3.6-.666,4.626-.126.918.486,1.692,1.278,1.476.612-.162.7-.684,1.026-1.026A5.39,5.39,0,0,1,38-5.49c2.448-.2,2.754,1.512,1.44,2.988a6.078,6.078,0,0,1-3.744,1.62c-1.35.162-1.26,1.962.468,1.728A7.935,7.935,0,0,0,41-1.512c2.268-2.7.558-6.03-3.222-5.526A8.085,8.085,0,0,0,34.218-5.49C34.344-6.12,34.614-7.7,34.9-9.288Zm19.548-1.35a1.171,1.171,0,0,0,1.134-1.26,1.923,1.923,0,0,0-1.026-1.314c-.522-.342-1.134-.612-1.458-.846-.9-.648-2.088.306-1.314,1.152a6.3,6.3,0,0,0,1.278.846c.126.09-.054.18-.144.234-.756.414-.108,1.566.756,1.35C53.964-10.548,54.216-10.6,54.45-10.638ZM56.826-.108c6.084-3.726,2.25-8.586-3.186-6.228-.846.36-1.692.828-2.052,1.026-.162.09-.252.09-.306-.054a4.727,4.727,0,0,1,.108-1.872c.144-.864.342-1.872.432-2.628.162-1.3-1.476-1.332-1.656-.18-.144.918-.378,2.3-.522,3.618a6.2,6.2,0,0,0,.144,3.06c.324.63,1.044,1.134,2.106.108a11.366,11.366,0,0,1,2.412-1.548c1.908-.864,3.222-.594,3.6.126s-.162,1.962-2.142,3.114a8.441,8.441,0,0,1-2.412.774c-1.53.306-1.062,2.088.4,1.8A9.745,9.745,0,0,0,56.826-.108Z" transform="translate(59.065 14.608)" fill="#171c61"/>
</svg>
