<svg xmlns="http://www.w3.org/2000/svg" width="475.904" height="107.114" viewBox="0 0 475.904 107.114">
  <path id="パス_213" data-name="パス 213" d="M-245.869-17.914v.546c0,2.574-.1,8.268-.1,11.83,0,.962,0,1.794.026,2.34.078,2.288,1.508,3.146,3.9,3.328.338.026,1.872.052,3.38.052,1.534,0,3.068-.026,3.406-.052a1.535,1.535,0,0,0,1.638-1.482,1.359,1.359,0,0,0-1.4-1.378h-.13c-.494.026-2.158.052-3.666.052-3.536,0-4.108,0-4.212-1.248-.026-.442-.052-1.612-.052-3.094,0-3.614.078-9.1.156-10.764v-.1a1.475,1.475,0,0,0-1.482-1.586,1.44,1.44,0,0,0-1.456,1.534ZM-227.435-1.2c-.052-3.2-.078-6.578-.078-9.828,0-2.522.026-4.966.078-7.124V-18.2a1.375,1.375,0,0,0-1.534-1.274c-.468,0-1.638.286-1.586,1.378.078,2.106.13,4.472.13,6.942,0,3.354-.078,6.838-.13,9.958v.026A1.43,1.43,0,0,0-229,.208a1.43,1.43,0,0,0,1.56-1.378Zm4.576.182A1.349,1.349,0,0,0-221.351.234c.754,0,1.482-.39,1.482-1.222V-1.04c-.078-2.756-.156-10.426-.156-13.13,0-1.2,0-1.456.156-1.456.13,0,.312.338.416.494,1.4,2.366,6.266,11.258,8.086,14.144a2.651,2.651,0,0,0,2.236,1.3,2.351,2.351,0,0,0,2.366-2.47V-2.21c-.052-2.262-.078-5.668-.078-8.97,0-2.6.026-5.122.078-6.942v-.052a1.4,1.4,0,0,0-1.508-1.352,1.394,1.394,0,0,0-1.508,1.4c.078,2.392.156,10.5.156,12.948,0,1.014-.1,1.092-.182,1.092s-.208-.13-.364-.364c-1.976-2.964-6.318-11.076-7.956-13.676a3.141,3.141,0,0,0-2.548-1.4c-1.144,0-2.158.728-2.158,2.548v.1c.026,1.95.052,4.42.052,7.02,0,2.99-.026,6.136-.078,8.814Zm30.81-15.834a1.432,1.432,0,0,0,1.534-1.4,1.386,1.386,0,0,0-1.456-1.378c-.39-.026-1.82-.052-3.3-.052-1.456,0-2.938.026-3.406.052-2.106.1-3.458,1.2-3.51,3.276-.052,1.638-.078,5.174-.078,8.346,0,2.106,0,4.03.052,5.122.1,2.288,1.586,3.146,3.978,3.328.338.026,1.846.052,3.328.052,1.508,0,3.016-.026,3.354-.052a1.516,1.516,0,0,0,1.638-1.456,1.319,1.319,0,0,0-1.4-1.326h-.13c-.494.026-2.158.052-3.692.052-3.666,0-4.082-.052-4.212-1.248-.052-.442-.078-1.04-.078-4.914,0-.546.26-.572,3.484-.572.988,0,1.976.026,2.626.078h.13a1.378,1.378,0,0,0,1.378-1.482,1.309,1.309,0,0,0-1.456-1.378c-.468.026-1.716.026-2.912.026-3.2,0-3.224,0-3.224-.52.026-1.508,0-2.782.052-3.406.078-1.118.624-1.17,3.224-1.17C-194.363-16.874-192.049-16.848-192.049-16.848Zm26.468,5.928c.936,1.04,2.47-.676,1.378-1.768a8.627,8.627,0,0,0-2.756-1.56c-1.274-.416-2.288,1.248-.884,1.794A9.128,9.128,0,0,1-165.581-10.92Zm-2.678,2.366c.91,1.066,2.522-.6,1.456-1.742a8.491,8.491,0,0,0-2.73-1.638c-1.274-.468-2.314,1.144-.936,1.742A9.954,9.954,0,0,1-168.259-8.554Zm-2.5,9.1c2.756.026,2.574-3.042-.156-2.938-5.824.208-7.566-5.252-5.278-9.074a7.566,7.566,0,0,1,3.354-3.042,11.021,11.021,0,0,1,3.848-.728c1.82.1,2.392-.416,2.548-.858a1.533,1.533,0,0,0-1.768-2,34.788,34.788,0,0,0-7.072,1.534c-2.652.754-4.94,1.274-6.214,1.586-.832.208-2.34.494-2.886.624-2.08.442-1.378,3.432.91,2.808a24.666,24.666,0,0,0,2.34-.78c1.768-.676,1.326-.676,3.276-1.3.494-.156.624-.182.208.364a8.984,8.984,0,0,0-.832,1.352C-181.311-6.682-178.607.52-170.755.546Zm31.486-12.61a1.263,1.263,0,0,0-.026-1.846c-.936-.988-3.536-1.638-5.408-1.482a1.155,1.155,0,1,0,.13,2.288,4.857,4.857,0,0,1,3.432,1.066A1.311,1.311,0,0,0-139.269-12.064Zm-12.454,5.226a13.213,13.213,0,0,1,2.73-.988,7.263,7.263,0,0,1,4.212.052c2.262.832,1.534,2.678.91,3.51-1.248,1.664-2.912,1.638-4.94.65a1.24,1.24,0,1,0-1.118,2.21,6.349,6.349,0,0,0,8.346-1.56c1.326-1.924,2.028-5.434-2.262-6.916a9.977,9.977,0,0,0-5.772-.026A16.006,16.006,0,0,0-151.8-9.1c-.026-.988-.026-1.95,0-2.756a15.03,15.03,0,0,0,2.444-1.17c1.82-1.092.234-3.146-1.17-2.21a7.813,7.813,0,0,1-1.04.6c.052-.78.078-1.612.13-2.184a1.317,1.317,0,1,0-2.626.026c.052.988.1,1.82.1,3.042a6.491,6.491,0,0,1-2.626.234c-2.158-.442-2.47,2.158-.546,2.392a9.749,9.749,0,0,0,3.12-.1c0,1.04.026,2.158.052,3.25a16.746,16.746,0,0,0-3.666,2.756c-1.378,1.508-2.236,3.354.858,4.862,2.132,1.04,5.46,1.092,5.252-2.626C-151.567-4.108-151.671-5.46-151.723-6.838Zm-2.21,1.3c.026,1.066.026,2.028,0,2.73-.026,1.014-.78,1.092-1.9.546-.6-.286-.6-.962-.052-1.56A12.763,12.763,0,0,1-153.933-5.538Zm39.52-9.152a1.118,1.118,0,0,0,1.2-1.144,1.18,1.18,0,0,0-1.2-1.222h-10.27a28.057,28.057,0,0,0,.26-2.938c0-.754-.754-1.17-1.482-1.17a1.2,1.2,0,0,0-1.352,1.17,28.7,28.7,0,0,1-.13,2.938h-6.24a1.214,1.214,0,0,0-1.248,1.248,1.116,1.116,0,0,0,1.248,1.118h5.928c-.858,5.07-3.068,10.322-7.2,13.286a1.305,1.305,0,0,0-.624,1.04A1.321,1.321,0,0,0-134.173.858a1.621,1.621,0,0,0,1.014-.364,20.5,20.5,0,0,0,6.136-8.736,16.34,16.34,0,0,0,2.886,4.186,14.688,14.688,0,0,1-6.474,3.38A1.214,1.214,0,0,0-131.677.468a1.363,1.363,0,0,0,1.4,1.3,16.033,16.033,0,0,0,7.852-4.186c3.64,3.094,7.124,3.978,8.06,3.978A1.55,1.55,0,0,0-112.749.052a1.246,1.246,0,0,0-1.144-1.222,15.987,15.987,0,0,1-6.838-2.99c1.274-1.482,3.432-4.628,3.432-6.188,0-1.144-.832-1.924-2.288-1.924-1.248,0-4.238.026-6.084.052.208-.806.416-1.638.572-2.47Zm-8.138,8.944a13.425,13.425,0,0,1-2.964-4.368h4.888a.363.363,0,0,1,.416.39A13.264,13.264,0,0,1-122.551-5.746Zm34.632-11.882c.884.988,2.366-.624,1.326-1.664A8.383,8.383,0,0,0-89.219-20.8c-1.222-.39-2.158,1.2-.832,1.716A9.369,9.369,0,0,1-87.919-17.628Zm-2.366,2.366c.858,1.014,2.392-.572,1.378-1.664a8.043,8.043,0,0,0-2.574-1.56c-1.2-.442-2.236,1.144-.91,1.69A8.946,8.946,0,0,1-90.285-15.262Zm.156,4.758c1.638.546,2.34-1.742.6-2.366a9.651,9.651,0,0,0-6.24-.13c-1.716.6-.91,2.73.442,2.236A9.143,9.143,0,0,1-90.129-10.5Zm0,10.53a1.35,1.35,0,1,0-.338-2.678c-3.042.26-4.628.39-5.954-.962-1.352-1.378-2.964.676-1.846,1.924C-97.123-.416-93.9.78-90.129.026Zm-9.7-13.624a16.746,16.746,0,0,0,2.626-1.04,1.241,1.241,0,1,0-1.014-2.236c-.312.182-.624.364-.988.546a7.912,7.912,0,0,0-.026-2.08c-.26-1.43-2.7-1.352-2.6.13a11.331,11.331,0,0,1,.026,2.808,6.95,6.95,0,0,1-3.588-.156c-1.95-.7-2.21,1.664-.884,2.236a7.583,7.583,0,0,0,3.8.364,80.48,80.48,0,0,1-4.55,11.284c-1.092,2.21,1.664,2.964,2.444,1.222A102.271,102.271,0,0,0-99.827-13.6Zm26.182.182a29.986,29.986,0,0,0,2.938-1.222c2.418-1.118.78-3.718-1.014-2.444a10.782,10.782,0,0,1-1.378.832c.208-.962.39-1.82.572-2.418a1.287,1.287,0,1,0-2.5-.624c-.182.806-.442,2.236-.7,3.9a6.53,6.53,0,0,1-2.47-.026c-2.08-.468-2.288,2.158-.364,2.47a9.735,9.735,0,0,0,2.444.078c-.39,2.548-.754,5.2-.962,6.682-.182,1.326.7,2.444,1.846,2.132.884-.234,1.014-.988,1.482-1.482A7.786,7.786,0,0,1-69.173-7.93c3.536-.286,3.978,2.184,2.08,4.316A8.779,8.779,0,0,1-72.5-1.274c-1.95.234-1.82,2.834.676,2.5a11.461,11.461,0,0,0,6.994-3.406c3.276-3.9.806-8.71-4.654-7.982A11.678,11.678,0,0,0-74.633-7.93C-74.451-8.84-74.061-11.128-73.645-13.416Zm27.482-5.044a2.206,2.206,0,0,0-2.444,2.314c0,2.21-.026,4.862-.026,7.462,0,1.3,0,2.6.026,3.8.052,2.366,2.184,2.392,5.226,2.392,1.508,0,3.146-.052,4.524-.1a2.112,2.112,0,0,0,2.236-1.82c.052-.65.078-1.4.078-2.158,0-.416,0-.832-.026-1.248C-36.6-8.918-37.323-9.854-39.2-9.88c-.832-.026-1.794-.026-2.73-.026-1.534,0-3.068.026-4.238.052V-11.6c.754.026,1.612.052,2.5.052,1.352,0,2.73-.026,3.77-.052,2.5-.078,2.678-1.4,2.678-3.12,0-.65-.052-1.378-.1-2.028a2.038,2.038,0,0,0-2.184-1.716c-.728-.026-1.664-.026-2.678-.026a4.965,4.965,0,0,0,.416-1.508,1.335,1.335,0,0,0-1.482-1.2A1.236,1.236,0,0,0-44.6-20.15a14.937,14.937,0,0,1-.338,1.69Zm-5.85,3.588a1.476,1.476,0,0,0,1.378-1.456c0-1.508-3.484-3.484-4.16-3.484a1.387,1.387,0,0,0-1.378,1.248.92.92,0,0,0,.546.806,8.306,8.306,0,0,1,2.678,2.34A1.167,1.167,0,0,0-52.013-14.872ZM-52.169-1.56c1.69,1.742,3.2,3.172,10.088,3.172,2.34,0,4.706-.156,6.318-.312A1.318,1.318,0,0,0-34.437,0a1.237,1.237,0,0,0-1.274-1.248h-.13c-2.028.156-4.758.442-7.306.442-3.64,0-6.162-.572-7.826-2.626,0-1.664.052-3.458.052-4.966,0-1.664-.78-2.392-2.47-2.444-.858-.026-1.716-.026-2.652-.026A1.177,1.177,0,0,0-57.187-9.62c0,1.066.936,1.092,1.482,1.092h1.144c.936,0,1.2.078,1.2.7V-6.76c0,.988-.026,2-.052,3.172A16.306,16.306,0,0,1-57.057-.91a1.114,1.114,0,0,0-.65.988,1.56,1.56,0,0,0,1.456,1.43C-55.549,1.508-54.2.52-52.169-1.56Zm6.032-12.012v-1.794c0-1.144.13-1.2,2.314-1.2,1.118,0,2.392.026,3.25.026.806,0,.832.39.832,1.664,0,1.352,0,1.352-3.276,1.352C-44.135-13.52-45.305-13.52-46.137-13.572Zm0,5.72c1.378-.052,3.224-.078,4.758-.078h1.4a.822.822,0,0,1,.884.676c.026.26.026.624.026.962,0,.312,0,.65-.026.884-.052.78-.364.78-3.822.78-3.016,0-3.224-.052-3.224-1.2V-7.852Zm36.4,5.564c.078-1.9.1-3.978.1-6.058s-.026-4.134-.1-5.954a2.966,2.966,0,0,0-2.912-2.756c-.546-.026-1.066-.052-1.586-.052s-1.04.026-1.612.052a2.841,2.841,0,0,0-2.86,2.7c-.052,1.9-.078,3.978-.078,6.058s.026,4.16.078,6.084C-18.629.546-16.315.6-14.261.6c.52,0,1.04-.026,1.586-.052A2.968,2.968,0,0,0-9.737-2.288ZM-25.051-13.65c.39,0,.78.026,1.2.026.988,0,1.014.624,1.014,2.262,0,8.71-1.17,9.516-2.6,9.516a2.788,2.788,0,0,1-1.014-.182,1.748,1.748,0,0,0-.468-.078,1.07,1.07,0,0,0-1.014,1.17,1.261,1.261,0,0,0,.91,1.248A7.129,7.129,0,0,0-25.155.6c2.158,0,3.744-1.3,4.238-4.29a65.133,65.133,0,0,0,.52-8.736c0-.962,0-3.432-2.73-3.484h-1.846c.052-1.04.078-2.08.078-3.068v-.676A1.228,1.228,0,0,0-26.221-20.8a1.136,1.136,0,0,0-1.248,1.092v.052c.026.572.026,1.2.026,1.846,0,.624,0,1.274-.026,1.924-.884.026-1.742.026-2.652.052a1.117,1.117,0,0,0-1.118,1.17,1.056,1.056,0,0,0,1.092,1.118h.026c.858,0,1.716-.026,2.574-.052l-.026.208c-.182,3.432-.624,9-4.55,12.74a1.087,1.087,0,0,0-.39.832,1.294,1.294,0,0,0,1.326,1.2A1.567,1.567,0,0,0-30.147.91c4.134-4.108,4.914-10.5,5.07-14.248ZM-12.207-2.964c-.026,1.066-.572,1.222-2.028,1.222-1.82,0-2-.26-2.028-1.144-.078-1.664-.1-3.692-.1-5.72,0-1.846.026-3.666.1-5.148.026-.806.442-1.066,1.144-1.144.286-.026.572-.052.858-.052s.572.026.858.052c.728.078,1.17.208,1.2,1.144.052,1.508.078,3.406.078,5.33S-12.155-4.576-12.207-2.964ZM14.1-2.392a1.445,1.445,0,1,0-1.794-2.262C7.787-1.092,3.159-.832,3-4.628a72.1,72.1,0,0,1,.468-7.644c.13-1.742.312-4.212.364-5.85C3.887-19.838.949-19.994,1-18.07c.052,1.612-.13,4.16-.208,5.85C.663-9.464.377-7.254.481-4.524.715,2.5,9.035,1.742,14.1-2.392ZM34.775.546c2.756.026,2.6-3.042-.13-2.938-5.824.208-7.566-5.252-5.278-9.074a7.493,7.493,0,0,1,3.328-3.042,11.175,11.175,0,0,1,3.874-.728c1.82.1,2.392-.416,2.548-.858a1.533,1.533,0,0,0-1.768-2,35.006,35.006,0,0,0-7.1,1.534c-2.652.754-4.914,1.274-6.188,1.586-.832.208-2.34.494-2.886.624-2.08.442-1.4,3.432.884,2.808a24.666,24.666,0,0,0,2.34-.78c1.768-.676,1.326-.676,3.276-1.3.494-.156.624-.182.208.364a8.984,8.984,0,0,0-.832,1.352C24.219-6.682,26.923.52,34.775.546ZM65.819-7.982a9.974,9.974,0,0,0-3.9-6.032c-1.56-1.17-2.964.754-1.716,1.612a8.2,8.2,0,0,1,2.886,5.044A1.4,1.4,0,1,0,65.819-7.982ZM54.457-3.692a11.9,11.9,0,0,0,1.014-2A1.277,1.277,0,0,0,53.1-6.63,10.224,10.224,0,0,1,52.247-5.1c-.572.78-.91.7-1.586.052-1.456-1.4-1.95-3.978-2.054-6.708-.052-1.2.052-1.248,0-2.262a1.326,1.326,0,1,0-2.652.026,25.9,25.9,0,0,0,.13,2.886c.208,3.276,1.066,6.292,2.938,8.32C50.479-1.222,52.793-.988,54.457-3.692Zm33.9-6.812c1.638.546,2.34-1.742.6-2.366a9.651,9.651,0,0,0-6.24-.13c-1.716.6-.91,2.73.442,2.236A9.143,9.143,0,0,1,88.361-10.5Zm0,10.53a1.35,1.35,0,1,0-.338-2.678c-3.042.26-4.628.39-5.954-.962-1.352-1.378-2.964.676-1.846,1.924C81.367-.416,84.591.78,88.361.026ZM78.663-13.6a16.745,16.745,0,0,0,2.626-1.04,1.241,1.241,0,1,0-1.014-2.236c-.312.182-.624.364-.988.546a7.912,7.912,0,0,0-.026-2.08c-.26-1.43-2.7-1.352-2.6.13a11.331,11.331,0,0,1,.026,2.808,6.95,6.95,0,0,1-3.588-.156c-1.95-.7-2.21,1.664-.884,2.236a7.583,7.583,0,0,0,3.8.364,80.481,80.481,0,0,1-4.55,11.284C70.369.468,73.125,1.222,73.905-.52A102.272,102.272,0,0,0,78.663-13.6Zm37.778-4.03c.884.988,2.366-.624,1.326-1.664a8.383,8.383,0,0,0-2.626-1.508c-1.222-.39-2.158,1.2-.832,1.716A9.369,9.369,0,0,1,116.441-17.628Zm-2.366,2.366c.858,1.014,2.392-.572,1.378-1.664a8.043,8.043,0,0,0-2.574-1.56c-1.2-.442-2.236,1.144-.91,1.69A8.946,8.946,0,0,1,114.075-15.262Zm.156,4.758c1.638.546,2.34-1.742.6-2.366a9.651,9.651,0,0,0-6.24-.13c-1.716.6-.91,2.73.442,2.236A9.143,9.143,0,0,1,114.231-10.5Zm0,10.53a1.35,1.35,0,1,0-.338-2.678c-3.042.26-4.628.39-5.954-.962-1.352-1.378-2.964.676-1.846,1.924C107.237-.416,110.461.78,114.231.026Zm-9.7-13.624a16.746,16.746,0,0,0,2.626-1.04,1.241,1.241,0,1,0-1.014-2.236c-.312.182-.624.364-.988.546a7.912,7.912,0,0,0-.026-2.08c-.26-1.43-2.7-1.352-2.6.13a11.331,11.331,0,0,1,.026,2.808,6.95,6.95,0,0,1-3.588-.156c-1.95-.7-2.21,1.664-.884,2.236a7.583,7.583,0,0,0,3.8.364,80.48,80.48,0,0,1-4.55,11.284C96.239.468,99,1.222,99.775-.52A102.271,102.271,0,0,0,104.533-13.6Zm38.246,5.616a9.974,9.974,0,0,0-3.9-6.032c-1.56-1.17-2.964.754-1.716,1.612a8.2,8.2,0,0,1,2.886,5.044A1.4,1.4,0,1,0,142.779-7.982Zm-11.362,4.29a11.9,11.9,0,0,0,1.014-2,1.277,1.277,0,0,0-2.366-.936,10.224,10.224,0,0,1-.858,1.534c-.572.78-.91.7-1.586.052-1.456-1.4-1.95-3.978-2.054-6.708-.052-1.2.052-1.248,0-2.262a1.326,1.326,0,1,0-2.652.026,25.9,25.9,0,0,0,.13,2.886c.208,3.276,1.066,6.292,2.938,8.32C127.439-1.222,129.753-.988,131.417-3.692Zm33.9-6.812c1.638.546,2.34-1.742.6-2.366a9.651,9.651,0,0,0-6.24-.13c-1.716.6-.91,2.73.442,2.236A9.143,9.143,0,0,1,165.321-10.5Zm0,10.53a1.35,1.35,0,1,0-.338-2.678c-3.042.26-4.628.39-5.954-.962-1.352-1.378-2.964.676-1.846,1.924C158.327-.416,161.551.78,165.321.026Zm-9.7-13.624a16.746,16.746,0,0,0,2.626-1.04,1.241,1.241,0,1,0-1.014-2.236c-.312.182-.624.364-.988.546a7.913,7.913,0,0,0-.026-2.08c-.26-1.43-2.7-1.352-2.6.13a11.331,11.331,0,0,1,.026,2.808,6.95,6.95,0,0,1-3.588-.156c-1.95-.7-2.21,1.664-.884,2.236a7.583,7.583,0,0,0,3.8.364,80.483,80.483,0,0,1-4.55,11.284c-1.092,2.21,1.664,2.964,2.444,1.222A102.271,102.271,0,0,0,155.623-13.6Zm37.336-1.43a1.123,1.123,0,0,0,1.17-1.2,1.158,1.158,0,0,0-1.17-1.222h-8.294v-2.522a1.226,1.226,0,0,0-1.352-1.17,1.226,1.226,0,0,0-1.352,1.17v2.522h-8.424a1.23,1.23,0,0,0-1.222,1.274,1.1,1.1,0,0,0,1.2,1.144h.026l7.982-.052c-.39,5.72-3.068,11.336-9.022,14.144a1.315,1.315,0,0,0-.858,1.17,1.394,1.394,0,0,0,1.43,1.352,1.685,1.685,0,0,0,.754-.182,18.531,18.531,0,0,0,9.36-11.414h4.108a.874.874,0,0,1,.962.962c0,7.514-2.938,8.06-4.212,8.06a7.122,7.122,0,0,1-2.574-.572,1.206,1.206,0,0,0-.494-.1,1.312,1.312,0,0,0-1.2,1.4,1.126,1.126,0,0,0,.78,1.118,11.65,11.65,0,0,0,3.51.624c4.212,0,6.578-2.938,6.786-10.816v-.13a2.532,2.532,0,0,0-2.7-2.73c-1.4,0-2.964,0-4.394.026a27.071,27.071,0,0,0,.416-2.912Zm23.27,2.236a1.272,1.272,0,1,0,.442-2.5,15.7,15.7,0,0,0-6.838.156,1.224,1.224,0,1,0,.364,2.418A13.171,13.171,0,0,1,216.229-12.792Zm1.4,11.856c1.716-.442,1.586-3.2-.52-2.756-2.028.416-5.148.832-6.552-.442a1.287,1.287,0,0,0-1.846,1.794C210.587-.312,214.851-.234,217.633-.936ZM203.879.312c.65-.572.338-1.378.494-2.08a13.11,13.11,0,0,1,1.534-3.64,1.042,1.042,0,0,0-1.82-1.014c-.1.182-.39.7-.442.832-.1.234-.208.312-.286-.026-.624-2.418.936-8.528,1.352-10.634a1.264,1.264,0,1,0-2.522-.156c-.468,3.094-2.522,10.79-.442,15.912C202.267.78,203.229.884,203.879.312Zm24.648,1.612a1.437,1.437,0,0,0,1.4-1.43c0-1.768-4.16-4.056-5.07-4.056a1.157,1.157,0,0,0-1.222,1.144,1.169,1.169,0,0,0,.7,1.04,9.924,9.924,0,0,1,3.2,2.73A1.183,1.183,0,0,0,228.527,1.924Zm-379.2,28.064c1.43,0,2.86.052,4.212.1a1.256,1.256,0,1,0,.078-2.47c-1.378-.026-2.834,0-4.316,0-.026-1.482-.052-2.756-.052-3.484a1.264,1.264,0,1,0-2.522.1c.026.676.078,1.924.13,3.406-2.808.026-5.642.078-8.242.182a1.208,1.208,0,1,0,.078,2.392c2.184-.078,4.5-.156,6.812-.208a23.521,23.521,0,0,1-8.736,8.086c-1.638.858-.364,3.328,1.794,1.95a30.1,30.1,0,0,0,8.45-7.93c.078,2.73.156,5.434.182,6.968.026,1.378-1.352,1.222-2.418.884-1.638-.52-2.6,2.158-.234,2.574,4.082.7,5.2-.936,5.148-2.938-.026-.7-.026-1.144-.078-1.95C-150.514,35.708-150.618,32.718-150.67,29.988Zm32.266-1.326a1.417,1.417,0,1,0-2.366-1.534c-2.626,5.1-7.878,10.478-13.1,11.8a1.488,1.488,0,1,0,.884,2.808C-127.01,39.842-121.628,34.512-118.4,28.662Zm-10.842,2.106a1.537,1.537,0,0,0-.338-2.158,16.49,16.49,0,0,0-4.576-1.976c-1.976-.546-2.626,2.08-1.066,2.444A9.6,9.6,0,0,1-131.378,31,1.377,1.377,0,0,0-129.246,30.768Zm33.02-5.72a1.269,1.269,0,0,0-1.4-1.2c-2.626.026-6.266.026-8.762,0-2-.026-1.9,2.366-.182,2.418,2.808.078,6.4,0,8.84,0C-96.668,26.27-96.226,25.672-96.226,25.048Zm1.664,7.644c1.066-2.548-.208-4-2.808-4.03-3.536-.026-7.9,0-11.258.078a1.24,1.24,0,1,0,.078,2.444c2.782-.1,7.618-.182,10.27-.13.988.026,1.118.442.858,1.144-1.17,3.3-4.472,6.448-9.594,7.826-2.08.546-1.118,3.12,1.014,2.47C-99.554,40.518-96.382,37.034-94.562,32.692Zm17.576-.39c-.026,3.042-.13,7.28-.156,9.36a1.376,1.376,0,1,0,2.73-.078c-.078-2.6-.026-9.412.052-12.064,1.118-1.3,2.236-2.7,3.406-4.264a1.355,1.355,0,1,0-2.314-1.378A34.539,34.539,0,0,1-85.956,35.63c-1.768.858-.416,3.51,1.976,2.054A38.01,38.01,0,0,0-76.986,32.3Zm35.8-3.64a1.417,1.417,0,1,0-2.366-1.534c-2.626,5.1-7.878,10.478-13.1,11.8a1.488,1.488,0,1,0,.884,2.808C-49.79,39.842-44.408,34.512-41.184,28.662Zm-10.842,2.106a1.537,1.537,0,0,0-.338-2.158,16.489,16.489,0,0,0-4.576-1.976c-1.976-.546-2.626,2.08-1.066,2.444A9.6,9.6,0,0,1-54.158,31,1.377,1.377,0,0,0-52.026,30.768ZM-24.44,29.7a1.4,1.4,0,0,0-.13-2.028,14.222,14.222,0,0,0-3.458-2.158c-1.768-.78-2.808,1.534-1.326,2.132a9.1,9.1,0,0,1,2.834,2A1.388,1.388,0,0,0-24.44,29.7Zm10.036-.728c1.144-2.054-1.456-3.12-2.314-1.508-2.73,5.174-8.5,10.894-13.676,12.3a1.419,1.419,0,1,0,.858,2.678C-23.634,40.492-17.732,34.928-14.4,28.974Zm-13.13,4.862a1.405,1.405,0,0,0-.6-1.95,13.15,13.15,0,0,0-3.8-1.3c-1.9-.364-2.392,2.106-.832,2.366a9.117,9.117,0,0,1,3.224,1.326A1.346,1.346,0,0,0-27.534,33.836ZM3.848,36.618c0,.624-.026,1.2-.052,1.586a.817.817,0,0,1-.858.78c-1.4.1-5.148.1-7.176.026a1.136,1.136,0,1,0,.026,2.262c1.95,0,5.33-.026,7.358-.13C4.6,41.064,6.058,40.6,6.11,38.568c.026-1.69,0-4.42,0-5.564a2.406,2.406,0,0,0-2.626-2.6c-1.9-.052-5.408,0-7.514.078-1.69.078-1.638,2.236.078,2.158,1.95-.078,5.122-.208,6.786-.156.572.026.936.234.962.806,0,.286.026.7.026,1.222-1.872,0-5.486.1-7.254.1-.858,0-1.352.468-1.326,1.04A1.151,1.151,0,0,0-3.51,36.67C-1.794,36.7,1.378,36.67,3.848,36.618Zm22.8-3.328a11.143,11.143,0,0,0-1.56-2.574c-1.066-1.274-2.808.156-1.872,1.2A6.882,6.882,0,0,1,24.44,34.1,1.18,1.18,0,1,0,26.65,33.29Zm-4.42,9.776A16.954,16.954,0,0,0,31.72,31.86a1.268,1.268,0,1,0-2.444-.676,13.919,13.919,0,0,1-8.19,9.828,1.154,1.154,0,0,0-.65,1.56A1.247,1.247,0,0,0,22.23,43.066Zm.832-8.684a9.809,9.809,0,0,0-1.924-2.314c-1.222-1.092-2.73.546-1.664,1.456a6.8,6.8,0,0,1,1.482,2A1.2,1.2,0,1,0,23.062,34.382Zm40.17-10.894a2.743,2.743,0,1,0-5.486,0,2.743,2.743,0,0,0,5.486,0Zm-17,18.9c7.28-2.782,10.452-7.826,12.272-13.026.754-2.132-.728-3.718-2.834-3.744-3.3-.052-8.164-.026-11.6.13a1.288,1.288,0,1,0,.052,2.574c3.744-.13,7.852-.286,10.4-.208.962.026,1.04.676.832,1.378A16.088,16.088,0,0,1,45.032,39.868C43.056,40.492,44.018,43.222,46.228,42.39ZM61.8,23.488a1.326,1.326,0,0,1-2.652,0,1.326,1.326,0,1,1,2.652,0ZM87.438,31.08c.936,1.04,2.47-.676,1.378-1.768a8.626,8.626,0,0,0-2.756-1.56c-1.274-.416-2.288,1.248-.884,1.794A9.128,9.128,0,0,1,87.438,31.08ZM84.76,33.446c.91,1.066,2.522-.6,1.456-1.742a8.491,8.491,0,0,0-2.73-1.638c-1.274-.468-2.314,1.144-.936,1.742A9.954,9.954,0,0,1,84.76,33.446Zm-2.5,9.1c2.756.026,2.574-3.042-.156-2.938-5.824.208-7.566-5.252-5.278-9.074a7.566,7.566,0,0,1,3.354-3.042,11.021,11.021,0,0,1,3.848-.728c1.82.1,2.392-.416,2.548-.858a1.533,1.533,0,0,0-1.768-2,34.788,34.788,0,0,0-7.072,1.534c-2.652.754-4.94,1.274-6.214,1.586-.832.208-2.34.494-2.886.624-2.08.442-1.378,3.432.91,2.808a24.665,24.665,0,0,0,2.34-.78c1.768-.676,1.326-.676,3.276-1.3.494-.156.624-.182.208.364a8.985,8.985,0,0,0-.832,1.352C71.708,35.318,74.412,42.52,82.264,42.546ZM113.178,26.14a1.105,1.105,0,1,0,0-2.21h-5.564c0-.624-.026-1.248-.026-1.9a1.218,1.218,0,0,0-1.222-1.222,1.13,1.13,0,0,0-1.118,1.248v.026l.026,1.846h-5.1a1.105,1.105,0,1,0,0,2.21h5.1v1.586c-1.17,0-2.288.026-3.2.052a2.3,2.3,0,0,0-2.444,2c-.026.364-.026.832-.026,1.326,0,.468,0,.962.026,1.378a2.273,2.273,0,0,0,2.444,2.106c.91.026,1.976.078,3.12.078a8.864,8.864,0,0,1-.806,2.73,9.344,9.344,0,0,1-1.144-1.4.646.646,0,0,0,.026-.208.891.891,0,0,0-.988-.806.947.947,0,0,0-.832.416,6.026,6.026,0,0,1-2.236,2.08,1.08,1.08,0,0,0-.65.962,1.219,1.219,0,0,0,1.2,1.144c.286,0,.858-.1,2.106-1.872a12.594,12.594,0,0,0,1.248,1.43,8.816,8.816,0,0,1-4.5,2.236,1.141,1.141,0,0,0-.988,1.092,1.242,1.242,0,0,0,1.222,1.248,12.219,12.219,0,0,0,6.032-3.068,15.849,15.849,0,0,0,8.424,2.834,1.375,1.375,0,0,0,1.534-1.326,1.139,1.139,0,0,0-1.2-1.17,13.943,13.943,0,0,1-7.462-2.132,11.347,11.347,0,0,0,1.274-4.186c1.17,0,2.288-.026,3.25-.078,1.586-.078,2.574-.91,2.678-2.132.026-.416.052-.988.052-1.586a9.815,9.815,0,0,0-.052-1.248c-.1-1.092-1.222-1.794-2.548-1.846-.936-.052-2.054-.078-3.224-.078V26.14ZM94.588,42.728a1.124,1.124,0,0,0,1.222,1.144,1.2,1.2,0,0,0,1.274-1.17l.312-15.99a19.56,19.56,0,0,0,2.08-4.628,1.378,1.378,0,0,0-1.43-1.248,1.146,1.146,0,0,0-1.144.858,23.644,23.644,0,0,1-5.746,9.49,1.322,1.322,0,0,0-.416.91,1.16,1.16,0,0,0,1.17,1.144c.494,0,1.066-.13,2.964-2.652L94.588,42.7ZM107.614,29.7c3.51,0,3.536,0,3.536,1.456,0,1.508,0,1.56-3.562,1.56.026-.858.026-1.716.026-2.522Zm-2.34.364c0,.65.078,1.586.078,2.652-2.964,0-3.406-.078-3.458-.728-.026-.234-.026-.546-.026-.832,0-.988.156-1.378.884-1.4s1.586-.052,2.522-.052Zm25.48-4c1.794.624,3.042-1.716,1.144-2.366a15.8,15.8,0,0,1-3.25-1.56c-1.534-.962-3.094.728-1.768,1.794A16.586,16.586,0,0,0,130.754,26.062Zm-4.03,11.18c1.3-1.3,5.226-4.914,6.448-6.214,1.352-1.4-.234-3.354-2.392-3.068a9.294,9.294,0,0,0-2.028.676,27.4,27.4,0,0,1-4.576,1.222c-1.794.26-1.43,2.964.78,2.47a25.941,25.941,0,0,0,5.356-2.054c.234-.1.416-.156.13.182-1.3,1.508-2.99,3.25-4.186,4.42-.832.806-1.56,1.612-2.47,2.418a41.83,41.83,0,0,0-3.12,3.276c-1.144,1.3.026,2.158.884,2.106.52-.026,1.274-.156,2.184-1.612,1.69-2.7,3.614-2.5,4.186-1.092a3.966,3.966,0,0,0,3.406,2.678,13.8,13.8,0,0,0,5.9-.624c2.08-.78,1.144-3.458-.832-2.574a12.991,12.991,0,0,1-4.108.832,2.379,2.379,0,0,1-2.314-1.716A2.459,2.459,0,0,0,126.724,37.242Zm29.536,2.834a3.689,3.689,0,0,0-4.108-3.51c-3.068.1-4.29,3.328-1.534,5.122,1.976,1.3,6.032,1.2,8.606-.65,2.73-1.976,3.952-6.552.208-8.788a7.966,7.966,0,0,0-7.306.078c.936-.91,1.976-1.846,3.016-2.808s2.08-1.976,2.912-2.912c1.3-1.456-.416-3.3-2.5-2.7a40.2,40.2,0,0,1-5.72,1.274c-1.768.208-1.378,2.782.676,2.34a20.829,20.829,0,0,0,4.368-1.326c.208-.1.468-.208.182.156a92.11,92.11,0,0,1-7.852,8.4c-1.612,1.586.988,3.12,1.924,1.742a5.716,5.716,0,0,1,2.184-1.95c2.626-1.534,5.434-1.352,6.786-.442,1.482.988,1.56,3.458-.338,5.148A3.5,3.5,0,0,1,156.26,40.076Zm-2.21.39a4.678,4.678,0,0,1-2.184-.39c-.832-.442-.78-1.508.364-1.612S154.076,39.27,154.05,40.466Zm-311.22,37.19c0-2.834-1.638-5.98-6.292-5.98a9.543,9.543,0,0,0-1.95.182,5.232,5.232,0,0,1-.6.13c-.156,0-.208-.078-.208-.286V71.52c.078-.52.468-2.6.6-3.51.078-.468.286-.7.78-.7.78,0,4.29.026,5.018.026a1.281,1.281,0,0,0,1.326-1.326,1.342,1.342,0,0,0-1.378-1.4c-4.264,0-4.654,0-5.408-.026h-.182a2.157,2.157,0,0,0-2.522,2.08c-.39,2.288-.91,6.318-.91,6.526,0,1.248.728,1.768,1.872,1.768.13,0,.26-.026.39-.026a3.372,3.372,0,0,0,1.014-.364,6.681,6.681,0,0,1,2.054-.364A3.357,3.357,0,0,1-160,77.682a3.912,3.912,0,0,1-4.134,3.952,5.417,5.417,0,0,1-3.562-1.352,1.459,1.459,0,0,0-.91-.39,1.441,1.441,0,0,0-1.352,1.482c0,1.716,3.3,2.964,5.694,2.964C-160,84.338-157.17,81.452-157.17,77.656Zm9.308,6.838c6.292,0,6.526-7.072,6.526-10.01,0-1.118-.078-2.262-.182-3.406-.416-4.342-2.86-6.734-6.344-6.734-3.536,0-6.006,2.5-6.37,7.02-.078,1.066-.13,2.08-.13,3.068,0,1.092.052,2.184.156,3.3C-153.79,82.1-151.32,84.494-147.862,84.494Zm0-2.73c-1.69,0-3.094-1.534-3.406-4.186a26.936,26.936,0,0,1-.182-3.25c0-.936.052-1.9.13-2.86.26-2.782,1.638-4.446,3.458-4.446,3.562,0,3.562,5.148,3.562,7.15a27.735,27.735,0,0,1-.234,3.666C-144.9,80.308-146.25,81.764-147.862,81.764Zm15.6,2.73c6.292,0,6.526-7.072,6.526-10.01,0-1.118-.078-2.262-.182-3.406-.416-4.342-2.86-6.734-6.344-6.734-3.536,0-6.006,2.5-6.37,7.02-.078,1.066-.13,2.08-.13,3.068,0,1.092.052,2.184.156,3.3C-138.19,82.1-135.72,84.494-132.262,84.494Zm0-2.73c-1.69,0-3.094-1.534-3.406-4.186a26.933,26.933,0,0,1-.182-3.25c0-.936.052-1.9.13-2.86.26-2.782,1.638-4.446,3.458-4.446,3.562,0,3.562,5.148,3.562,7.15a27.735,27.735,0,0,1-.234,3.666C-129.3,80.308-130.65,81.764-132.262,81.764Zm28.184-.234c0,1.144-.78,1.482-1.82,1.482a9.276,9.276,0,0,1-1.612-.182.72.72,0,0,0-.234-.026,1.161,1.161,0,0,0-1.092,1.274c0,1.378,1.274,1.482,2.86,1.482,3.51,0,4.576-1.95,4.576-3.484v-.052l-.052-3.666c-.052-2.938,0-7.2-.1-11.024a3.106,3.106,0,0,0-3.172-2.964c-2.08-.052-4.394-.052-6.682-.052s-4.524,0-6.526.052c-1.976.026-3.25,1.118-3.276,2.756-.026,1.612-.156,9.282-.156,17.654a1.223,1.223,0,0,0,1.352,1.144,1.191,1.191,0,0,0,1.3-1.144v-.026c-.026-2.184-.026-4.342-.026-6.448v-2.6h14.664Zm-6.006-8.06V66.554c1.43,0,2.834.026,4.108.052s1.768.234,1.82,1.664.078,3.276.078,5.174Zm-2.6,0-6.032-.026c.026-1.794.026-3.536.078-5.174.026-1.274.416-1.638,1.9-1.664,1.144-.026,2.548-.052,4.056-.052Zm33.384,11.1c0,.728.676,1.092,1.352,1.092S-76.6,85.3-76.6,84.572V64.552a1.232,1.232,0,0,0-1.378-1.144A1.2,1.2,0,0,0-79.3,64.552Zm-8.918-18.616c.832,0,.936.234.936,1.586,0,1.17-.208,1.4-.936,1.4-.39,0-3.692-.078-4.082-.078h-.1c-2,0-2.652.754-3.484,5.1a4.28,4.28,0,0,0-.052.546c0,1.04.624,1.768,2.34,1.768.6,0,3.3-.078,4.784-.078,1.17,0,1.794.026,1.794.936a8.521,8.521,0,0,1-.988,3.64,4.016,4.016,0,0,1-3.744,1.82,8.921,8.921,0,0,1-2.262-.312,3.062,3.062,0,0,0-.65-.1,1.314,1.314,0,0,0-1.4,1.3,1.36,1.36,0,0,0,1.144,1.326,13.418,13.418,0,0,0,2.99.364c2.86,0,5.356-1.066,6.526-3.562a12.951,12.951,0,0,0,1.04-4.81c0-2.7-2.054-2.782-4.576-2.782-1.378,0-3.094.026-3.692.052-.234,0-.546-.078-.546-.468a12.4,12.4,0,0,1,.442-1.95c.13-.364.416-.546.988-.546.26,0,3.666.052,4.134.052,1.82,0,2.886-.832,2.938-2.418.026-.39.026-.832.026-1.3,0-2.47-.156-3.77-2.964-3.8-.91,0-3.718-.026-5.408-.026h-1.014a1.151,1.151,0,0,0-1.17,1.2,1.1,1.1,0,0,0,1.118,1.144Zm33.046,8.268a16.392,16.392,0,0,0,2.054-.858c1.456-.728.338-3.12-1.482-2.08a13.623,13.623,0,0,1-1.95.832,21.564,21.564,0,0,1-1.118-2.184,16.642,16.642,0,0,0,2.08-.806c1.378-.65.39-2.938-1.326-2.028a9.965,9.965,0,0,1-1.638.7,22.437,22.437,0,0,0-1.872-3.926c-.936-1.274-3.692-.286-2.236,1.352a13.422,13.422,0,0,1,1.872,3.146,14.423,14.423,0,0,1-3.224.156c-2.08-.156-1.56,2.366.13,2.366a20.422,20.422,0,0,0,4.134-.416c.416.806.832,1.56,1.222,2.236A12.664,12.664,0,0,1-63,73.08c-2.21-.286-1.976,2.366-.182,2.5a18.753,18.753,0,0,0,5.98-.7c.182.286.39.52.572.78,1.508,2.028,1.092,2.418-.312,2.236-1.716-.208-4.914-.416-6.838.572-2.912,1.482-2.184,5.122.884,6.422a10.719,10.719,0,0,0,5.148.884c2.34-.208,2.184-3.094-.13-2.652a7.178,7.178,0,0,1-4.212-.39c-1.2-.494-1.742-1.872-.39-2.522,1.82-.884,5.512-.364,6.89.442,1.17.676,2.418.442,2.678-.91.286-1.482-.754-3.562-1.69-4.758C-54.782,74.718-54.99,74.484-55.172,74.224Zm23.166-6.89c1.222-1.742-1.378-2.99-2.236-1.534-1.2,2.054-4.576,6.838-7.072,8.372-1.768,1.092-.234,3.328,1.508,2.158,1.794-1.222,4.082-3.952,5.85-6.292,1.17-.13,3.068-.312,4.16-.338.624-.026.832.468.624.962-1.924,4.42-6.214,9.62-11.986,11.622-2.158.754-1.092,3.3,1.118,2.444,7.306-2.886,10.894-8.164,14.066-14.222.962-1.846-.78-3.25-2.782-3.146-1.04.052-2.314.156-3.432.234ZM.78,75.42a1.288,1.288,0,1,0,0-2.574H-15.548a1.326,1.326,0,0,0-1.378,1.326,1.252,1.252,0,0,0,1.378,1.248ZM27.9,66.45a2.691,2.691,0,1,0-5.382,0,2.691,2.691,0,0,0,5.382,0Zm-.442,14.326a1.4,1.4,0,0,0,.416-1.872A14.461,14.461,0,0,0,23.4,75.082c-1.482-.884-2.73,1.092-1.456,1.846a13.549,13.549,0,0,1,3.8,3.536A1.137,1.137,0,0,0,27.456,80.776ZM17.29,72.69c.026,2.73.026,5.694,0,7.54-.026,1.43-1.17,1.274-2.236.936-1.586-.52-2.6,2.158-.286,2.574,3.718.65,4.966-.91,4.966-2.964,0-.728,0-1.144-.026-1.976-.078-1.794-.1-4.03-.078-6.136,1.95,0,3.9,0,5.824.1a1.243,1.243,0,1,0,.1-2.444c-1.924-.026-3.9-.052-5.9-.026.026-1.352.052-2.548.078-3.354a1.252,1.252,0,1,0-2.5.1c.026.728.026,1.9.026,3.276-2.106.026-4.238.1-6.292.182a1.208,1.208,0,1,0,.052,2.392C13.1,72.82,15.21,72.742,17.29,72.69Zm-6.708,8.762a16.192,16.192,0,0,0,3.952-4.628,1.173,1.173,0,1,0-2-1.222,12.9,12.9,0,0,1-3.458,3.692,1.284,1.284,0,0,0-.338,1.846A1.323,1.323,0,0,0,10.582,81.452Zm15.912-15a1.3,1.3,0,1,1-1.3-1.3A1.321,1.321,0,0,1,26.494,66.45Zm27.56,4.212a1.417,1.417,0,1,0-2.366-1.534c-2.626,5.1-7.878,10.478-13.1,11.8a1.488,1.488,0,1,0,.884,2.808C45.448,81.842,50.83,76.512,54.054,70.662ZM43.212,72.768a1.537,1.537,0,0,0-.338-2.158A16.489,16.489,0,0,0,38.3,68.634c-1.976-.546-2.626,2.08-1.066,2.444A9.6,9.6,0,0,1,41.08,73,1.377,1.377,0,0,0,43.212,72.768ZM70.928,66.32a4.916,4.916,0,0,0,.208-1.508c-.052-1.274-2.5-1.43-2.6.13a10.847,10.847,0,0,1-.286,2.184c-.13.026-.286.026-.39.052a4,4,0,0,1-2.444-.052c-1.82-1.222-3.094,1.222-1.222,2.158a5.251,5.251,0,0,0,3.224.286A21.675,21.675,0,0,1,66.2,71.884a12.978,12.978,0,0,1-2.106,2.444c-1.56,1.4.338,2.886,1.768,1.612a5.7,5.7,0,0,0,.6-.676l.1-.1c1.69-1.95,3.692-2.21,4.394-.026-.494.286-.91.572-1.274.806-4.706,3.094-5.33,6.6-1.82,8.58,2.028,1.144,5.564.754,7.1.364,2.392-.624,1.664-3.432-.624-2.73-1.222.39-3.77.91-5.148.208-1.456-.728-1.846-2.288,1.378-4.368.208-.13.442-.26.676-.39,0,.546-.026,1.144-.052,1.69-.078,1.014.52,1.508,1.17,1.482a1.537,1.537,0,0,0,1.378-1.612,20.773,20.773,0,0,0-.052-2.86c1.04-.494,2.21-1.014,3.3-1.43,1.378-.52,1.976-.65,2.808-1.066a1.386,1.386,0,1,0-1.456-2.34,19.969,19.969,0,0,1-2.028.962c-1.014.442-2.106.988-3.172,1.534A3.789,3.789,0,0,0,68.77,71.7a26.53,26.53,0,0,0,1.248-2.626,14.622,14.622,0,0,0,2.86-.858c1.924-.962.52-3.12-.91-2.262a9.145,9.145,0,0,1-1.092.468Zm33.67,10.3a.9.9,0,1,0,0-1.794h-3.2v-1.9h3.2a.9.9,0,1,0,0-1.794h-3.2v-1.9c1.456,0,2.886,0,4.056.026h.026a.989.989,0,1,0,.026-1.976c-1.17,0-2.626-.026-4.134-.026a13.421,13.421,0,0,0,1.144-2.7c0-.6-.728-1.014-1.4-1.014a.942.942,0,0,0-.962.6,25.2,25.2,0,0,1-1.066,2.834,1.6,1.6,0,0,0-.078.286c-.884,0-1.716.026-2.5.026a12.5,12.5,0,0,0,1.17-2.7,1.191,1.191,0,0,0-1.274-1.066,1.049,1.049,0,0,0-1.04.7,16.883,16.883,0,0,1-3.744,6.162,1.068,1.068,0,0,0-.39.78,1.1,1.1,0,0,0,1.17.988,2.041,2.041,0,0,0,1.3-.754c-.052,1.95-.1,4.758-.1,6.578,0,1.56.078,3.2,2.574,3.25,1.482.026,3.276.026,5.018.026s3.432,0,4.732-.026a1,1,0,0,0,.988-1.066.967.967,0,0,0-.988-1.04c-1.248,0-2.886.052-4.524.052V76.616ZM90.376,69a1.518,1.518,0,0,0,1.4-1.456c0-1.326-3.25-3.328-4.03-3.328a1.331,1.331,0,0,0-1.326,1.17.909.909,0,0,0,.52.806,7.764,7.764,0,0,1,2.548,2.262A1.027,1.027,0,0,0,90.376,69Zm-.13,13.416c2.444,2.522,4.576,3.2,10.218,3.2,2.366,0,4.758-.156,6.4-.312a1.294,1.294,0,0,0,1.3-1.3,1.214,1.214,0,0,0-1.248-1.248h-.13c-1.976.156-4.81.442-7.41.442-3.614,0-6.292-.546-7.93-2.626,0-1.664.1-3.432.1-4.94,0-1.664-.78-2.392-2.444-2.444-.858-.026-1.586-.026-2.522-.026a1.114,1.114,0,0,0-1.092,1.17c0,1.092.936,1.118,1.43,1.118h1.014c.884,0,1.2.078,1.2.754v.546c0,1.144-.052,2.314-.1,3.692a12.444,12.444,0,0,1-3.484,2.7,1.114,1.114,0,0,0-.65.988,1.47,1.47,0,0,0,1.43,1.378C87.334,85.508,88.946,83.87,90.246,82.414ZM99.138,71.13H95.966c0-.39.026-.728.026-.988.026-.65.364-.884.754-.884h2.392Zm0,3.692H95.914v-1.9h3.224Zm0,4.342c-2.678,0-3.224,0-3.224-1.014V76.616h3.224Zm31.408-9.776c.026-.6.052-1.274.052-1.95,0-.52-.026-1.04-.052-1.482a2.732,2.732,0,0,0-2.756-2.366c-1.716-.052-3.562-.052-5.33-.052-1.794,0-3.51,0-5.018.052a2.617,2.617,0,0,0-2.886,2.6c-.026.494-.026,1.144-.026,1.794,0,.494,0,.988.026,1.456a2.727,2.727,0,0,0,2.938,2.678c1.456.052,3.172.078,4.94.078s3.588-.026,5.226-.078A2.851,2.851,0,0,0,130.546,69.388Zm2.106,15.288a1.106,1.106,0,0,0,0-2.21l-8.97.026V80.126h5.9a.959.959,0,0,0,.988-1.014.946.946,0,0,0-.988-1.014h-5.9V75.992l7.176.026a1.036,1.036,0,0,0,1.066-1.066,1.022,1.022,0,0,0-1.066-1.066H114.27a1.043,1.043,0,0,0-1.092,1.066,1.029,1.029,0,0,0,1.092,1.066l7.02-.026V78.1h-5.746a1.018,1.018,0,0,0-1.092,1.014,1,1,0,0,0,1.092,1.014h5.746v2.366l-8.71-.026a1.105,1.105,0,1,0,0,2.21Zm-5.8-14.742c-1.3.026-2.86.052-4.394.052-1.508,0-3.016-.026-4.238-.052-1.2-.052-1.248-.754-1.248-2.106,0-1.482.208-2.08,1.222-2.106,1.378-.026,3.042-.052,4.706-.052,1.352,0,2.7.026,3.9.052,1.274.026,1.274.858,1.274,2.054C128.076,68.946,128.076,69.882,126.854,69.934ZM147.186,84.65a1.165,1.165,0,0,0,1.3,1.066c.676,0,1.326-.364,1.326-1.066V77.708c2.028,0,4.03-.052,5.928-.13a2.839,2.839,0,0,0,2.808-2.652c.052-.78.078-1.716.078-2.626,0-.806-.026-1.586-.078-2.21a2.866,2.866,0,0,0-2.678-2.47c-1.872-.052-3.952-.078-6.058-.078V63.85a1.214,1.214,0,0,0-1.326-1.144,1.191,1.191,0,0,0-1.3,1.144v3.692c-2.08,0-4.108.026-5.9.078a2.721,2.721,0,0,0-2.808,2.678c-.026.7-.052,1.456-.052,2.236,0,.806.026,1.612.052,2.418a2.71,2.71,0,0,0,2.86,2.626c1.82.078,3.822.1,5.85.13Zm2.626-14.768c1.794,0,3.536.026,4.966.078,1.274.026,1.326.546,1.326,2.652,0,2.028-.052,2.6-1.3,2.652-1.534.052-3.25.078-4.992.1Zm-2.626,5.512c-1.768,0-3.458-.052-4.914-.13-1.352-.052-1.352-.858-1.352-2.5,0-.6.026-1.222.052-1.716a1.2,1.2,0,0,1,1.274-1.092c1.4-.026,3.12-.078,4.94-.078Zm19.162,3.536a1.243,1.243,0,0,0,1.222-1.378V77.11c0-2.392.338-8.034.338-11.076a1.464,1.464,0,0,0-1.534-1.508,1.389,1.389,0,0,0-1.482,1.43v.078c.13,4,.338,8.71.338,11v.7A1.1,1.1,0,0,0,166.348,78.93Zm1.872,3.484a1.726,1.726,0,0,0-1.82-1.846,1.813,1.813,0,0,0-1.82,1.846,1.832,1.832,0,0,0,1.82,1.768A1.764,1.764,0,0,0,168.22,82.414Z" transform="translate(245.973 21.19)" fill="#fff"/>
</svg>
