<svg xmlns="http://www.w3.org/2000/svg" width="335.517" height="31.557" viewBox="0 0 335.517 31.557">
  <path id="パス_208" data-name="パス 208" d="M1.2-8.957v.273c0,1.287-.052,4.134-.052,5.915,0,.481,0,.9.013,1.17C1.2-.455,1.911-.026,3.107.065c.169.013.936.026,1.69.026S6.331.078,6.5.065a.767.767,0,0,0,.819-.741.68.68,0,0,0-.7-.689H6.552c-.247.013-1.079.026-1.833.026-1.768,0-2.054,0-2.106-.624-.013-.221-.026-.806-.026-1.547,0-1.807.039-4.55.078-5.382v-.052a.737.737,0,0,0-.741-.793A.72.72,0,0,0,1.2-8.97ZM10.413-.6c-.026-1.6-.039-3.289-.039-4.914,0-1.261.013-2.483.039-3.562V-9.1a.687.687,0,0,0-.767-.637c-.234,0-.819.143-.793.689.039,1.053.065,2.236.065,3.471,0,1.677-.039,3.419-.065,4.979v.013A.715.715,0,0,0,9.633.1a.715.715,0,0,0,.78-.689ZM12.7-.507a.674.674,0,0,0,.754.624c.377,0,.741-.2.741-.611V-.52c-.039-1.378-.078-5.213-.078-6.565,0-.6,0-.728.078-.728s.156.169.208.247c.7,1.183,3.133,5.629,4.043,7.072a1.325,1.325,0,0,0,1.118.65,1.175,1.175,0,0,0,1.183-1.235v-.026c-.026-1.131-.039-2.834-.039-4.485,0-1.3.013-2.561.039-3.471v-.026a.7.7,0,0,0-.754-.676.7.7,0,0,0-.754.7c.039,1.2.078,5.252.078,6.474,0,.507-.052.546-.091.546s-.1-.065-.182-.182c-.988-1.482-3.159-5.538-3.978-6.838a1.57,1.57,0,0,0-1.274-.7c-.572,0-1.079.364-1.079,1.274v.052c.013.975.026,2.21.026,3.51,0,1.5-.013,3.068-.039,4.407ZM28.106-8.424a.716.716,0,0,0,.767-.7.693.693,0,0,0-.728-.689c-.195-.013-.91-.026-1.651-.026s-1.469.013-1.7.026a1.616,1.616,0,0,0-1.755,1.638C23.01-7.358,23-5.59,23-4c0,1.053,0,2.015.026,2.561C23.075-.3,23.816.13,25.012.221c.169.013.923.026,1.664.026S28.184.234,28.353.221a.758.758,0,0,0,.819-.728.659.659,0,0,0-.7-.663h-.065c-.247.013-1.079.026-1.846.026-1.833,0-2.041-.026-2.106-.624-.026-.221-.039-.52-.039-2.457,0-.273.13-.286,1.742-.286.494,0,.988.013,1.313.039h.065a.689.689,0,0,0,.689-.741A.654.654,0,0,0,27.5-5.9c-.234.013-.858.013-1.456.013-1.6,0-1.612,0-1.612-.26.013-.754,0-1.391.026-1.7.039-.559.312-.585,1.612-.585C26.949-8.437,28.106-8.424,28.106-8.424ZM41.34-5.46c.468.52,1.235-.338.689-.884a4.313,4.313,0,0,0-1.378-.78c-.637-.208-1.144.624-.442.9A4.564,4.564,0,0,1,41.34-5.46ZM40-4.277c.455.533,1.261-.3.728-.871a4.245,4.245,0,0,0-1.365-.819c-.637-.234-1.157.572-.468.871A4.977,4.977,0,0,1,40-4.277ZM38.753.273c1.378.013,1.287-1.521-.078-1.469-2.912.1-3.783-2.626-2.639-4.537a3.783,3.783,0,0,1,1.677-1.521,5.511,5.511,0,0,1,1.924-.364c.91.052,1.2-.208,1.274-.429a.767.767,0,0,0-.884-1,17.394,17.394,0,0,0-3.536.767c-1.326.377-2.47.637-3.107.793-.416.1-1.17.247-1.443.312-1.04.221-.689,1.716.455,1.4a12.333,12.333,0,0,0,1.17-.39c.884-.338.663-.338,1.638-.65.247-.078.312-.091.1.182a4.492,4.492,0,0,0-.416.676A4.13,4.13,0,0,0,38.753.273ZM54.5-6.032a.632.632,0,0,0-.013-.923,3.983,3.983,0,0,0-2.7-.741.578.578,0,1,0,.065,1.144,2.428,2.428,0,0,1,1.716.533A.656.656,0,0,0,54.5-6.032ZM48.269-3.419a6.607,6.607,0,0,1,1.365-.494,3.631,3.631,0,0,1,2.106.026,1.038,1.038,0,0,1,.455,1.755c-.624.832-1.456.819-2.47.325a.62.62,0,1,0-.559,1.1,3.175,3.175,0,0,0,4.173-.78A2.11,2.11,0,0,0,52.208-4.94a4.988,4.988,0,0,0-2.886-.013,8,8,0,0,0-1.092.4c-.013-.494-.013-.975,0-1.378a7.515,7.515,0,0,0,1.222-.585c.91-.546.117-1.573-.585-1.105a3.906,3.906,0,0,1-.52.3c.026-.39.039-.806.065-1.092A.658.658,0,1,0,47.1-8.4c.026.494.052.91.052,1.521a3.245,3.245,0,0,1-1.313.117c-1.079-.221-1.235,1.079-.273,1.2a4.874,4.874,0,0,0,1.56-.052c0,.52.013,1.079.026,1.625a8.373,8.373,0,0,0-1.833,1.378c-.689.754-1.118,1.677.429,2.431,1.066.52,2.73.546,2.626-1.313C48.347-2.054,48.3-2.73,48.269-3.419Zm-1.1.65c.013.533.013,1.014,0,1.365-.013.507-.39.546-.949.273-.3-.143-.3-.481-.026-.78A6.382,6.382,0,0,1,47.164-2.769Zm19.76-4.576a.559.559,0,0,0,.6-.572.59.59,0,0,0-.6-.611H61.789A14.028,14.028,0,0,0,61.919-10c0-.377-.377-.585-.741-.585A.6.6,0,0,0,60.5-10a14.352,14.352,0,0,1-.065,1.469h-3.12a.607.607,0,0,0-.624.624.558.558,0,0,0,.624.559h2.964C59.852-4.81,58.747-2.184,56.68-.7a.653.653,0,0,0-.312.52.661.661,0,0,0,.676.611.811.811,0,0,0,.507-.182,10.251,10.251,0,0,0,3.068-4.368,8.17,8.17,0,0,0,1.443,2.093,7.344,7.344,0,0,1-3.237,1.69.607.607,0,0,0-.533.572.681.681,0,0,0,.7.65A8.017,8.017,0,0,0,62.92-1.209,7.859,7.859,0,0,0,66.95.78a.775.775,0,0,0,.806-.754.623.623,0,0,0-.572-.611A7.993,7.993,0,0,1,63.765-2.08c.637-.741,1.716-2.314,1.716-3.094,0-.572-.416-.962-1.144-.962-.624,0-2.119.013-3.042.026.1-.4.208-.819.286-1.235ZM62.855-2.873a6.713,6.713,0,0,1-1.482-2.184h2.444a.181.181,0,0,1,.208.2A6.632,6.632,0,0,1,62.855-2.873ZM80.171-8.814c.442.494,1.183-.312.663-.832a4.192,4.192,0,0,0-1.313-.754c-.611-.195-1.079.6-.416.858A4.684,4.684,0,0,1,80.171-8.814ZM78.988-7.631c.429.507,1.2-.286.689-.832a4.021,4.021,0,0,0-1.287-.78c-.6-.221-1.118.572-.455.845A4.473,4.473,0,0,1,78.988-7.631Zm.078,2.379c.819.273,1.17-.871.3-1.183a4.825,4.825,0,0,0-3.12-.065c-.858.3-.455,1.365.221,1.118A4.571,4.571,0,0,1,79.066-5.252Zm0,5.265A.675.675,0,1,0,78.9-1.326c-1.521.13-2.314.2-2.977-.481s-1.482.338-.923.962A4.646,4.646,0,0,0,79.066.013ZM74.217-6.8a8.373,8.373,0,0,0,1.313-.52.62.62,0,1,0-.507-1.118c-.156.091-.312.182-.494.273a3.956,3.956,0,0,0-.013-1.04c-.13-.715-1.352-.676-1.3.065a5.665,5.665,0,0,1,.013,1.4,3.475,3.475,0,0,1-1.794-.078c-.975-.351-1.105.832-.442,1.118a3.791,3.791,0,0,0,1.9.182A40.24,40.24,0,0,1,70.616-.871C70.07.234,71.448.611,71.838-.26A51.136,51.136,0,0,0,74.217-6.8Zm13.091.091a14.993,14.993,0,0,0,1.469-.611c1.209-.559.39-1.859-.507-1.222a5.391,5.391,0,0,1-.689.416c.1-.481.195-.91.286-1.209a.643.643,0,1,0-1.248-.312c-.091.4-.221,1.118-.351,1.95a3.265,3.265,0,0,1-1.235-.013c-1.04-.234-1.144,1.079-.182,1.235a4.868,4.868,0,0,0,1.222.039c-.195,1.274-.377,2.6-.481,3.341-.091.663.351,1.222.923,1.066.442-.117.507-.494.741-.741a3.893,3.893,0,0,1,2.288-1.2c1.768-.143,1.989,1.092,1.04,2.158a4.39,4.39,0,0,1-2.7,1.17C86.9-.52,86.97.78,88.218.611a5.731,5.731,0,0,0,3.5-1.7c1.638-1.95.4-4.355-2.327-3.991a5.839,5.839,0,0,0-2.574,1.118C86.9-4.42,87.1-5.564,87.308-6.708ZM101.049-9.23a1.1,1.1,0,0,0-1.222,1.157c0,1.1-.013,2.431-.013,3.731,0,.65,0,1.3.013,1.9.026,1.183,1.092,1.2,2.613,1.2.754,0,1.573-.026,2.262-.052a1.056,1.056,0,0,0,1.118-.91c.026-.325.039-.7.039-1.079,0-.208,0-.416-.013-.624-.013-.546-.377-1.014-1.313-1.027-.416-.013-.9-.013-1.365-.013-.767,0-1.534.013-2.119.026V-5.8c.377.013.806.026,1.248.026.676,0,1.365-.013,1.885-.026,1.248-.039,1.339-.7,1.339-1.56,0-.325-.026-.689-.052-1.014a1.019,1.019,0,0,0-1.092-.858c-.364-.013-.832-.013-1.339-.013a2.482,2.482,0,0,0,.208-.754.667.667,0,0,0-.741-.6.618.618,0,0,0-.676.52,7.467,7.467,0,0,1-.169.845ZM98.124-7.436a.738.738,0,0,0,.689-.728c0-.754-1.742-1.742-2.08-1.742a.694.694,0,0,0-.689.624.46.46,0,0,0,.273.4,4.153,4.153,0,0,1,1.339,1.17A.583.583,0,0,0,98.124-7.436ZM98.046-.78c.845.871,1.6,1.586,5.044,1.586,1.17,0,2.353-.078,3.159-.156a.659.659,0,0,0,.663-.65.618.618,0,0,0-.637-.624h-.065c-1.014.078-2.379.221-3.653.221-1.82,0-3.081-.286-3.913-1.313,0-.832.026-1.729.026-2.483,0-.832-.39-1.2-1.235-1.222-.429-.013-.858-.013-1.326-.013a.588.588,0,0,0-.572.624c0,.533.468.546.741.546h.572c.468,0,.6.039.6.351v.533c0,.494-.013,1-.026,1.586A8.153,8.153,0,0,1,95.6-.455a.557.557,0,0,0-.325.494A.78.78,0,0,0,96,.754C96.356.754,97.032.26,98.046-.78Zm3.016-6.006v-.9c0-.572.065-.6,1.157-.6.559,0,1.2.013,1.625.013.4,0,.416.195.416.832,0,.676,0,.676-1.638.676C102.063-6.76,101.478-6.76,101.062-6.786Zm0,2.86c.689-.026,1.612-.039,2.379-.039h.7a.411.411,0,0,1,.442.338c.013.13.013.312.013.481s0,.325-.013.442c-.026.39-.182.39-1.911.39-1.508,0-1.612-.026-1.612-.6V-3.926Zm18.2,2.782c.039-.949.052-1.989.052-3.029s-.013-2.067-.052-2.977a1.483,1.483,0,0,0-1.456-1.378c-.273-.013-.533-.026-.793-.026s-.52.013-.806.026a1.42,1.42,0,0,0-1.43,1.352c-.026.949-.039,1.989-.039,3.029s.013,2.08.039,3.042C114.816.273,115.973.3,117,.3c.26,0,.52-.013.793-.026A1.484,1.484,0,0,0,119.262-1.144ZM111.6-6.825c.195,0,.39.013.6.013.494,0,.507.312.507,1.131,0,4.355-.585,4.758-1.3,4.758a1.394,1.394,0,0,1-.507-.091.874.874,0,0,0-.234-.039.535.535,0,0,0-.507.585.63.63,0,0,0,.455.624,3.565,3.565,0,0,0,.936.143c1.079,0,1.872-.65,2.119-2.145a32.566,32.566,0,0,0,.26-4.368c0-.481,0-1.716-1.365-1.742h-.923c.026-.52.039-1.04.039-1.534v-.338a.614.614,0,0,0-.663-.572.568.568,0,0,0-.624.546v.026c.013.286.013.6.013.923s0,.637-.013.962c-.442.013-.871.013-1.326.026a.559.559,0,0,0-.559.585.528.528,0,0,0,.546.559h.013c.429,0,.858-.013,1.287-.026l-.013.1c-.091,1.716-.312,4.5-2.275,6.37a.543.543,0,0,0-.195.416.647.647,0,0,0,.663.6.784.784,0,0,0,.52-.234c2.067-2.054,2.457-5.252,2.535-7.124Zm6.422,5.343c-.013.533-.286.611-1.014.611-.91,0-1-.13-1.014-.572-.039-.832-.052-1.846-.052-2.86,0-.923.013-1.833.052-2.574.013-.4.221-.533.572-.572.143-.013.286-.026.429-.026s.286.013.429.026c.364.039.585.1.6.572.026.754.039,1.7.039,2.665S118.053-2.288,118.027-1.482Zm13.156.286a.723.723,0,1,0-.9-1.131c-2.262,1.781-4.576,1.911-4.654.013a36.05,36.05,0,0,1,.234-3.822c.065-.871.156-2.106.182-2.925a.709.709,0,0,0-1.417.026c.026.806-.065,2.08-.1,2.925-.065,1.378-.208,2.483-.156,3.848C124.488,1.248,128.648.871,131.183-1.2ZM141.518.273c1.378.013,1.3-1.521-.065-1.469-2.912.1-3.783-2.626-2.639-4.537a3.747,3.747,0,0,1,1.664-1.521,5.588,5.588,0,0,1,1.937-.364c.91.052,1.2-.208,1.274-.429a.767.767,0,0,0-.884-1,17.5,17.5,0,0,0-3.549.767c-1.326.377-2.457.637-3.094.793-.416.1-1.17.247-1.443.312-1.04.221-.7,1.716.442,1.4a12.333,12.333,0,0,0,1.17-.39c.884-.338.663-.338,1.638-.65.247-.078.312-.091.1.182a4.491,4.491,0,0,0-.416.676A4.13,4.13,0,0,0,141.518.273ZM157.04-3.991a4.987,4.987,0,0,0-1.95-3.016c-.78-.585-1.482.377-.858.806a4.1,4.1,0,0,1,1.443,2.522A.7.7,0,1,0,157.04-3.991Zm-5.681,2.145a5.948,5.948,0,0,0,.507-1,.639.639,0,0,0-1.183-.468,5.113,5.113,0,0,1-.429.767c-.286.39-.455.351-.793.026a5,5,0,0,1-1.027-3.354c-.026-.6.026-.624,0-1.131a.663.663,0,1,0-1.326.013,12.952,12.952,0,0,0,.065,1.443,6.707,6.707,0,0,0,1.469,4.16C149.37-.611,150.527-.494,151.359-1.846Zm16.952-3.406c.819.273,1.17-.871.3-1.183a4.825,4.825,0,0,0-3.12-.065c-.858.3-.455,1.365.221,1.118A4.571,4.571,0,0,1,168.311-5.252Zm0,5.265a.675.675,0,1,0-.169-1.339c-1.521.13-2.314.2-2.977-.481s-1.482.338-.923.962A4.646,4.646,0,0,0,168.311.013ZM163.462-6.8a8.373,8.373,0,0,0,1.313-.52.62.62,0,1,0-.507-1.118c-.156.091-.312.182-.494.273a3.956,3.956,0,0,0-.013-1.04c-.13-.715-1.352-.676-1.3.065a5.665,5.665,0,0,1,.013,1.4,3.475,3.475,0,0,1-1.794-.078c-.975-.351-1.1.832-.442,1.118a3.791,3.791,0,0,0,1.9.182,40.24,40.24,0,0,1-2.275,5.642c-.546,1.105.832,1.482,1.222.611A51.137,51.137,0,0,0,163.462-6.8Zm18.889-2.015c.442.494,1.183-.312.663-.832A4.192,4.192,0,0,0,181.7-10.4c-.611-.195-1.079.6-.416.858A4.684,4.684,0,0,1,182.351-8.814Zm-1.183,1.183c.429.507,1.2-.286.689-.832a4.021,4.021,0,0,0-1.287-.78c-.6-.221-1.118.572-.455.845A4.473,4.473,0,0,1,181.168-7.631Zm.078,2.379c.819.273,1.17-.871.3-1.183a4.825,4.825,0,0,0-3.12-.065c-.858.3-.455,1.365.221,1.118A4.571,4.571,0,0,1,181.246-5.252Zm0,5.265a.675.675,0,1,0-.169-1.339c-1.521.13-2.314.2-2.977-.481s-1.482.338-.923.962A4.646,4.646,0,0,0,181.246.013ZM176.4-6.8a8.373,8.373,0,0,0,1.313-.52.62.62,0,1,0-.507-1.118c-.156.091-.312.182-.494.273A3.956,3.956,0,0,0,176.7-9.2c-.13-.715-1.352-.676-1.3.065a5.666,5.666,0,0,1,.013,1.4,3.475,3.475,0,0,1-1.794-.078c-.975-.351-1.1.832-.442,1.118a3.791,3.791,0,0,0,1.9.182A40.24,40.24,0,0,1,172.8-.871c-.546,1.105.832,1.482,1.222.611A51.137,51.137,0,0,0,176.4-6.8ZM195.52-3.991a4.987,4.987,0,0,0-1.95-3.016c-.78-.585-1.482.377-.858.806a4.1,4.1,0,0,1,1.443,2.522A.7.7,0,1,0,195.52-3.991Zm-5.681,2.145a5.948,5.948,0,0,0,.507-1,.639.639,0,0,0-1.183-.468,5.113,5.113,0,0,1-.429.767c-.286.39-.455.351-.793.026a5,5,0,0,1-1.027-3.354c-.026-.6.026-.624,0-1.131a.663.663,0,1,0-1.326.013,12.952,12.952,0,0,0,.065,1.443,6.707,6.707,0,0,0,1.469,4.16C187.85-.611,189.007-.494,189.839-1.846Zm16.952-3.406c.819.273,1.17-.871.3-1.183a4.825,4.825,0,0,0-3.12-.065c-.858.3-.455,1.365.221,1.118A4.571,4.571,0,0,1,206.791-5.252Zm0,5.265a.675.675,0,1,0-.169-1.339c-1.521.13-2.314.2-2.977-.481s-1.482.338-.923.962A4.646,4.646,0,0,0,206.791.013ZM201.942-6.8a8.373,8.373,0,0,0,1.313-.52.62.62,0,1,0-.507-1.118c-.156.091-.312.182-.494.273a3.956,3.956,0,0,0-.013-1.04c-.13-.715-1.352-.676-1.3.065a5.666,5.666,0,0,1,.013,1.4,3.475,3.475,0,0,1-1.794-.078c-.975-.351-1.1.832-.442,1.118a3.791,3.791,0,0,0,1.9.182,40.242,40.242,0,0,1-2.275,5.642c-.546,1.105.832,1.482,1.222.611A51.137,51.137,0,0,0,201.942-6.8Zm18.668-.715a.561.561,0,0,0,.585-.6.579.579,0,0,0-.585-.611h-4.147V-9.984a.613.613,0,0,0-.676-.585.613.613,0,0,0-.676.585v1.261H210.9a.615.615,0,0,0-.611.637.552.552,0,0,0,.6.572h.013l3.991-.026a8.08,8.08,0,0,1-4.511,7.072.657.657,0,0,0-.429.585.7.7,0,0,0,.715.676A.843.843,0,0,0,211.042.7a9.265,9.265,0,0,0,4.68-5.707h2.054a.437.437,0,0,1,.481.481c0,3.757-1.469,4.03-2.106,4.03a3.561,3.561,0,0,1-1.287-.286.6.6,0,0,0-.247-.052.656.656,0,0,0-.6.7.563.563,0,0,0,.39.559,5.825,5.825,0,0,0,1.755.312c2.106,0,3.289-1.469,3.393-5.408v-.065A1.266,1.266,0,0,0,218.205-6.1c-.7,0-1.482,0-2.2.013a13.534,13.534,0,0,0,.208-1.456ZM232.245-6.4a.636.636,0,1,0,.221-1.248,7.848,7.848,0,0,0-3.419.078.612.612,0,1,0,.182,1.209A6.586,6.586,0,0,1,232.245-6.4Zm.7,5.928c.858-.221.793-1.6-.26-1.378-1.014.208-2.574.416-3.276-.221a.644.644,0,0,0-.923.9C229.424-.156,231.556-.117,232.947-.468ZM226.07.156c.325-.286.169-.689.247-1.04a6.555,6.555,0,0,1,.767-1.82.521.521,0,0,0-.91-.507c-.052.091-.195.351-.221.416-.052.117-.1.156-.143-.013-.312-1.209.468-4.264.676-5.317a.632.632,0,1,0-1.261-.078c-.234,1.547-1.261,5.395-.221,7.956C225.264.39,225.745.442,226.07.156Zm12.324.806a.719.719,0,0,0,.7-.715c0-.884-2.08-2.028-2.535-2.028a.579.579,0,0,0-.611.572.585.585,0,0,0,.351.52A4.962,4.962,0,0,1,237.9.676.592.592,0,0,0,238.394.962ZM8.125,13.994c.715,0,1.43.026,2.106.052a.628.628,0,1,0,.039-1.235c-.689-.013-1.417,0-2.158,0-.013-.741-.026-1.378-.026-1.742a.632.632,0,1,0-1.261.052c.013.338.039.962.065,1.7-1.4.013-2.821.039-4.121.091a.6.6,0,1,0,.039,1.2c1.092-.039,2.249-.078,3.406-.1A11.761,11.761,0,0,1,1.846,18.05c-.819.429-.182,1.664.9.975A15.048,15.048,0,0,0,6.968,15.06c.039,1.365.078,2.717.091,3.484.013.689-.676.611-1.209.442-.819-.26-1.3,1.079-.117,1.287,2.041.351,2.6-.468,2.574-1.469-.013-.351-.013-.572-.039-.975C8.2,16.854,8.151,15.359,8.125,13.994Zm16.133-.663a.709.709,0,1,0-1.183-.767c-1.313,2.548-3.939,5.239-6.552,5.9a.744.744,0,1,0,.442,1.4C19.955,18.921,22.646,16.256,24.258,13.331Zm-5.421,1.053a.769.769,0,0,0-.169-1.079,8.245,8.245,0,0,0-2.288-.988c-.988-.273-1.313,1.04-.533,1.222a4.8,4.8,0,0,1,1.924.962A.688.688,0,0,0,18.837,14.384Zm16.51-2.86a.635.635,0,0,0-.7-.6c-1.313.013-3.133.013-4.381,0-1-.013-.949,1.183-.091,1.209,1.4.039,3.2,0,4.42,0C35.126,12.135,35.347,11.836,35.347,11.524Zm.832,3.822c.533-1.274-.1-2-1.4-2.015-1.768-.013-3.952,0-5.629.039a.62.62,0,1,0,.039,1.222c1.391-.052,3.809-.091,5.135-.065.494.013.559.221.429.572a6.708,6.708,0,0,1-4.8,3.913c-1.04.273-.559,1.56.507,1.235A8.25,8.25,0,0,0,36.179,15.346Zm8.788-.195c-.013,1.521-.065,3.64-.078,4.68a.688.688,0,1,0,1.365-.039c-.039-1.3-.013-4.706.026-6.032.559-.65,1.118-1.352,1.7-2.132a.677.677,0,1,0-1.157-.689,17.27,17.27,0,0,1-6.344,5.876c-.884.429-.208,1.755.988,1.027A19.005,19.005,0,0,0,44.967,15.151Zm17.9-1.82a.709.709,0,1,0-1.183-.767c-1.313,2.548-3.939,5.239-6.552,5.9a.744.744,0,1,0,.442,1.4C58.565,18.921,61.256,16.256,62.868,13.331Zm-5.421,1.053a.769.769,0,0,0-.169-1.079,8.245,8.245,0,0,0-2.288-.988c-.988-.273-1.313,1.04-.533,1.222a4.8,4.8,0,0,1,1.924.962A.688.688,0,0,0,57.447,14.384Zm13.793-.533a.7.7,0,0,0-.065-1.014,7.111,7.111,0,0,0-1.729-1.079c-.884-.39-1.4.767-.663,1.066a4.551,4.551,0,0,1,1.417,1A.694.694,0,0,0,71.24,13.851Zm5.018-.364c.572-1.027-.728-1.56-1.157-.754-1.365,2.587-4.251,5.447-6.838,6.149a.709.709,0,1,0,.429,1.339A14.976,14.976,0,0,0,76.258,13.487Zm-6.565,2.431a.7.7,0,0,0-.3-.975,6.575,6.575,0,0,0-1.9-.65c-.949-.182-1.2,1.053-.416,1.183a4.559,4.559,0,0,1,1.612.663A.673.673,0,0,0,69.693,15.918Zm15.691,1.391c0,.312-.013.6-.026.793a.409.409,0,0,1-.429.39c-.7.052-2.574.052-3.588.013a.568.568,0,1,0,.013,1.131c.975,0,2.665-.013,3.679-.065.728-.039,1.456-.273,1.482-1.287.013-.845,0-2.21,0-2.782A1.2,1.2,0,0,0,85.2,14.2c-.949-.026-2.7,0-3.757.039-.845.039-.819,1.118.039,1.079.975-.039,2.561-.1,3.393-.078.286.013.468.117.481.4,0,.143.013.351.013.611-.936,0-2.743.052-3.627.052-.429,0-.676.234-.663.52a.575.575,0,0,0,.624.507C82.563,17.348,84.149,17.335,85.384,17.309Zm11.4-1.664A5.571,5.571,0,0,0,96,14.358c-.533-.637-1.4.078-.936.6a3.441,3.441,0,0,1,.611,1.092A.59.59,0,1,0,96.785,15.645Zm-2.21,4.888a8.477,8.477,0,0,0,4.745-5.6.634.634,0,1,0-1.222-.338A6.96,6.96,0,0,1,94,19.506a.577.577,0,0,0-.325.78A.624.624,0,0,0,94.575,20.533Zm.416-4.342a4.9,4.9,0,0,0-.962-1.157c-.611-.546-1.365.273-.832.728a3.4,3.4,0,0,1,.741,1A.6.6,0,1,0,94.991,16.191Zm20.085-5.447a1.372,1.372,0,1,0-2.743,0,1.372,1.372,0,0,0,2.743,0Zm-8.5,9.451a9.947,9.947,0,0,0,6.136-6.513,1.368,1.368,0,0,0-1.417-1.872c-1.651-.026-4.082-.013-5.8.065a.644.644,0,1,0,.026,1.287c1.872-.065,3.926-.143,5.2-.1.481.013.52.338.416.689a8.044,8.044,0,0,1-5.161,5.187C104.988,19.246,105.469,20.611,106.574,20.195Zm7.787-9.451a.663.663,0,0,1-1.326,0,.663.663,0,1,1,1.326,0Zm12.818,3.8c.468.52,1.235-.338.689-.884a4.313,4.313,0,0,0-1.378-.78c-.637-.208-1.144.624-.442.9A4.564,4.564,0,0,1,127.179,14.54Zm-1.339,1.183c.455.533,1.261-.3.728-.871a4.245,4.245,0,0,0-1.365-.819c-.637-.234-1.157.572-.468.871A4.977,4.977,0,0,1,125.84,15.723Zm-1.248,4.55c1.378.013,1.287-1.521-.078-1.469-2.912.1-3.783-2.626-2.639-4.537a3.783,3.783,0,0,1,1.677-1.521,5.511,5.511,0,0,1,1.924-.364c.91.052,1.2-.208,1.274-.429a.767.767,0,0,0-.884-1,17.394,17.394,0,0,0-3.536.767c-1.326.377-2.47.637-3.107.793-.416.1-1.17.247-1.443.312-1.04.221-.689,1.716.455,1.4a12.332,12.332,0,0,0,1.17-.39c.884-.338.663-.338,1.638-.65.247-.078.312-.091.1.182a4.492,4.492,0,0,0-.416.676A4.13,4.13,0,0,0,124.592,20.273Zm15.457-8.2a.553.553,0,1,0,0-1.1h-2.782c0-.312-.013-.624-.013-.949a.609.609,0,0,0-.611-.611.565.565,0,0,0-.559.624v.013l.013.923h-2.548a.553.553,0,1,0,0,1.1H136.1v.793c-.585,0-1.144.013-1.6.026a1.152,1.152,0,0,0-1.222,1c-.013.182-.013.416-.013.663s0,.481.013.689A1.136,1.136,0,0,0,134.5,16.3c.455.013.988.039,1.56.039a4.432,4.432,0,0,1-.4,1.365,4.672,4.672,0,0,1-.572-.7.323.323,0,0,0,.013-.1.446.446,0,0,0-.494-.4.473.473,0,0,0-.416.208,3.013,3.013,0,0,1-1.118,1.04.54.54,0,0,0-.325.481.61.61,0,0,0,.6.572c.143,0,.429-.052,1.053-.936a6.3,6.3,0,0,0,.624.715,4.408,4.408,0,0,1-2.249,1.118.57.57,0,0,0-.494.546.621.621,0,0,0,.611.624,6.109,6.109,0,0,0,3.016-1.534,7.925,7.925,0,0,0,4.212,1.417.687.687,0,0,0,.767-.663.569.569,0,0,0-.6-.585,6.971,6.971,0,0,1-3.731-1.066,5.673,5.673,0,0,0,.637-2.093c.585,0,1.144-.013,1.625-.039.793-.039,1.287-.455,1.339-1.066.013-.208.026-.494.026-.793a4.907,4.907,0,0,0-.026-.624c-.052-.546-.611-.9-1.274-.923-.468-.026-1.027-.039-1.612-.039v-.78Zm-9.295,8.294a.562.562,0,0,0,.611.572.6.6,0,0,0,.637-.585l.156-7.995a9.78,9.78,0,0,0,1.04-2.314.689.689,0,0,0-.715-.624.573.573,0,0,0-.572.429,11.822,11.822,0,0,1-2.873,4.745.661.661,0,0,0-.208.455.58.58,0,0,0,.585.572c.247,0,.533-.065,1.482-1.326l-.143,6.058Zm6.513-6.513c1.755,0,1.768,0,1.768.728,0,.754,0,.78-1.781.78.013-.429.013-.858.013-1.261Zm-1.17.182c0,.325.039.793.039,1.326-1.482,0-1.7-.039-1.729-.364-.013-.117-.013-.273-.013-.416,0-.494.078-.689.442-.7s.793-.026,1.261-.026Zm12.74-2c.9.312,1.521-.858.572-1.183a7.9,7.9,0,0,1-1.625-.78c-.767-.481-1.547.364-.884.9A8.293,8.293,0,0,0,148.837,12.031Zm-2.015,5.59c.65-.65,2.613-2.457,3.224-3.107.676-.7-.117-1.677-1.2-1.534a4.647,4.647,0,0,0-1.014.338,13.7,13.7,0,0,1-2.288.611c-.9.13-.715,1.482.39,1.235a12.97,12.97,0,0,0,2.678-1.027c.117-.052.208-.078.065.091-.65.754-1.495,1.625-2.093,2.21-.416.4-.78.806-1.235,1.209a20.915,20.915,0,0,0-1.56,1.638c-.572.65.013,1.079.442,1.053.26-.013.637-.078,1.092-.806.845-1.352,1.807-1.248,2.093-.546a1.983,1.983,0,0,0,1.7,1.339,6.9,6.9,0,0,0,2.951-.312c1.04-.39.572-1.729-.416-1.287a6.5,6.5,0,0,1-2.054.416,1.19,1.19,0,0,1-1.157-.858A1.23,1.23,0,0,0,146.822,17.621Zm14.768,1.417a1.844,1.844,0,0,0-2.054-1.755c-1.534.052-2.145,1.664-.767,2.561a4.287,4.287,0,0,0,4.3-.325c1.365-.988,1.976-3.276.1-4.394a3.983,3.983,0,0,0-3.653.039c.468-.455.988-.923,1.508-1.4s1.04-.988,1.456-1.456c.65-.728-.208-1.651-1.248-1.352a20.1,20.1,0,0,1-2.86.637c-.884.1-.689,1.391.338,1.17A10.414,10.414,0,0,0,160.9,12.1c.1-.052.234-.1.091.078a46.054,46.054,0,0,1-3.926,4.2c-.806.793.494,1.56.962.871a2.858,2.858,0,0,1,1.092-.975,3.421,3.421,0,0,1,3.393-.221,1.631,1.631,0,0,1-.169,2.574A1.752,1.752,0,0,1,161.59,19.038Zm-1.1.195a2.339,2.339,0,0,1-1.092-.195c-.416-.221-.39-.754.182-.806S160.5,18.635,160.485,19.233Zm13.481-2.405a2.857,2.857,0,0,0-3.146-2.99,4.772,4.772,0,0,0-.975.091,2.617,2.617,0,0,1-.3.065c-.078,0-.1-.039-.1-.143V13.76c.039-.26.234-1.3.3-1.755.039-.234.143-.351.39-.351.39,0,2.145.013,2.509.013A.64.64,0,0,0,173.3,11a.671.671,0,0,0-.689-.7c-2.132,0-2.327,0-2.7-.013h-.091a1.078,1.078,0,0,0-1.261,1.04c-.2,1.144-.455,3.159-.455,3.263,0,.624.364.884.936.884.065,0,.13-.013.195-.013a1.686,1.686,0,0,0,.507-.182,3.34,3.34,0,0,1,1.027-.182,1.679,1.679,0,0,1,1.781,1.742,1.956,1.956,0,0,1-2.067,1.976,2.708,2.708,0,0,1-1.781-.676.73.73,0,0,0-.455-.2.721.721,0,0,0-.676.741c0,.858,1.651,1.482,2.847,1.482A3.315,3.315,0,0,0,173.966,16.828Zm4.654,3.419c3.146,0,3.263-3.536,3.263-5,0-.559-.039-1.131-.091-1.7-.208-2.171-1.43-3.367-3.172-3.367-1.768,0-3,1.248-3.185,3.51-.039.533-.065,1.04-.065,1.534,0,.546.026,1.092.078,1.651C175.656,19.051,176.891,20.247,178.62,20.247Zm0-1.365c-.845,0-1.547-.767-1.7-2.093a13.466,13.466,0,0,1-.091-1.625c0-.468.026-.949.065-1.43.13-1.391.819-2.223,1.729-2.223,1.781,0,1.781,2.574,1.781,3.575a13.866,13.866,0,0,1-.117,1.833C180.1,18.154,179.426,18.882,178.62,18.882Zm7.8,1.365c3.146,0,3.263-3.536,3.263-5,0-.559-.039-1.131-.091-1.7-.208-2.171-1.43-3.367-3.172-3.367-1.768,0-3,1.248-3.185,3.51-.039.533-.065,1.04-.065,1.534,0,.546.026,1.092.078,1.651C183.456,19.051,184.691,20.247,186.42,20.247Zm0-1.365c-.845,0-1.547-.767-1.7-2.093a13.466,13.466,0,0,1-.091-1.625c0-.468.026-.949.065-1.43.13-1.391.819-2.223,1.729-2.223,1.781,0,1.781,2.574,1.781,3.575a13.866,13.866,0,0,1-.117,1.833C187.9,18.154,187.226,18.882,186.42,18.882Zm14.092-.117c0,.572-.39.741-.91.741a4.638,4.638,0,0,1-.806-.091.36.36,0,0,0-.117-.013.58.58,0,0,0-.546.637c0,.689.637.741,1.43.741,1.755,0,2.288-.975,2.288-1.742v-.026l-.026-1.833c-.026-1.469,0-3.6-.052-5.512a1.553,1.553,0,0,0-1.586-1.482c-1.04-.026-2.2-.026-3.341-.026s-2.262,0-3.263.026-1.625.559-1.638,1.378-.078,4.641-.078,8.827a.611.611,0,0,0,.676.572.6.6,0,0,0,.65-.572v-.013c-.013-1.092-.013-2.171-.013-3.224v-1.3h7.332Zm-3-4.03V11.277c.715,0,1.417.013,2.054.026s.884.117.91.832.039,1.638.039,2.587Zm-1.3,0-3.016-.013c.013-.9.013-1.768.039-2.587.013-.637.208-.819.949-.832.572-.013,1.274-.026,2.028-.026ZM212.9,20.286c0,.364.338.546.676.546s.676-.182.676-.546V10.276a.616.616,0,0,0-.689-.572.6.6,0,0,0-.663.572Zm-4.459-9.308c.416,0,.468.117.468.793,0,.585-.1.7-.468.7-.195,0-1.846-.039-2.041-.039h-.052c-1,0-1.326.377-1.742,2.548a2.14,2.14,0,0,0-.026.273c0,.52.312.884,1.17.884.3,0,1.651-.039,2.392-.039.585,0,.9.013.9.468a4.26,4.26,0,0,1-.494,1.82,2.008,2.008,0,0,1-1.872.91,4.46,4.46,0,0,1-1.131-.156,1.531,1.531,0,0,0-.325-.052.657.657,0,0,0-.7.65.68.68,0,0,0,.572.663,6.709,6.709,0,0,0,1.495.182,3.35,3.35,0,0,0,3.263-1.781,6.476,6.476,0,0,0,.52-2.405c0-1.352-1.027-1.391-2.288-1.391-.689,0-1.547.013-1.846.026-.117,0-.273-.039-.273-.234a6.2,6.2,0,0,1,.221-.975c.065-.182.208-.273.494-.273.13,0,1.833.026,2.067.026.91,0,1.443-.416,1.469-1.209.013-.195.013-.416.013-.65,0-1.235-.078-1.885-1.482-1.9-.455,0-1.859-.013-2.7-.013h-.507a.576.576,0,0,0-.585.6.549.549,0,0,0,.559.572Zm16.523,4.134a8.2,8.2,0,0,0,1.027-.429c.728-.364.169-1.56-.741-1.04a6.811,6.811,0,0,1-.975.416,10.782,10.782,0,0,1-.559-1.092,8.32,8.32,0,0,0,1.04-.4c.689-.325.2-1.469-.663-1.014a4.983,4.983,0,0,1-.819.351,11.219,11.219,0,0,0-.936-1.963c-.468-.637-1.846-.143-1.118.676a6.711,6.711,0,0,1,.936,1.573,7.212,7.212,0,0,1-1.612.078c-1.04-.078-.78,1.183.065,1.183a10.21,10.21,0,0,0,2.067-.208c.208.4.416.78.611,1.118a6.332,6.332,0,0,1-2.236.182c-1.1-.143-.988,1.183-.091,1.248a9.376,9.376,0,0,0,2.99-.351c.091.143.2.26.286.39.754,1.014.546,1.209-.156,1.118a6.784,6.784,0,0,0-3.419.286c-1.456.741-1.092,2.561.442,3.211a5.359,5.359,0,0,0,2.574.442c1.17-.1,1.092-1.547-.065-1.326a3.589,3.589,0,0,1-2.106-.195c-.6-.247-.871-.936-.195-1.261a4.788,4.788,0,0,1,3.445.221c.585.338,1.209.221,1.339-.455a3.522,3.522,0,0,0-.845-2.379C225.16,15.359,225.056,15.242,224.965,15.112Zm11.583-3.445c.611-.871-.689-1.5-1.118-.767a15.177,15.177,0,0,1-3.536,4.186c-.884.546-.117,1.664.754,1.079a15.762,15.762,0,0,0,2.925-3.146c.585-.065,1.534-.156,2.08-.169.312-.013.416.234.312.481a10.914,10.914,0,0,1-5.993,5.811c-1.079.377-.546,1.651.559,1.222,3.653-1.443,5.447-4.082,7.033-7.111.481-.923-.39-1.625-1.391-1.573-.52.026-1.157.078-1.716.117Zm16.393,4.043a.644.644,0,1,0,0-1.287h-8.164a.663.663,0,0,0-.689.663.626.626,0,0,0,.689.624ZM266.5,11.225a1.346,1.346,0,1,0-2.691,0,1.346,1.346,0,0,0,2.691,0Zm-.221,7.163a.7.7,0,0,0,.208-.936,7.23,7.23,0,0,0-2.236-1.911c-.741-.442-1.365.546-.728.923a6.775,6.775,0,0,1,1.9,1.768A.568.568,0,0,0,266.279,18.388ZM261.2,14.345c.013,1.365.013,2.847,0,3.77-.013.715-.585.637-1.118.468-.793-.26-1.3,1.079-.143,1.287,1.859.325,2.483-.455,2.483-1.482,0-.364,0-.572-.013-.988-.039-.9-.052-2.015-.039-3.068.975,0,1.95,0,2.912.052a.621.621,0,1,0,.052-1.222c-.962-.013-1.95-.026-2.951-.013.013-.676.026-1.274.039-1.677a.626.626,0,1,0-1.248.052c.013.364.013.949.013,1.638-1.053.013-2.119.052-3.146.091a.6.6,0,1,0,.026,1.2C259.1,14.41,260.156,14.371,261.2,14.345Zm-3.354,4.381a8.1,8.1,0,0,0,1.976-2.314.587.587,0,1,0-1-.611,6.448,6.448,0,0,1-1.729,1.846.642.642,0,0,0-.169.923A.662.662,0,0,0,257.842,18.726Zm7.956-7.5a.65.65,0,1,1-.65-.65A.661.661,0,0,1,265.8,11.225Zm13.78,2.106a.709.709,0,1,0-1.183-.767c-1.313,2.548-3.939,5.239-6.552,5.9a.744.744,0,1,0,.442,1.4C275.275,18.921,277.966,16.256,279.578,13.331Zm-5.421,1.053a.769.769,0,0,0-.169-1.079,8.245,8.245,0,0,0-2.288-.988c-.988-.273-1.313,1.04-.533,1.222a4.8,4.8,0,0,1,1.924.962A.688.688,0,0,0,274.157,14.384Zm13.858-3.224a2.458,2.458,0,0,0,.1-.754c-.026-.637-1.248-.715-1.3.065a5.423,5.423,0,0,1-.143,1.092c-.065.013-.143.013-.195.026a2,2,0,0,1-1.222-.026c-.91-.611-1.547.611-.611,1.079a2.626,2.626,0,0,0,1.612.143,10.843,10.843,0,0,1-.611,1.157,6.489,6.489,0,0,1-1.053,1.222c-.78.7.169,1.443.884.806a2.847,2.847,0,0,0,.3-.338l.052-.052c.845-.975,1.846-1.1,2.2-.013-.247.143-.455.286-.637.4-2.353,1.547-2.665,3.3-.91,4.29a5.71,5.71,0,0,0,3.549.182c1.2-.312.832-1.716-.312-1.365a4.133,4.133,0,0,1-2.574.1c-.728-.364-.923-1.144.689-2.184.1-.065.221-.13.338-.195,0,.273-.013.572-.026.845-.039.507.26.754.585.741a.769.769,0,0,0,.689-.806,10.387,10.387,0,0,0-.026-1.43c.52-.247,1.105-.507,1.651-.715.689-.26.988-.325,1.4-.533a.693.693,0,1,0-.728-1.17,9.981,9.981,0,0,1-1.014.481c-.507.221-1.053.494-1.586.767a1.9,1.9,0,0,0-2.184-1.131,13.256,13.256,0,0,0,.624-1.313,7.311,7.311,0,0,0,1.43-.429c.962-.481.26-1.56-.455-1.131a4.572,4.572,0,0,1-.546.234Zm16.835,5.148a.449.449,0,1,0,0-.9h-1.6v-.949h1.6a.449.449,0,1,0,0-.9h-1.6v-.949c.728,0,1.443,0,2.028.013h.013a.494.494,0,1,0,.013-.988c-.585,0-1.313-.013-2.067-.013a6.71,6.71,0,0,0,.572-1.352c0-.3-.364-.507-.7-.507a.471.471,0,0,0-.481.3,12.6,12.6,0,0,1-.533,1.417.8.8,0,0,0-.039.143c-.442,0-.858.013-1.248.013a6.252,6.252,0,0,0,.585-1.352.6.6,0,0,0-.637-.533.524.524,0,0,0-.52.351,8.442,8.442,0,0,1-1.872,3.081.534.534,0,0,0-.2.39.552.552,0,0,0,.585.494,1.02,1.02,0,0,0,.65-.377c-.026.975-.052,2.379-.052,3.289,0,.78.039,1.6,1.287,1.625.741.013,1.638.013,2.509.013s1.716,0,2.366-.013a.5.5,0,0,0,.494-.533.483.483,0,0,0-.494-.52c-.624,0-1.443.026-2.262.026V16.308ZM297.739,12.5a.759.759,0,0,0,.7-.728c0-.663-1.625-1.664-2.015-1.664a.665.665,0,0,0-.663.585.455.455,0,0,0,.26.4,3.882,3.882,0,0,1,1.274,1.131A.513.513,0,0,0,297.739,12.5Zm-.065,6.708c1.222,1.261,2.288,1.6,5.109,1.6,1.183,0,2.379-.078,3.2-.156a.647.647,0,0,0,.65-.65.607.607,0,0,0-.624-.624h-.065c-.988.078-2.4.221-3.705.221-1.807,0-3.146-.273-3.965-1.313,0-.832.052-1.716.052-2.47,0-.832-.39-1.2-1.222-1.222-.429-.013-.793-.013-1.261-.013a.557.557,0,0,0-.546.585c0,.546.468.559.715.559h.507c.442,0,.6.039.6.377v.273c0,.572-.026,1.157-.052,1.846a6.222,6.222,0,0,1-1.742,1.352.557.557,0,0,0-.325.494.735.735,0,0,0,.715.689C296.218,20.754,297.024,19.935,297.674,19.207Zm4.446-5.642h-1.586c0-.2.013-.364.013-.494.013-.325.182-.442.377-.442h1.2Zm0,1.846h-1.612v-.949h1.612Zm0,2.171c-1.339,0-1.612,0-1.612-.507v-.767h1.612Zm15.7-4.888c.013-.3.026-.637.026-.975,0-.26-.013-.52-.026-.741A1.366,1.366,0,0,0,316.446,9.8c-.858-.026-1.781-.026-2.665-.026s-1.755,0-2.509.026a1.309,1.309,0,0,0-1.443,1.3c-.013.247-.013.572-.013.9,0,.247,0,.494.013.728a1.364,1.364,0,0,0,1.469,1.339c.728.026,1.586.039,2.47.039s1.794-.013,2.613-.039A1.425,1.425,0,0,0,317.824,12.694Zm1.053,7.644a.553.553,0,0,0,0-1.1l-4.485.013V18.063h2.951a.48.48,0,0,0,.494-.507.473.473,0,0,0-.494-.507h-2.951V16l3.588.013a.518.518,0,0,0,.533-.533.511.511,0,0,0-.533-.533h-8.294a.521.521,0,0,0-.546.533.515.515,0,0,0,.546.533L313.2,16v1.053h-2.873a.509.509,0,0,0-.546.507.5.5,0,0,0,.546.507H313.2v1.183l-4.355-.013a.553.553,0,1,0,0,1.1Zm-2.9-7.371c-.65.013-1.43.026-2.2.026s-1.508-.013-2.119-.026-.624-.377-.624-1.053c0-.741.1-1.04.611-1.053.689-.013,1.521-.026,2.353-.026.676,0,1.352.013,1.95.026.637.013.637.429.637,1.027S316.589,12.941,315.978,12.967Zm10.166,7.358a.583.583,0,0,0,.65.533c.338,0,.663-.182.663-.533V16.854c1.014,0,2.015-.026,2.964-.065a1.42,1.42,0,0,0,1.4-1.326c.026-.39.039-.858.039-1.313,0-.4-.013-.793-.039-1.1a1.433,1.433,0,0,0-1.339-1.235c-.936-.026-1.976-.039-3.029-.039V9.925a.607.607,0,0,0-.663-.572.6.6,0,0,0-.65.572v1.846c-1.04,0-2.054.013-2.951.039a1.361,1.361,0,0,0-1.4,1.339c-.013.351-.026.728-.026,1.118s.013.806.026,1.209a1.355,1.355,0,0,0,1.43,1.313c.91.039,1.911.052,2.925.065Zm1.313-7.384c.9,0,1.768.013,2.483.039.637.013.663.273.663,1.326,0,1.014-.026,1.3-.65,1.326-.767.026-1.625.039-2.5.052ZM326.144,15.7c-.884,0-1.729-.026-2.457-.065-.676-.026-.676-.429-.676-1.248,0-.3.013-.611.026-.858a.6.6,0,0,1,.637-.546c.7-.013,1.56-.039,2.47-.039Zm9.581,1.768a.621.621,0,0,0,.611-.689v-.221c0-1.2.169-4.017.169-5.538a.732.732,0,0,0-.767-.754.7.7,0,0,0-.741.715v.039c.065,2,.169,4.355.169,5.5v.351A.55.55,0,0,0,335.725,17.465Zm.936,1.742a.863.863,0,0,0-.91-.923.906.906,0,0,0-.91.923.916.916,0,0,0,.91.884A.882.882,0,0,0,336.661,19.207Z" transform="translate(-1.144 10.595)" fill="#fff"/>
</svg>
