<svg xmlns="http://www.w3.org/2000/svg" xmlns:xlink="http://www.w3.org/1999/xlink" width="147" height="126" viewBox="0 0 147 126">
  <defs>
    <clipPath id="clip-path">
      <rect id="長方形_115" data-name="長方形 115" width="147" height="126" transform="translate(562 667)" fill="#fff" stroke="#707070" stroke-width="1"/>
    </clipPath>
    <clipPath id="clip-path-2">
      <rect id="長方形_114" data-name="長方形 114" width="93.151" height="137.923" fill="#171c61"/>
    </clipPath>
  </defs>
  <g id="マスクグループ_1" data-name="マスクグループ 1" transform="translate(-562 -667)" clip-path="url(#clip-path)">
    <g id="グループ_83" data-name="グループ 83" transform="translate(593.424 679.469)">
      <g id="グループ_82" data-name="グループ 82" clip-path="url(#clip-path-2)">
        <path id="パス_165" data-name="パス 165" d="M166.509,205.7c-2.891-4.161-2.542-9.325-3.527-14.114,3.224.164,1.95,4.785,2.927,6.97,1.361,7.2,5.546,13.45,8.348,20.1,4.13,7.917-2.932,17.168-11.439,17.341-3.266-.017-9.673.7-10.287-3.5,16.624,6.737,26.959-6.367,16.135-21.685-5.19,10.265-8.291,2.47-11.469,11.408-2.177,3.329-4.576,6.366-8.247,8.252-.423,1.855-2.673,2.309-3.032,4.086-1.188,9.3,1.749,7.678,8.512,11.946,1.828,3.291-.506,7.961-.414,11.665-.506,1.731,1.524,5.472-.914,5.9q-8.59-.153-17.186-.019c-2.991-.654-14.12,3.37-13.771-.933.139-5.031-.418-11,1.913-15.452,2.337-.588,6.727-5.14,8.473-2.415-.31,1.919-3.306,2.082-4.8,3.36,5.5,3,12.09,1.508,17.923.531,14.339-2.546-4.208-2.125-1.893-11.273.175-2.151-.768-5.233,1.293-6.62,4.715-3.882,11.021-8.859,11.814-15.075-.379-3.006,6.145.9,7.231-2.839,6.152-5.542-2.7-9.829-5.977-3.984-.534.814-1.044,1.04-1.728.62-1.863-1.441.887-3.435,1.971-4.414,2.551-1.852,5.332-.842,8.142.143m-41.979,52.582c8.744,1.026,17.547-.346,26.314-.246,1.952-1,.769-5.543,1.5-7.71-7.036,1.5-14.363,2.985-21.586,2.23-6.69-2.616-5.656-3.18-6.266,4.078-1.409,9.393.795,6.2,8.333,6.007,3.557-.908,19.234,2.064,19.239-1.744-.637-3.986-27.148,2.846-27.537-2.616" transform="translate(-98.071 -153.839)" fill="#171c61"/>
        <path id="パス_166" data-name="パス 166" d="M305.565,486.866c-.249.8-.175,2.227-.838,2.82-2.334-.554-.193-5.944-3.74-4.052-2.713.208-1.6,3.645-2.283,5.566-1.738-.124-1.94-.279-1.808-1.764,1.378-10,.8-20.091,1.52-30.135.052-4.788-2.567-17.7,5.113-9.083,3.1,3.43-.029-3.012-.913-4.354,1.59-1.006,2.79.682,3.177,1.927,1.118,3.229,3.952,12.442,2.625,15.023-2.868.569.026-3.912-2.489-3.539-6.538.211-5.432,1.409-5.811,7.115.079,1.8,2.982.67,4.175.807,1.485-1.453-.184-3.5,2.944-2.99,2.728-.473,7.048,1.333,9-.523,1.111-5.678,4.046-10.781,7.031-15.646,1.6-2.434,4.636-3.612,5.991-6.157a8.555,8.555,0,0,0-5.172,2.784c-5.775,6.373-4.627,1.178.118-2.284,1.78-1.764,8.615-4.538,7.092.267-1.709,2.648-4.541,4.206-6.517,6.635A54.836,54.836,0,0,0,318.3,464.4c1.687.241,5.506-1.488,5.127,1.311-1.088,7.192-1.622,14.36-2.167,21.617,0,1.071-.944,2.1-1.511.746.307-2.927-11.342-.121-14.189-1.211m8.555-.836c1.491-.632,4.851-.154,5.817-2.012-.07-1.349,1.337-4.559-.821-4.6-3.964-.241-8.138,1-11.891-.338-.607-.252-.883-.116-1.077.349-1.987,8.412,1.422,5.863,7.972,6.6m-4.8-20.23c-2.5-.522-2.976,1.024-2.8,3.212-.455,3.484,3.893,1.878,5.983,2.55,2.366.008,7.064,1.155,8.027-1.494,0-1.776,1.991-4.669-1.174-4.263-3.346-.022-6.692-.006-10.039-.005m-3.017,6.875c-.351,3.341.053,5.981,4.091,5.417,2.377-.765,9.926.972,9.716-2.228.431-2.062.4-2.939-2.112-2.822-3.831,1.169-7.716-.6-11.695-.367m-6.069-23.654c.405,1.589-.358,8.978.8,8.856,3.242-.434,6.959.376,4.583-3.854-2.319-1.272-3.29-3.415-5.387-5m-.008,26.483c5.5.218,4.148-1.652,4.51-6,.022-1.539-2.045-.351-2.948-.6-3.02-.146-1.015,4.409-1.562,6.6m3.875,1.191c-4.508.358-4.061,2.422-4.349,6.149-.085.734.194,1.06.911,1.027,4.709.913,2.966-3.693,3.439-7.176" transform="translate(-238.37 -353.277)" fill="#171c61"/>
        <path id="パス_167" data-name="パス 167" d="M76.829,138.046a102.728,102.728,0,0,0-11.517,3.412c-1.828.729-3.272,2.494-5.292,2.915-2.256-.824,1.051-2.415,1.828-3.124,8.772-5.082,34.268-10.6,40.023.516,7.107,7.948-2.35.4-4.7-2.176-2.729-1.97-6.537-2.137-9.793-1.914A199.007,199.007,0,0,1,99.866,160.6c-7.218-3.981-10.49-29.623-20.938-21.7-6.563,5.5-13.289,11-16.262,19.333-.553,1.149-.646,2.562-1.5,3.562.434.3,2.133,1.57.693,1.72-9.8-6.011-9.587,11.689-1.046,8.709,3.1-1.437,3.264,4.447,4.882,5.888,2.184,2.475,4.028,5.315,7.189,6.865,2.137,1.463,5.551,2.585,6.559,5.061-.115,1.619.592,10.17-2.18,6.326-.852-5.144,2.153-6.067-3.719-8.781-4.93-2.488-10.55-7.251-11.772-12.768.036-.661-.366-.969-.93-.757-5.565,1.393-9.218-3.816-8.408-8.946.564-3.731,4.478-4.461,7.308-4.892,3-9.493,10.108-15.611,17.084-22.174" transform="translate(-42.015 -108.637)" fill="#171c61"/>
        <path id="パス_168" data-name="パス 168" d="M13.527,509.422c-2.7.705-8.523-1.771-9.283,1.7-1.529,5.727,4.965,3.1,8.269,3.373,6.3,2.514-7.3,2.035-8.827,2.158-7.874,20.217-1.244-12.794,2.471-16.951C9.288,494.161,12.15,486.6,18,483.647c.345-.04.788-.565.9-.95.176-1.343,2.229-1.224,1.967.147-1.178,3.534-.959,43.738-5.463,37.993.4-3.534.885-7.06,1.244-10.6-.052-1.432-2.2-.649-3.121-.817M5.3,507.443c3.694-.078,8.414.8,11.66-.559-.131-1.451,1.643-5.1-.8-4.983-6.913.679-8.516-3.089-10.861,5.542m3.385-7.8a42,42,0,0,0,8.092.212,1.276,1.276,0,0,0,.885-.856c.976-3.775-1.635-3-4.311-3.33-2.979-1.122-3.26,2.064-4.666,3.973m3.594-6.1c6.778,2.283,5.568-2.367,6.029-7.2-.306-2.087-5.655,6.422-6.029,7.2" transform="translate(0 -386.826)" fill="#171c61"/>
        <path id="パス_169" data-name="パス 169" d="M28.48,236.268c20.88-4.625-15.153,13.422-16.683-16.037.151-10.3,8.579-17.339,10.335-27.135.163-.591.186-1.347.956-1.142,1.868,1.72-.028,5.131-.468,7.316-2.093,5.7-6.6,10.04-8.239,15.955-3.328,10.6,2.536,20.762,14.1,21.044" transform="translate(-9.473 -154.103)" fill="#171c61"/>
        <path id="パス_170" data-name="パス 170" d="M235.144,33.226c14.21-.807,27.415,17.6,18.631,30.026-3.923,2.928-1.772-2.365-.568-4.021,3.946-8.618-3.009-18.266-10.414-22.437-2.853-2.755-9.8-.192-11.413-2.693.351-1.565,2.609-.634,3.764-.875" transform="translate(-185.789 -26.631)" fill="#171c61"/>
        <path id="パス_171" data-name="パス 171" d="M74.281,7.122c-14.594.512-27.273,10.45-23.8,25.825-5.843-3.566-1.649-15.175,2.94-18.73,5.4-5.2,13.112-9,20.711-8.694,2.387-.011.993-3.8,2.832-5.049,3.625-1.774,1.212,1.891.986,3.432.182,2.884-.933,3.461-3.671,3.216" transform="translate(-38.24 0)" fill="#171c61"/>
        <path id="パス_172" data-name="パス 172" d="M352.33,444.555c-2.316-.762-6.571-6.061-1.485-3.141,1.846.759,5.491-6.076,8.113-7.158,1.13-1.174,2.8.488,1.305,1.4-3.368,2.346-5.41,5.785-7.933,8.9" transform="translate(-279.794 -348.366)" fill="#171c61"/>
        <path id="パス_173" data-name="パス 173" d="M406.678,427.341a25.561,25.561,0,0,0-9.69,8.26c-6.884,3.343,7.885-13.821,9.69-8.26" transform="translate(-317.307 -342.24)" fill="#171c61"/>
        <path id="パス_174" data-name="パス 174" d="M176.464,335.323c5.025,3.781,5.538,2.384,10.428-.5,3.867,1.786-5.355,6.726-7.243,4.5-.976-1.057-3.875-2.492-3.184-4" transform="translate(-141.61 -268.85)" fill="#171c61"/>
        <path id="パス_175" data-name="パス 175" d="M228.293,264.011c-.5,3.129-3.368,2.883-3.636-.328-.023-3.765,3.269-3.16,3.636.328" transform="translate(-180.391 -209.665)" fill="#171c61"/>
        <path id="パス_176" data-name="パス 176" d="M167.091,262.555c.3-4.452,6.045-.714,2.329,3.061-1.479.231-2.374-1.4-2.329-3.061" transform="translate(-134.166 -209.195)" fill="#171c61"/>
        <path id="パス_177" data-name="パス 177" d="M194.828,303.773c-1.9.085-2.985-4.152-.259-3.906.788.077,1.918-.338,1.914.811-1,1.326-2.569.651-1.655,3.095" transform="translate(-154.913 -240.772)" fill="#171c61"/>
      </g>
    </g>
  </g>
</svg>
